<svg xmlns="http://www.w3.org/2000/svg" viewBox="0 0 750 500"><g id="freepik--Car--inject-95"><path d="M140,355.29H259s-13-55.59-59.49-55.59S142,342.88,140,355.29Z" style="fill:#E7D42F"></path><path d="M140,355.29H259s-13-55.59-59.49-55.59S142,342.88,140,355.29Z" style="opacity:0.2"></path><path d="M485.3,361.29h119s-13-55.59-59.49-55.59S487.35,348.88,485.3,361.29Z" style="fill:#E7D42F"></path><path d="M485.3,361.29h119s-13-55.59-59.49-55.59S487.35,348.88,485.3,361.29Z" style="opacity:0.2"></path><path d="M112.77,253.9c-2.55,4-7,48.69-7.29,50.25s-4,8.4-4,9.7-1,21.42-.45,22.72a56.73,56.73,0,0,0,4.1,6.84c.65.78,17.51,15.29,19.4,15.49s19.33.32,19.66,0,2.34-54,55.26-54,52.34,57,53.32,57.22,237.87,5.6,237.87,5.6c0-8.73.68-60.67,52.59-60.67,33.82,0,50.91,27.87,51.5,48.43.24,8.56-1.19,18-.72,18,1.56,0,6.9.39,7.81,0s12-7.69,12.89-7.95,7.29-.39,8.85-.78,12.5-10,12.7-10.35.52-4.16.58-4.49,11.14-13.87,11.66-15.36.71-13.87.71-15.11-20.11-33.85-24.8-37.36-38.08-15.23-47.85-17-63.47-9.77-65.42-11.13S417.49,200,401.54,196.09c-12.89-3.12-162.09,1.17-169.9,1.56s-29.43,4.3-31.51,4.3-26-.13-27.47.52,0,6.38,1.82,7.42S117.2,246.87,112.77,253.9Z" style="fill:#E7D42F"></path><path d="M116.19,250.51c.56.52,9.89.75,10.87.36s59.74-39.48,59.78-40.62c0-.57-11-.42-12.36-.36S115.11,249.53,116.19,250.51Z" style="fill:#455a64"></path><path d="M181.63,249.89c2.55,7.52,311.18,21.58,312.87,17.94,1.25-2.7-26.36-24.87-39.25-32.1s-49.8-28.12-68-30.27-55-2-87.1-1.36c-31.84.58-69.33,1.36-82.61,7C205.93,216.1,179.61,243.91,181.63,249.89Z" style="fill:#263238"></path><path d="M190.24,245.5c.77,2.83,68.93,10.16,148.81,13.87s119.32,4.29,120.3,3.9-2.74-21.67-4.1-23.43S396.66,208.79,387.68,208s-57.52-.88-82-.49-75.57,3.32-84.27,6.83C213.74,217.44,189.45,242.67,190.24,245.5Z" style="fill:#455a64"></path><g style="opacity:0.1"><path d="M296,207.76l-45.75,45.75c-8.16-.72-15.71-1.44-22.49-2.13L270.15,209C279.19,208.42,288.2,208,296,207.76Z" style="fill:#fff"></path><path d="M459.19,258.76l-4.61,4.61q-7,0-24.15-.46l23.8-23.79a6.5,6.5,0,0,1,1,.71C456.22,241.09,458.4,252.31,459.19,258.76Z" style="fill:#fff"></path><path d="M330.1,207.32,281.45,256c-3.9-.27-7.73-.55-11.46-.84l47.74-47.75C321.65,207.35,325.82,207.32,330.1,207.32Z" style="fill:#fff"></path><path d="M434.53,228.64,401.19,262l-11.86-.44,37-37C429.14,225.93,431.9,227.3,434.53,228.64Z" style="fill:#fff"></path><path d="M262,209.46l-41.15,41.17h0l-3.14-.35,40.56-40.56Z" style="fill:#fff"></path><path d="M441.62,232.27l-30,30.06-3.38-.12,31.12-31.13Z" style="fill:#fff"></path><path d="M398.45,211.62,350.2,259.87l-3.36-.14L396,210.61Z" style="fill:#fff"></path><path d="M229.3,212.6,194.86,247c-1.15-.23-2.1-.45-2.83-.67l33-33C226.28,213.09,227.7,212.84,229.3,212.6Z" style="fill:#fff"></path></g><path d="M233,212.08c.32,0,.47.42.19,1.17-1.6,4.43-14.09,29.52-17.21,35.38a2.76,2.76,0,0,1-1.77,1.24l22,2.35a1.79,1.79,0,0,1-1.09-2c.22-1.39,8.39-30.88,11-38.13a3.09,3.09,0,0,1,1.47-1.54c.44,0-3.75.06-7.73.47C236.32,211.4,233,212.08,233,212.08Z" style="fill:#263238"></path><path d="M262,209.46s.4.22.42,1c.14,6.94.92,41.69.25,43.59a.75.75,0,0,1-.32.46l4.16.33a2,2,0,0,1-.38-1c-.47-5.87-.89-37.73-.81-43.62a1.79,1.79,0,0,1,.39-1Z" style="fill:#263238"></path><path d="M330.43,208.75c.49,1.54,1.3,46.91,1.3,48.37s-1.67,1.81-1.67,1.81l25.79,1.2s-1.67-.47-2-1.25-8.4-49.7-8.35-50.34,1.32-1.24,1.32-1.24h-18A2.74,2.74,0,0,1,330.43,208.75Z" style="fill:#263238"></path><path d="M117.33,260.28c-3.17.4-10.29,7.81-10.81,9.37s-2.47,12.11-1.43,13.67,4.82,5.47,8.07,5.6,19.14-7.42,20.57-8.72,2.47-9.23.78-11.78S121.36,259.76,117.33,260.28Z" style="fill:#fff"></path><path d="M133.73,280.2c-1.43,1.3-17.32,8.85-20.57,8.72-2.48-.1-5.27-2.4-6.91-4.18a10.54,10.54,0,0,0,6.36,2c1.75-.16,16.63-6.56,18.54-8.31s2-8.34,1.74-9.53-9.86-7.38-9.86-7.38c4.75,1.83,10.34,5.17,11.48,6.89C136.2,271,135.16,278.89,133.73,280.2Z" style="fill:#ebebeb"></path><path d="M104.18,319.19c-.88.88-1.18,7.49-.26,8.07s6.25.52,7.29,0,3.71-5.47,3.51-7.16S105.22,318.15,104.18,319.19Z" style="fill:#fff"></path><path d="M579.45,282.6c2.81,4.55,23.44,12.6,31.15,13.87,4.86.8,21.68,1.86,22.66,1s-7.13-12.11-11.33-14.85-25.19-9.76-31.54-9.47S576.62,278,579.45,282.6Z" style="fill:#fff"></path><path d="M633.26,297.45c-1,.88-17.8-.18-22.66-1-7.71-1.27-28.34-9.32-31.15-13.87s4.59-9.17,10.94-9.47a12.65,12.65,0,0,1,1.48,0c-5.91,2.18-7.12,6.8-3.52,9.44s15.14,8.81,19.75,10.1c4.44,1.25,21,3.83,22.44,2.7a2.88,2.88,0,0,0,.63-2.38C632.69,295.3,633.63,297.12,633.26,297.45Z" style="fill:#ebebeb"></path><g style="opacity:0.5"><path d="M183.23,281.54a10.54,10.54,0,0,1-3,7.44,10.67,10.67,0,0,1-15.08.22,10.66,10.66,0,0,1,0-15.31,10.65,10.65,0,0,1,15.08.22A10.52,10.52,0,0,1,183.23,281.54Zm0,0a10.42,10.42,0,0,0-3.11-7.34,10.3,10.3,0,0,0-7.34-2.88,10.2,10.2,0,0,0-7.12,3.1,10.23,10.23,0,0,0,0,14.25,10.2,10.2,0,0,0,7.12,3.1,10.3,10.3,0,0,0,7.34-2.88A10.46,10.46,0,0,0,183.23,281.54Z"></path><path d="M140,313.27c-1.06-2.36-2-4.74-3-7.14s-1.84-4.8-2.76-7.21-1.75-4.84-2.57-7.28-1.64-4.89-2.36-7.37c1.07,2.36,2,4.74,3,7.13s1.84,4.81,2.77,7.22,1.75,4.84,2.57,7.28S139.26,310.79,140,313.27Z"></path><path d="M103.36,313.27c5.13-.1,10.25-.09,15.38-.07l15.37.16,15.37.37c5.12.16,10.24.33,15.36.6-5.12.1-10.25.09-15.37.08l-15.38-.17-15.37-.37C113.6,313.71,108.48,313.54,103.36,313.27Z"></path><path d="M345.34,263.4l1.76,12.49.76,6.26c.12,1.05.23,2.09.31,3.15s0,2.1,0,3.16L348,313.68l-.2,12.62-.11,6.3-.05,3.16-.24,3.14-1,12.58L345.34,364l.64-12.59.72-12.58.18-3.15,0-3.15.06-6.3.13-12.59.43-25.2c0-1.05.09-2.11,0-3.14s-.15-2.09-.25-3.13l-.63-6.27Z"></path><path d="M483.83,269.13,486,281.68,487,288l.26,1.57a8.53,8.53,0,0,1,.19,1.59c0,1.06,0,2.12,0,3.19-.07,8.49-.28,17-.54,25.46q-.1,3.18-.27,6.36a23.53,23.53,0,0,1-1.22,6.28c-1.16,4.09-2.49,8.12-3.95,12.12a93.14,93.14,0,0,1-5.08,11.7l-.79,1.4c-.27.46-.58.9-.87,1.35a12.07,12.07,0,0,1-1,1.29l-.52.63a2,2,0,0,1-.93.28c-2.15.22-4.26.25-6.39.32-17,.35-33.95.2-50.93.08s-33.95-.37-50.93-.68-33.94-.78-50.91-1.4c-8.48-.35-17-.63-25.44-1.39a19.56,19.56,0,0,1-3.22-.51c-.6-.23-.95-.51-1.46-.73s-.94-.46-1.42-.68c-1.93-.87-3.91-1.64-5.83-2.6a22.37,22.37,0,0,1-5.35-3.56,50.69,50.69,0,0,1-3.86-5.14c-4.78-7-9.35-14.18-13.91-21.33s-9.08-14.35-13.57-21.55-8.92-14.45-13.3-21.72l-1.62-2.74-.39-.72-.19-.36a1.83,1.83,0,0,1-.05-.4l-.16-1.58c-.18-2.12-.34-4.24-.42-6.36,0-.53,0-1.06,0-1.6a9.45,9.45,0,0,1,.34-1.56c.29-1,.64-2,1-3,.71-2,1.47-4,2.26-5.95q-1.16,3-2.21,6c-.34,1-.68,2-1,3a9.53,9.53,0,0,0-.33,1.55c0,.53,0,1.06,0,1.59.09,2.11.28,4.23.47,6.34l.17,1.58a2.44,2.44,0,0,0,.06.39l.19.34c.13.22.24.44.38.67l1.64,2.73c4.43,7.23,9,14.42,13.48,21.6,9,14.35,18.07,28.74,27.6,42.78a50.4,50.4,0,0,0,3.78,5,22.1,22.1,0,0,0,5.22,3.45c1.89.93,3.86,1.69,5.81,2.57.49.22,1,.44,1.45.68s1,.56,1.39.7a20.64,20.64,0,0,0,3.06.46c8.43.74,16.93,1,25.41,1.31,17,.58,33.93.95,50.9,1.26s33.94.64,50.92.83,34,.37,50.91.07c2.11-.06,4.25-.09,6.33-.3.24,0,.55-.1.59-.11l.5-.6a10.47,10.47,0,0,0,.94-1.25c.28-.44.59-.87.86-1.32l.78-1.37A91.63,91.63,0,0,0,481,344.35q2.21-6,4-12.07a23.61,23.61,0,0,0,1.22-6.17l.29-6.36c.34-8.48.62-17,.76-25.45,0-1.06,0-2.12,0-3.17a9.44,9.44,0,0,0-.18-1.58l-.25-1.57-1-6.28Z"></path><path d="M593.07,290.71a58,58,0,0,1-7,5.05c-2.43,1.57-4.91,3.05-7.37,4.56s-5,2.91-7.51,4.31-5.06,2.77-7.65,4.06c2.41-1.6,4.86-3.13,7.31-4.65l7.4-4.48,7.46-4.37,3.74-2.18A35.65,35.65,0,0,0,593.07,290.71Z"></path><polygon points="235.74 315.54 268.8 316.41 301.87 317.41 368 319.43 434.12 321.74 467.18 322.9 500.23 324.2 467.16 323.33 434.1 322.33 367.97 320.31 301.85 318 268.79 316.83 235.74 315.54"></polygon><path d="M233.79,268.15l-1.3.07h-.32c-.07,0-.08.06-.12.16a4.25,4.25,0,0,0-.12.62,16.71,16.71,0,0,0-.05,2.55,10.35,10.35,0,0,0,.11,1.26,2.44,2.44,0,0,0,.14.55l0,0h.1l.24,0c.84.08,1.71.1,2.56.13,3.44.11,6.89.22,10.33.28l5.16.15,2.58,0h1.1a2,2,0,0,0,.14-.32,5.13,5.13,0,0,0,.12-.59,14.06,14.06,0,0,0,.11-2.52,10.37,10.37,0,0,0-.11-1.25,2,2,0,0,0-.14-.48,1.46,1.46,0,0,0-.48-.14c-1.67-.29-3.41-.39-5.12-.56a47.48,47.48,0,0,1,5.19.14,1.39,1.39,0,0,1,.73.22,1.56,1.56,0,0,1,.3.72,10,10,0,0,1,.19,1.32,15.52,15.52,0,0,1,0,2.64,5.65,5.65,0,0,1-.11.68,1.21,1.21,0,0,1-.47.79.42.42,0,0,1-.25.08l-.2,0-.35,0h-3.24l-5.18-.07c-3.44-.13-6.89-.23-10.33-.48-.87-.08-1.72-.13-2.6-.26a1.29,1.29,0,0,1-.38-.08.65.65,0,0,1-.22-.08.51.51,0,0,1-.16-.23,2.42,2.42,0,0,1-.16-.7,9.77,9.77,0,0,1-.05-1.32,16.23,16.23,0,0,1,.25-2.6,3.83,3.83,0,0,1,.18-.64.6.6,0,0,1,.08-.16.25.25,0,0,1,.21-.1l.32,0Z"></path><path d="M360.34,271.28l-1.29.07h-.32c-.07,0-.09.06-.13.16a3.22,3.22,0,0,0-.11.62,16.68,16.68,0,0,0-.06,2.55c0,.43.05.85.11,1.26a2.42,2.42,0,0,0,.15.55s0,.05,0,0h.09l.25,0c.84.08,1.71.1,2.56.13,3.44.11,6.88.22,10.32.28l5.17.15,2.57,0h1.06c.06,0,.1,0,0,0a1.11,1.11,0,0,0,.13-.31,5.11,5.11,0,0,0,.13-.59,15.1,15.1,0,0,0,.11-2.52,10.37,10.37,0,0,0-.12-1.25,2.17,2.17,0,0,0-.13-.48,1.46,1.46,0,0,0-.48-.14c-1.68-.29-3.41-.39-5.12-.56a49.91,49.91,0,0,1,5.18.13,1.37,1.37,0,0,1,.73.23,1.59,1.59,0,0,1,.31.72c.09.44.14.88.19,1.32a15.52,15.52,0,0,1,0,2.64,5.65,5.65,0,0,1-.11.68c-.1.23-.06.48-.47.79a.43.43,0,0,1-.26.08l-.19,0-.35,0h-3.25l-5.17-.07c-3.45-.13-6.89-.23-10.34-.49-.86-.07-1.71-.13-2.59-.25a1.41,1.41,0,0,1-.39-.08,1.11,1.11,0,0,1-.21-.08.74.74,0,0,1-.17-.23,2.45,2.45,0,0,1-.15-.7,11.77,11.77,0,0,1-.06-1.32,17.48,17.48,0,0,1,.26-2.6,3.79,3.79,0,0,1,.17-.64.83.83,0,0,1,.09-.16.24.24,0,0,1,.21-.1l.32,0Z"></path></g><circle cx="198.44" cy="357.91" r="49.21" transform="translate(-194.96 245.14) rotate(-45)" style="fill:#263238"></circle><circle cx="198.44" cy="357.91" r="35.93" transform="translate(-194.96 245.14) rotate(-45)" style="fill:#dbdbdb"></circle><circle cx="198.44" cy="357.91" r="33.13" style="fill:#a6a6a6"></circle><path d="M203.64,349.6H193.23c3.51-5.08-8.72-22.78-8.72-22.78L190,325c3.64,6.25,5.46,8.08,8.46,8.08s4.81-1.83,8.46-8.08l5.47,1.83S200.13,344.52,203.64,349.6Z" style="fill:#dbdbdb"></path><path d="M192.36,350.23l-3.21,9.9c-3.74-4.91-24.36,1.26-24.36,1.26l0-5.77c7.07-1.53,9.37-2.7,10.3-5.55s-.26-5.14-5.07-10.55l3.43-4.63S186.45,352,192.36,350.23Z" style="fill:#dbdbdb"></path><path d="M189.48,361.15l8.42,6.12c-5.83,2-6.33,23.55-6.33,23.55l-5.5-1.73c.72-7.2.33-9.75-2.1-11.51s-5-1.35-11.6,1.56L169,374.45S189.34,367.32,189.48,361.15Z" style="fill:#dbdbdb"></path><path d="M199,367.27l8.42-6.12c.14,6.17,20.45,13.3,20.45,13.3l-3.35,4.7c-6.62-2.92-9.17-3.33-11.59-1.57s-2.82,4.31-2.1,11.51l-5.5,1.73S204.8,369.31,199,367.27Z" style="fill:#dbdbdb"></path><path d="M207.73,360.13l-3.22-9.9c5.91,1.77,19-15.34,19-15.34l3.44,4.64c-4.82,5.39-6,7.69-5.08,10.54s3.24,4,10.31,5.56l-.06,5.76S211.47,355.22,207.73,360.13Z" style="fill:#dbdbdb"></path><circle cx="198.44" cy="357.67" r="9.62" style="fill:#dbdbdb"></circle><circle cx="542.78" cy="357.91" r="49.21" transform="matrix(0.94, -0.34, 0.34, 0.94, -88.66, 203.02)" style="fill:#263238"></circle><circle cx="542.78" cy="357.91" r="35.93" transform="translate(58.19 791.36) rotate(-75.21)" style="fill:#dbdbdb"></circle><circle cx="542.78" cy="357.91" r="33.13" style="fill:#a6a6a6"></circle><path d="M548,349.6H537.57c3.52-5.08-8.72-22.78-8.72-22.78l5.47-1.83c3.64,6.25,5.46,8.08,8.46,8.08s4.81-1.83,8.47-8.08l5.46,1.83S544.47,344.52,548,349.6Z" style="fill:#dbdbdb"></path><path d="M536.7,350.23l-3.21,9.9c-3.74-4.91-24.36,1.26-24.36,1.26l-.05-5.77c7.07-1.53,9.37-2.7,10.3-5.55s-.26-5.14-5.07-10.55l3.43-4.63S530.79,352,536.7,350.23Z" style="fill:#dbdbdb"></path><path d="M533.82,361.15l8.42,6.12c-5.82,2-6.33,23.55-6.33,23.55l-5.5-1.73c.73-7.2.33-9.75-2.09-11.51s-5-1.35-11.6,1.56l-3.35-4.69S533.68,367.32,533.82,361.15Z" style="fill:#dbdbdb"></path><path d="M543.32,367.27l8.42-6.12c.14,6.17,20.44,13.3,20.44,13.3l-3.35,4.7c-6.62-2.92-9.17-3.33-11.59-1.57s-2.82,4.31-2.1,11.51l-5.5,1.73S549.14,369.31,543.32,367.27Z" style="fill:#dbdbdb"></path><path d="M552.07,360.13l-3.22-9.9c5.91,1.77,19-15.34,19-15.34l3.43,4.64c-4.82,5.39-6,7.69-5.07,10.54s3.23,4,10.3,5.56l-.06,5.76S555.81,355.22,552.07,360.13Z" style="fill:#dbdbdb"></path><circle cx="542.78" cy="357.67" r="9.62" style="fill:#dbdbdb"></circle><path d="M448.05,244.91c-1.79,1.8-1.63,17.84-.33,19.14s19.14,2.48,20.57-7.48S450.85,242.11,448.05,244.91Z" style="fill:#E7D42F"></path><path d="M513.14,254.5H498.63c-37.76-24.91-89.58-49.56-89.58-49.56l8.6-2.07c31.37,15.18,91.86,49.91,93.45,51A9,9,0,0,0,513.14,254.5Z" style="fill:#455a64"></path><g style="opacity:0.5"><path d="M140,325.76a63.45,63.45,0,0,1,11-13.54,69.55,69.55,0,0,1,14.18-10.32A68.73,68.73,0,0,1,199,293.57l4.4.2,2.2.11c.73.08,1.46.2,2.19.3l4.36.62c1.44.3,2.86.68,4.29,1a54.2,54.2,0,0,1,16.14,6.92,56.38,56.38,0,0,1,13.06,11.68,78.41,78.41,0,0,1,9.23,14.86,81.82,81.82,0,0,0-9.67-14.49,55.87,55.87,0,0,0-13.1-11.29c-9.86-6.15-21.57-8.65-33.1-8.76a70.64,70.64,0,0,0-17.21,1.85,68.6,68.6,0,0,0-16.2,6.1,69.36,69.36,0,0,0-14.22,9.95A66.22,66.22,0,0,0,140,325.76Z" style="fill:#fff"></path><path d="M484.78,325.76a63.45,63.45,0,0,1,11-13.54A69.55,69.55,0,0,1,510,301.9a68.73,68.73,0,0,1,33.84-8.33l4.4.2,2.2.11c.73.08,1.46.2,2.18.3l4.37.62c1.43.3,2.86.68,4.29,1a54.2,54.2,0,0,1,16.14,6.92,56.38,56.38,0,0,1,13.06,11.68,78.41,78.41,0,0,1,9.23,14.86c-2.86-5.08-5.81-10.13-9.67-14.49a56.28,56.28,0,0,0-13.1-11.29c-9.86-6.15-21.57-8.65-33.11-8.76a70.62,70.62,0,0,0-17.2,1.85,69.25,69.25,0,0,0-30.42,16.05A65.9,65.9,0,0,0,484.78,325.76Z" style="fill:#fff"></path><path d="M147.1,244.09c7.67-6,15.45-11.87,23.28-17.66s15.75-11.48,23.9-16.87c1-.65,2.06-1.31,3.13-1.92.53-.32,1.07-.62,1.64-.9a10,10,0,0,1,1.79-.67c2.36-.69,4.72-1.29,7.08-1.88,4.74-1.17,9.48-2.29,14.27-3.22a84.24,84.24,0,0,1,14.58-1.5c4.88-.1,9.75-.09,14.62.14-4.87,0-9.74.14-14.59.44a83.74,83.74,0,0,0-14.42,1.8c-4.74,1.07-9.49,2.16-14.19,3.37-2.36.61-4.72,1.22-7,1.92a8.39,8.39,0,0,0-1.62.62c-.52.27-1.05.56-1.56.87-1,.61-2.06,1.26-3.08,1.92-8.15,5.28-16,11-24,16.61Z" style="fill:#fff"></path></g><path d="M528.85,308.54c-37.7,8.62-38.25,51.32-38.25,59.15,0,0-236.9-5.4-237.87-5.6-.79-.17-.55-37.55-28.51-51.8,12.56,6.21,28.65,21.25,34.74,43.21.66,2.34,35.16,6,94.13,7.89s110.23.7,120-.67S494.19,308.39,528.85,308.54Z" style="opacity:0.1"></path><path d="M648.46,334.49c-.52,1.5-11.6,15-11.65,15.36s-.39,4.1-.59,4.5-11.14,10-12.7,10.34-7.94.52-8.84.78-12,7.55-12.9,7.94-6.25,0-7.81,0c-.47,0,1-9.41.72-18-.43-14.92-9.54-33.7-27.44-42.87,9.71,2.07,25.91,15.33,32.45,29s4.86,14.68,6.39,16.33,6.6-1.68,8.94-2.27,10-.78,12.9-1.36,3.4-5.86,5.41-7S645.56,337.94,648.46,334.49Z" style="opacity:0.1"></path></g></svg>