<svg xmlns="http://www.w3.org/2000/svg" viewBox="0 0 500 500"><g id="freepik--background-complete--inject-58"><rect x="187.83" y="80.54" width="236.9" height="325.61" style="fill:#f5f5f5"></rect><rect x="187.83" y="80.54" width="236.9" height="17.7" style="fill:#e0e0e0"></rect><path d="M198.57,89.39A2.38,2.38,0,1,1,196.19,87,2.38,2.38,0,0,1,198.57,89.39Z" style="fill:#f5f5f5"></path><path d="M216.4,88.88A2.38,2.38,0,1,1,214,86.49,2.38,2.38,0,0,1,216.4,88.88Z" style="fill:#f5f5f5"></path><path d="M207.92,88.88a2.38,2.38,0,1,1-2.38-2.39A2.38,2.38,0,0,1,207.92,88.88Z" style="fill:#f5f5f5"></path><path d="M450.23,114.31s-9.44-3.91-15.77,18.07-7.95,34.28-7.95,34.28-1.89,4.71-5.3,2.53-8.86-9.2-13.48-6.85c-4.8,2.43-5.38,8.42-2.8,16.56s7.58,26.18,8,27.81,0,4.18-2.59,3.07-18.37-13.09-23.6-5.24,5.68,29.33,6.83,31.71.86,3.53-.21,4.38-6-3.68-10.64-6.9-10.57-6.14-13.21-1.36-.44,22.06,21.17,46.65l10.77,10.74,14.8-3.73c31.2-9.91,42-23.57,42.22-29s-6.39-6-12-5.65-12.19,1.69-12.67.42-.12-2.42,2.09-3.86,22.65-14.22,22.21-23.64-20.15-7.32-22.92-7.69-1.84-2.82-.64-4,14.81-14.05,21.22-19.69,9-11.06,6.16-15.63c-2.75-4.39-11-1.2-15.08-1.09s-3.23-4.9-3.23-4.9,4.94-11.37,10.87-33.46S450,114.24,450,114.24" style="fill:#ebebeb"></path><path d="M444.53,134s0,.16-.1.47-.2.78-.34,1.36c-.32,1.23-.77,3-1.36,5.24-1.18,4.55-2.94,11.12-5.15,19.22-4.42,16.21-10.7,38.56-17.73,63.21s-13.37,47-17.87,63.17l-5.31,19.17c-.63,2.25-1.12,4-1.45,5.21-.17.58-.3,1-.39,1.36l-.15.45s0-.16.09-.47.2-.78.34-1.36c.32-1.22.78-3,1.36-5.24,1.18-4.55,2.95-11.11,5.16-19.22,4.41-16.21,10.7-38.55,17.72-63.21s13.37-47,17.87-63.17L442.54,141c.62-2.25,1.11-4,1.45-5.21q.24-.87.39-1.35C444.47,134.14,444.53,134,444.53,134Z" style="fill:#e0e0e0"></path><path d="M415,172.45a4.21,4.21,0,0,1,.58.94c.35.62.82,1.52,1.4,2.65,1.14,2.25,2.63,5.41,4.22,8.92l4,9,1.23,2.73a3.84,3.84,0,0,1,.4,1,5.49,5.49,0,0,1-.58-.93c-.35-.62-.82-1.53-1.38-2.66-1.12-2.27-2.58-5.44-4.16-9l-4.07-9c-.49-1.07-.91-2-1.25-2.72A4.94,4.94,0,0,1,415,172.45Z" style="fill:#e0e0e0"></path><path d="M428.22,197.71c-.07-.13,6.3-3.5,14.21-7.53s14.38-7.2,14.45-7.07-6.3,3.5-14.21,7.53S428.28,197.84,428.22,197.71Z" style="fill:#e0e0e0"></path><path d="M415.72,235.08a4.87,4.87,0,0,1,1.09-.27l3-.57c2.52-.49,6-1.18,9.83-2.07s7.27-1.81,9.75-2.49l2.94-.81a5.62,5.62,0,0,1,1.1-.24,4.17,4.17,0,0,1-1,.43c-.68.25-1.67.58-2.9,1-2.46.78-5.89,1.75-9.73,2.64s-7.34,1.53-9.89,1.93c-1.28.19-2.31.33-3,.41A4.31,4.31,0,0,1,415.72,235.08Z" style="fill:#e0e0e0"></path><path d="M398.7,214.88a5,5,0,0,1,.75.72c.46.48,1.11,1.19,1.91,2.08,1.59,1.77,3.76,4.24,6.14,7s4.51,5.26,6,7.09c.76.92,1.37,1.67,1.78,2.19a3.67,3.67,0,0,1,.6.85,4.46,4.46,0,0,1-.75-.72c-.46-.48-1.11-1.19-1.91-2.08-1.59-1.77-3.77-4.24-6.14-7s-4.51-5.26-6-7.09c-.76-.92-1.37-1.66-1.78-2.19A3.31,3.31,0,0,1,398.7,214.88Z" style="fill:#e0e0e0"></path><path d="M383.47,246.48a6.31,6.31,0,0,1,.95.93l2.46,2.65c2.05,2.26,4.86,5.4,7.94,8.9s5.85,6.67,7.83,9l2.33,2.77a6.77,6.77,0,0,1,.8,1.06,6.6,6.6,0,0,1-1-.93l-2.45-2.65c-2.05-2.26-4.86-5.41-7.94-8.9s-5.85-6.67-7.83-9l-2.33-2.77A6.52,6.52,0,0,1,383.47,246.48Z" style="fill:#e0e0e0"></path><path d="M405.41,271a8.45,8.45,0,0,1,1.38-.38l3.77-.86c3.18-.73,7.58-1.76,12.4-3s9.15-2.51,12.29-3.43l3.71-1.09a7.74,7.74,0,0,1,1.38-.35,6.61,6.61,0,0,1-1.32.54c-.86.31-2.11.74-3.66,1.25-3.11,1-7.44,2.33-12.27,3.59s-9.25,2.24-12.46,2.88c-1.6.32-2.9.56-3.81.7A6.88,6.88,0,0,1,405.41,271Z" style="fill:#e0e0e0"></path><path d="M126.3,77.61a11.25,11.25,0,0,1,8.78-.75,19.87,19.87,0,0,1,7.65,4.7c4.28,4,7,10.13,8.64,15.75-6.34,1.39-13-2.14-16.26-4.14-5.16-3.17-12.56-12-8.81-15.56" style="fill:#ebebeb"></path><path d="M162.45,98.44A9.58,9.58,0,0,1,157,90.52a12.73,12.73,0,0,1,3.23-9.31,5.36,5.36,0,0,1,4-2.21,4.08,4.08,0,0,1,3.38,2.42,8.32,8.32,0,0,1,.61,4.28c-.39,5-1.68,9.75-5.69,12.74" style="fill:#ebebeb"></path><path d="M172.39,114.38s-.33-.27-.85-.84-1.27-1.4-2.15-2.46a40.43,40.43,0,0,1-5.82-9.09,20.57,20.57,0,0,1-1.88-10.6,14.48,14.48,0,0,1,.74-3.21,4.52,4.52,0,0,1,.51-1.09,25.42,25.42,0,0,0-.88,4.33,21.38,21.38,0,0,0,2,10.35,45.07,45.07,0,0,0,5.64,9.08l2,2.56A5.35,5.35,0,0,1,172.39,114.38Z" style="fill:#e0e0e0"></path><path d="M132.53,83.85a2.24,2.24,0,0,1,.45.25l1.24.8c1.07.7,2.6,1.75,4.48,3.06,3.75,2.62,8.86,6.36,14.39,10.63s10.46,8.25,14,11.16l4.16,3.47,1.12,1a1.87,1.87,0,0,1,.36.36,2,2,0,0,1-.43-.28l-1.18-.89L166.85,110c-3.59-2.84-8.55-6.77-14.07-11s-10.6-8-14.3-10.74l-4.38-3.19-1.18-.88C132.65,84,132.52,83.87,132.53,83.85Z" style="fill:#e0e0e0"></path><path d="M160.31,107.67a22.48,22.48,0,0,0-20.52-.48c-1.62.8-3.34,2.17-3.21,4s2,2.92,3.78,3.44a19.19,19.19,0,0,0,20.26-6.55" style="fill:#ebebeb"></path><path d="M144.64,110.05a4.65,4.65,0,0,1,1-.58,7.71,7.71,0,0,1,1.24-.57,13.55,13.55,0,0,1,1.72-.61,15.94,15.94,0,0,1,2.14-.53,23,23,0,0,1,2.51-.35,26.94,26.94,0,0,1,5.8.27,27.93,27.93,0,0,1,5.58,1.59,25.43,25.43,0,0,1,4.2,2.18,18.21,18.21,0,0,1,1.5,1,11.16,11.16,0,0,1,1.06.85,4.87,4.87,0,0,1,.84.81c-.06.09-1.31-1-3.59-2.39A28.34,28.34,0,0,0,159,108.2a27.86,27.86,0,0,0-5.67-.31,24.67,24.67,0,0,0-2.47.29,17.74,17.74,0,0,0-2.12.46C146.14,109.34,144.68,110.16,144.64,110.05Z" style="fill:#e0e0e0"></path></g><g id="freepik--Floor--inject-58"><path d="M448,454.89c0,.15-88.46.26-197.56.26S52.83,455,52.83,454.89s88.44-.26,197.57-.26S448,454.75,448,454.89Z" style="fill:#263238"></path></g><g id="freepik--speech-bubble--inject-58"><path d="M99.92,153.43s.15.18.4.54l1.09,1.57,4.12,6a.12.12,0,0,1,0,.17.11.11,0,0,1-.07,0H93.91a.15.15,0,0,1-.15-.14.11.11,0,0,1,0-.08h0l.26.22a24.82,24.82,0,0,1-11,5.78,23.81,23.81,0,0,1-7.11.57,23.48,23.48,0,0,1-7.47-1.62,25.39,25.39,0,0,1-7-4.1A24.42,24.42,0,0,1,56,155.92a24.8,24.8,0,0,1,5.49-31.66,24.95,24.95,0,0,1,28-2.62,25,25,0,0,1,8.87,8.44,24.64,24.64,0,0,1,3.51,9.49c.06.37.11.73.16,1.09s0,.72.07,1.06c0,.7.08,1.37.06,2a23.88,23.88,0,0,1-.32,3.49,23.6,23.6,0,0,1-1.27,4.67c-.2.51-.37.91-.49,1.15a2.37,2.37,0,0,1-.2.39,2.54,2.54,0,0,1,.15-.4c.1-.27.26-.66.44-1.18a26,26,0,0,0,1.17-4.66,24,24,0,0,0,.27-3.46c0-.64-.06-1.3-.08-2,0-.34,0-.69-.08-1.05l-.17-1.08a24.44,24.44,0,0,0-39.8-15,24.71,24.71,0,0,0-8.26,14,24.44,24.44,0,0,0,2.89,17A24.11,24.11,0,0,0,61.8,162a25.1,25.1,0,0,0,6.83,4A23.12,23.12,0,0,0,76,167.67a23.68,23.68,0,0,0,7-.53,24.52,24.52,0,0,0,10.88-5.63.16.16,0,0,1,.24,0,.15.15,0,0,1,0,.2h0l-.26-.23a1.73,1.73,0,0,1,.53-.07h2.84l3,0,5.23.06-.1.19c-1.74-2.65-3.1-4.71-4-6.14l-1-1.6C100,153.61,99.92,153.43,99.92,153.43Z" style="fill:#263238"></path><path d="M79.33,141.68a5.32,5.32,0,0,0,3.17-4.92,5,5,0,1,0-10,0,5.32,5.32,0,0,0,3.18,5c-7.67,1.15-7.32,9.48-7.32,9.48l18.13.09S86.93,142.82,79.33,141.68Z" style="fill:#E7D42F"></path></g><g id="freepik--Window--inject-58"><rect x="168.67" y="52.1" width="236.9" height="325.61" style="fill:#fafafa"></rect><rect x="264.1" y="217.7" width="101.64" height="16.92" style="fill:#ebebeb"></rect><path d="M274.07,230.22a3.24,3.24,0,1,1,3.24-3.24A3.24,3.24,0,0,1,274.07,230.22Zm0-6.23a3,3,0,1,0,3,3A3,3,0,0,0,274.07,224Z" style="fill:#263238"></path><path d="M344.34,227.26c0,.14-13.5.26-30.15.26S284,227.4,284,227.26s13.5-.26,30.16-.26S344.34,227.11,344.34,227.26Z" style="fill:#263238"></path><rect x="168.67" y="80.49" width="236.9" height="60.69" style="fill:#263238"></rect><rect x="168.67" y="52.1" width="236.9" height="17.7" style="fill:#455a64"></rect><circle cx="177.04" cy="60.95" r="2.38" style="fill:#263238"></circle><path d="M197.25,60.44a2.38,2.38,0,1,1-2.38-2.38A2.39,2.39,0,0,1,197.25,60.44Z" style="fill:#263238"></path><path d="M188.77,60.44a2.38,2.38,0,1,1-2.38-2.38A2.39,2.39,0,0,1,188.77,60.44Z" style="fill:#263238"></path><rect x="168.67" y="69.8" width="236.9" height="10.69" style="fill:#e0e0e0"></rect><path d="M250.09,181.22c0,.14-7.93.26-17.71.26s-17.72-.12-17.72-.26,7.93-.26,17.72-.26S250.09,181.07,250.09,181.22Z" style="fill:#263238"></path><path d="M250.09,189.53c0,.15-7.93.27-17.71.27s-17.72-.12-17.72-.27,7.93-.26,17.72-.26S250.09,189.39,250.09,189.53Z" style="fill:#263238"></path><path d="M234.76,196.41a95.23,95.23,0,0,1-10,.26,95.23,95.23,0,0,1-10.05-.26,98.58,98.58,0,0,1,10.05-.26A98.58,98.58,0,0,1,234.76,196.41Z" style="fill:#263238"></path><rect x="265.11" y="151.68" width="101.08" height="26.65" style="fill:#ebebeb"></rect><path d="M279.32,191.15a5.26,5.26,0,1,1-5.25-5.25A5.25,5.25,0,0,1,279.32,191.15Z" style="fill:#e0e0e0"></path><path d="M365.74,187.38c0,.14-16.93.26-37.81.26s-37.82-.12-37.82-.26,16.93-.26,37.82-.26S365.74,187.23,365.74,187.38Z" style="fill:#263238"></path><path d="M329.32,194.88c0,.15-8.78.26-19.6.26s-19.61-.11-19.61-.26,8.78-.26,19.61-.26S329.32,194.74,329.32,194.88Z" style="fill:#263238"></path><rect x="345.62" y="203.39" width="20.12" height="2.77" style="fill:#E7D42F"></rect><rect x="345.62" y="267.86" width="20.12" height="2.77" style="fill:#E7D42F"></rect><path d="M345.62,243.08c0,.15-17.61.26-39.34.26s-39.35-.11-39.35-.26,17.62-.26,39.35-.26S345.62,242.94,345.62,243.08Z" style="fill:#263238"></path><path d="M345.62,249.83c0,.15-17.61.26-39.34.26s-39.35-.11-39.35-.26,17.62-.26,39.35-.26S345.62,249.69,345.62,249.83Z" style="fill:#263238"></path><path d="M345.62,256.58c0,.15-17.61.26-39.34.26s-39.35-.11-39.35-.26,17.62-.26,39.35-.26S345.62,256.44,345.62,256.58Z" style="fill:#263238"></path><path d="M292.22,268.74c0,.14-5.49.26-12.27.26s-12.26-.12-12.26-.26,5.49-.27,12.26-.27S292.22,268.59,292.22,268.74Z" style="fill:#263238"></path><rect x="264.1" y="285.77" width="101.64" height="60.86" style="fill:#455a64"></rect><polygon points="264.1 346.63 306.28 319.03 319.2 328.23 345.62 310.53 365.74 326.1 365.74 346.63 264.1 346.63" style="fill:#263238"></polygon><circle cx="322.12" cy="306.7" r="7.2" style="fill:#263238"></circle><rect x="212.55" y="211.84" width="10.59" height="10.59" style="fill:#e0e0e0"></rect><rect x="225.44" y="211.84" width="10.59" height="10.59" style="fill:#ebebeb"></rect><rect x="238.42" y="211.84" width="10.59" height="10.59" style="fill:#ebebeb"></rect><rect x="212.55" y="224.49" width="10.59" height="10.59" style="fill:#ebebeb"></rect><rect x="225.44" y="224.49" width="10.59" height="10.59" style="fill:#f5f5f5"></rect><rect x="238.42" y="224.49" width="10.59" height="10.59" style="fill:#e0e0e0"></rect><rect x="212.55" y="237.15" width="10.59" height="10.59" style="fill:#e0e0e0"></rect><rect x="225.44" y="237.15" width="10.59" height="10.59" style="fill:#ebebeb"></rect><rect x="238.42" y="237.15" width="10.59" height="10.59" style="fill:#e0e0e0"></rect><rect x="202.93" y="94.27" width="58.75" height="58.75" transform="translate(-0.75 1.42) rotate(-0.35)" style="fill:#E7D42F"></rect><path d="M244.75,124.91a1.09,1.09,0,0,0,.09,1.53,1.08,1.08,0,0,0,1.44-1.61A1.09,1.09,0,0,0,244.75,124.91Z" style="opacity:0.2"></path><path d="M247.33,123.77a2.53,2.53,0,0,0-3,0c-.32.25-.44.49-.38.54s.85-.41,1.87-.4,1.76.56,1.87.43S247.65,124,247.33,123.77Z" style="opacity:0.2"></path><path d="M235.26,125.28a1.09,1.09,0,0,0-1.48.37,1.07,1.07,0,0,0,.36,1.48,1.09,1.09,0,0,0,1.49-.36A1.1,1.1,0,0,0,235.26,125.28Z" style="opacity:0.2"></path><path d="M236.22,124.74a2.44,2.44,0,0,0-1.49-.5,2.57,2.57,0,0,0-1.5.48c-.32.25-.44.48-.38.54s.85-.41,1.88-.4,1.75.55,1.87.42S236.54,125,236.22,124.74Z" style="opacity:0.2"></path><path d="M242.42,130.06a28.18,28.18,0,0,0-2.32-5.25,28.58,28.58,0,0,0,1.78,5.45c.28.72.56,1.4.82,2.08a1.41,1.41,0,0,1,.2.76c0,.15-.23.21-.5.24a5,5,0,0,0-1.65.36,5.07,5.07,0,0,0,1.69.05,2.15,2.15,0,0,0,.46-.06.74.74,0,0,0,.46-.43,1.73,1.73,0,0,0-.16-1.11C243,131.47,242.69,130.78,242.42,130.06Z" style="opacity:0.2"></path><path d="M231.73,143.55s2.32,5.34,9.73,4.62v-1.92A17.25,17.25,0,0,1,231.73,143.55Z" style="fill:#fff;opacity:0.1"></path><path d="M247.77,116.11l-.1.07-.06,0a12.82,12.82,0,0,1-9.8-.21c-4-1.61-8.56-2.19-9.49-1.34s-.82,4.84-4.54,6.3c0,0,.84,7.35-2.07,7.5h0l-.06,0c-.08-1.68-.15-3.24-.15-3.24a4.86,4.86,0,0,0-.61-.14,5.27,5.27,0,0,0-2.18.07c-1.16.33-2.22,1.27-2.13,3.67.15,4,3.33,4.08,4.67,3.85l1,20.42,19.29-.12c.07-1.56,0-2.67,0-4.05l0-.74c-7.41.72-9.73-4.62-9.73-4.62a17.25,17.25,0,0,0,9.7,2.7v.1c.14,0,7.41-1.27,7.45-8.63C248.93,132.18,248.16,121.29,247.77,116.11ZM220,130.89a1,1,0,0,1-.8.16,2.31,2.31,0,0,1-1.38-2.14,3,3,0,0,1,.26-1.43,1.24,1.24,0,0,1,.89-.82.69.69,0,0,1,.5.11.59.59,0,0,1,.21.31c.05.21,0,.31-.06.3s0-.11-.07-.25a.45.45,0,0,0-.53-.22,1,1,0,0,0-.64.7,2.93,2.93,0,0,0-.2,1.28,2.18,2.18,0,0,0,1.09,1.92.9.9,0,0,0,.66,0c.14-.07.21-.15.23-.14S220.2,130.76,220,130.89ZM245,121.56c1.46-.08,2.48.64,2.35.88s-1.11.09-2.29.16-2.16.34-2.3.08S243.51,121.63,245,121.56Zm-13.64.23c0-.3,1.06-.44,2.28-.49l1.54-.08c.38,0,.64,0,.72.09s-.09.39-.51.62a4.38,4.38,0,0,1-1.7.41C232.32,122.39,231.3,122.07,231.32,121.79Zm4.31,5a1.09,1.09,0,0,1-1.49.36,1.07,1.07,0,0,1-.36-1.48,1.09,1.09,0,0,1,1.48-.37A1.1,1.1,0,0,1,235.63,126.77Zm1-1.49c-.12.13-.85-.42-1.87-.42s-1.77.53-1.88.4.06-.29.38-.54a2.57,2.57,0,0,1,1.5-.48,2.44,2.44,0,0,1,1.49.5C236.54,125,236.65,125.23,236.6,125.28Zm2.79,11.06c-1.36-.46-2-1.54-1.84-1.6s.82.72,2,1.11a16.36,16.36,0,0,0,2.26.35A2.55,2.55,0,0,1,239.39,136.34Zm4-3.08a.74.74,0,0,1-.46.43,2.15,2.15,0,0,1-.46.06,5.07,5.07,0,0,1-1.69-.05,5,5,0,0,1,1.65-.36c.27,0,.48-.09.5-.24a1.41,1.41,0,0,0-.2-.76c-.26-.68-.54-1.36-.82-2.08a28.58,28.58,0,0,1-1.78-5.45,28.18,28.18,0,0,1,2.32,5.25c.27.72.53,1.41.78,2.09A1.73,1.73,0,0,1,243.36,133.26Zm3-6.91a1.08,1.08,0,0,1-1.52.09,1.08,1.08,0,1,1,1.44-1.61A1.08,1.08,0,0,1,246.36,126.35Zm1.34-2c-.11.13-.84-.43-1.87-.43s-1.76.53-1.87.4.06-.29.38-.54a2.53,2.53,0,0,1,3,0C247.65,124,247.76,124.26,247.7,124.32Z" style="fill:#fff;opacity:0.2"></path><path d="M219.31,130.81a2.18,2.18,0,0,1-1.09-1.92,2.93,2.93,0,0,1,.2-1.28,1,1,0,0,1,.64-.7.45.45,0,0,1,.53.22c.07.14,0,.24.07.25s.11-.09.06-.3a.59.59,0,0,0-.21-.31.69.69,0,0,0-.5-.11,1.24,1.24,0,0,0-.89.82,3,3,0,0,0-.26,1.43,2.31,2.31,0,0,0,1.38,2.14,1,1,0,0,0,.8-.16c.16-.13.18-.25.16-.26s-.09.07-.23.14A.9.9,0,0,1,219.31,130.81Z" style="fill:#fff;opacity:0.1"></path><path d="M221.15,110.47c.11-.08-.38-.84-1.4-1.15s-1.86,0-1.8.17.79.06,1.65.33S221,110.57,221.15,110.47Z" style="opacity:0.2"></path><path d="M221.93,110.7a17.27,17.27,0,0,1-.72-2.13,12.6,12.6,0,0,0-.4-2.3,3.65,3.65,0,0,0-.11,2.41,3.47,3.47,0,0,0,1.14,2.07s.07,0,.08,0S221.94,110.73,221.93,110.7Z" style="opacity:0.2"></path><path d="M245,122.6c1.18-.07,2.17.12,2.29-.16s-.89-1-2.35-.88-2.4.88-2.24,1.12S243.83,122.65,245,122.6Z" style="opacity:0.2"></path><path d="M233.65,122.34a4.38,4.38,0,0,0,1.7-.41c.42-.23.59-.51.51-.62s-.34-.1-.72-.09l-1.54.08c-1.22,0-2.27.19-2.28.49S232.32,122.39,233.65,122.34Z" style="opacity:0.2"></path><path d="M237.55,134.74c-.13.06.48,1.14,1.84,1.6a2.55,2.55,0,0,0,2.43-.14,16.36,16.36,0,0,1-2.26-.35C238.37,135.46,237.67,134.65,237.55,134.74Z" style="opacity:0.2"></path><path d="M248.17,104a8.52,8.52,0,0,0-9.56-1.26c-1.4.75-2.59,1.89-4.1,2.37-1.81.57-3.76.08-5.65-.06s-4.1.24-5.05,1.88c-.61,1-.58,2.45-1.41,3.35a2.22,2.22,0,0,1-.47.4s0,0,0,.06,0,0-.08,0c-1.17.7-2.83.5-4.19,1a4.5,4.5,0,0,0-2.87,3.72,5.34,5.34,0,0,0,1.76,4.43,8.23,8.23,0,0,1,2,2,5.43,5.43,0,0,1,.14,3.3,5.27,5.27,0,0,1,2.18-.07,4.86,4.86,0,0,1,.61.14s.07,1.56.15,3.24l.06,0h0c2.91-.15,2.07-7.5,2.07-7.5,3.72-1.46,3.61-5.45,4.54-6.3s5.49-.27,9.49,1.34a12.82,12.82,0,0,0,9.8.21l.06,0,.1-.07L248,116l.22-.12v0a5.66,5.66,0,0,0,1.84-2.34A8.51,8.51,0,0,0,248.17,104Z" style="opacity:0.2"></path><path d="M405.34,52.1l.23.24-236.87,0h0l.27-.26c0,121.69,0,234.34-.05,325.61l-.22-.21,236.9.21-236.9.22h-.21v-.22c0-91.27,0-203.92-.05-325.61v-.26h.29l236.87,0h.24v.23c-.14,192.62-.23,323.53-.24,325.61" style="fill:#263238"></path></g><g id="freepik--Character--inject-58"><path d="M84.86,280.11l1.29,2.75a25.77,25.77,0,0,0,2.08,4.66,7.71,7.71,0,0,0,1.57,2,11.63,11.63,0,0,0,2.55,1.86,1,1,0,0,1,0,1.85c-.86.21-3.36-.75-5.49-3s-1.8,2.63-1.72,4.42.11,7.34-.42,7.81c-.78.68-1.65,0-1.7-1.82s-.56-7.15-1.51-7.06-.35,9.2-.35,9.2.44,1.93-.65,2.08c-2,.25-1.86-9.48-1.83-10.41,0-.64-1-.58-1,.12s.78,9.07-1.21,9.36c-1.53.21,0-8-1.11-9.66s-.54,6.36-2,6.5c-.54.06-1,0-.64-4.62s3.34-17.5,3.34-17.5L85,280.24" style="fill:#ffbe9d"></path><path d="M120.35,211.92s-28,27.33-28.66,30.87S87,285.56,87,285.56l-12.8-1.27S73,235.93,77,231s20-23.41,20-23.41Z" style="fill:#ffbe9d"></path><path d="M78.2,236.13s-.18-.1-.37-.39a2.4,2.4,0,0,1-.38-1.41,2.44,2.44,0,0,1,1-1.92,2.55,2.55,0,0,1,2.64-.27,2.07,2.07,0,0,1,1,1.07,1.82,1.82,0,0,1,0,1.36,1.44,1.44,0,0,1-2,.68,1.2,1.2,0,0,1-.5-1.38c.13-.35.34-.44.34-.42s-.12.16-.17.46A1,1,0,0,0,80.2,235a1.12,1.12,0,0,0,1.5-.57,1.36,1.36,0,0,0,0-1,1.56,1.56,0,0,0-.79-.83,2.15,2.15,0,0,0-2.21.2,2.19,2.19,0,0,0-1,1.62A3.12,3.12,0,0,0,78.2,236.13Z" style="fill:#eb996e"></path><path d="M179.22,142.15c-.19.53-2.65,35.87-2.65,35.87l14.18-1.08,3.51-30.75Z" style="fill:#455a64"></path><polygon points="176.57 178.02 174.66 177.47 177.4 141.62 179.45 142.21 176.57 178.02" style="fill:#263238"></polygon><circle cx="187.34" cy="150.58" r="0.83" style="fill:#263238"></circle><path d="M171.79,195.54l25,6.49-3.95-29.62h0l-.51-1.42-9.16-1.41,1.09-6.76a5.51,5.51,0,0,1,6.83-4.35l3,.8a7.84,7.84,0,0,1,5,4c1.73,3.4,3.43,7.12,3.27,6.8h0l13.4,36.36a13.74,13.74,0,0,1-1.48,14.65c-4.32,5.61-14.75,1.71-19.66.76l-32-7.05Z" style="fill:#ffbe9d"></path><path d="M121.91,159.44a1.6,1.6,0,0,1-.4,1.67,1.57,1.57,0,0,1-1.68.28c-1.06-.46-1.26-1.86-1.12-3s.46-2.37-.08-3.39a7.36,7.36,0,0,0-1.86-1.83,5,5,0,0,1-1.6-4.13,4.16,4.16,0,0,1,2.68-3.42c1.48-.51,3.36-.15,4.42-1.29.76-.84.74-2.13,1.32-3.11.89-1.51,2.94-1.85,4.69-1.71s3.55.6,5.24.09c1.4-.43,2.51-1.49,3.81-2.17a7.69,7.69,0,0,1,10.58,10,4.93,4.93,0,0,1-2.25,2.49" style="fill:#263238"></path><path d="M123.66,189.28,140.22,188c.1-1.93,0-9.41,0-9.41s6.89-1.07,7-8-1.11-22.7-1.11-22.7h0a24,24,0,0,0-24.06,3l-1,.79Z" style="fill:#ffbe9d"></path><path d="M144.46,159.71a1,1,0,0,1-.07-1.41,1,1,0,1,1,1.48,1.35A1,1,0,0,1,144.46,159.71Z" style="fill:#263238"></path><path d="M146.13,158.14c-.11.12-.78-.4-1.73-.4s-1.64.48-1.74.36.05-.27.35-.5a2.42,2.42,0,0,1,1.4-.44,2.29,2.29,0,0,1,1.38.48C146.08,157.87,146.18,158.09,146.13,158.14Z" style="fill:#263238"></path><path d="M135.2,159a1,1,0,1,1-1.38.33A1,1,0,0,1,135.2,159Z" style="fill:#263238"></path><path d="M135.83,159c-.11.12-.79-.4-1.74-.41s-1.63.49-1.74.37.06-.27.36-.5a2.25,2.25,0,0,1,1.39-.44,2.35,2.35,0,0,1,1.38.47C135.78,158.71,135.88,158.92,135.83,159Z" style="fill:#263238"></path><path d="M139.63,166.8a4.72,4.72,0,0,1,1.53-.32c.25,0,.45-.08.47-.22a1.48,1.48,0,0,0-.18-.71c-.25-.63-.49-1.26-.75-1.93a26.29,26.29,0,0,1-1.63-5.06,25.58,25.58,0,0,1,2.13,4.87c.25.67.48,1.31.71,1.95a1.57,1.57,0,0,1,.14,1,.66.66,0,0,1-.43.39,1.76,1.76,0,0,1-.42.06A4.52,4.52,0,0,1,139.63,166.8Z" style="fill:#263238"></path><path d="M136.55,167.85a17.25,17.25,0,0,0,4.65,1.35,2.63,2.63,0,0,1-3.09,1.05C136.05,169.49,136.55,167.85,136.55,167.85Z" style="fill:#fff"></path><path d="M140.19,178.44a16,16,0,0,1-9-2.55s2.12,5,9,4.34Z" style="fill:#eb996e"></path><path d="M146.19,149.61s-4,2.33-9.67,0c-3.7-1.52-7.93-2.08-8.79-1.29s-.79,4.47-4.25,5.81c0,0,.77,7-2,7s-1.87-11.05-1.87-11.05l6.59-3.85,7.37-2,7.11.47,5.56,1.09Z" style="fill:#263238"></path><path d="M121.82,158.82c-.12,0-4.73-1.4-4.58,3.31s4.84,3.59,4.85,3.45S121.82,158.82,121.82,158.82Z" style="fill:#ffbe9d"></path><path d="M120.59,163.84s-.08.06-.21.13a.8.8,0,0,1-.62,0,2,2,0,0,1-1-1.79A2.79,2.79,0,0,1,119,161a.93.93,0,0,1,.59-.65.44.44,0,0,1,.5.21c.06.13,0,.23.06.23s.1-.08.06-.27a.59.59,0,0,0-.2-.29.64.64,0,0,0-.46-.11,1.15,1.15,0,0,0-.83.76,2.71,2.71,0,0,0-.24,1.32,2.13,2.13,0,0,0,1.26,2,.9.9,0,0,0,.74-.15C120.59,164,120.61,163.85,120.59,163.84Z" style="fill:#eb996e"></path><path d="M118.62,144.23c-.05-.13.73-.47,1.68-.17s1.4,1,1.29,1.09-.65-.35-1.45-.59S118.66,144.37,118.62,144.23Z" style="fill:#263238"></path><path d="M121.3,141.25c.16,0,.15,1,.37,2.14s.75,2,.63,2-.89-.66-1.14-1.94A3.23,3.23,0,0,1,121.3,141.25Z" style="fill:#263238"></path><path d="M141.52,156.59c-.16-.23.72-1,2.08-1.05s2.31.62,2.18.86-1,.12-2.13.18S141.66,156.85,141.52,156.59Z" style="fill:#263238"></path><path d="M131,155.71c-.15-.23.72-1,2.09-1.06s2.3.62,2.17.87-1,.11-2.13.17S131.09,156,131,155.71Z" style="fill:#263238"></path><path d="M92,446.78l-1.65,6.9s-11.27,14.64-14.75,13.93c-2.28-.47.52-4.29,4.81-15.42l.9-4.59Z" style="fill:#455a64"></path><path d="M75.11,465.45a1.49,1.49,0,0,0,.6.57,2.08,2.08,0,0,0,2.16-.3,62,62,0,0,0,5.61-5.32c2.09-2.19,3.84-4.3,5.08-5.85L90,452.7l.39-.51a1.07,1.07,0,0,1,.15-.17l-.12.2-.36.52c-.31.46-.79,1.11-1.39,1.9a70.5,70.5,0,0,1-5,5.91A54,54,0,0,1,78,465.84a2.58,2.58,0,0,1-1.27.47,1.83,1.83,0,0,1-1-.22,1.16,1.16,0,0,1-.48-.44A.52.52,0,0,1,75.11,465.45Z" style="fill:#263238"></path><path d="M76.71,460.74a1.79,1.79,0,0,1,.93-.11,4.82,4.82,0,0,1,2.12.74A3.9,3.9,0,0,1,81.31,463a2,2,0,0,1,.24.9s-.11-.34-.37-.84a4.17,4.17,0,0,0-1.53-1.52,5.39,5.39,0,0,0-2-.77A8.58,8.58,0,0,0,76.71,460.74Z" style="fill:#263238"></path><path d="M87.38,457.3a1.31,1.31,0,0,1-.13-.33A7.17,7.17,0,0,1,87,456a5.14,5.14,0,0,1,.53-3.14,4.91,4.91,0,0,1,2.28-2.22,3.94,3.94,0,0,1,.93-.28c.23,0,.36,0,.36,0a8.14,8.14,0,0,0-1.23.44A5,5,0,0,0,87.74,453a5.3,5.3,0,0,0-.57,3C87.26,456.81,87.42,457.29,87.38,457.3Z" style="fill:#263238"></path><path d="M91.25,448s-.2,1-.42,2.2a7.35,7.35,0,0,1-.58,2.17s.17-1,.38-2.2A7.12,7.12,0,0,1,91.25,448Z" style="fill:#263238"></path><path d="M80.18,453.17a2.63,2.63,0,0,1,1.45,0,2.52,2.52,0,0,1,1.3.62c0,.06-.59-.24-1.35-.42S80.19,453.23,80.18,453.17Z" style="fill:#263238"></path><path d="M80,454.35a1.77,1.77,0,0,1,1.22-.05,1.79,1.79,0,0,1,1.07.59c0,.05-.49-.24-1.12-.39S80,454.41,80,454.35Z" style="fill:#263238"></path><path d="M79.05,455.83a1.83,1.83,0,0,1,2.33.53,5.74,5.74,0,0,0-1.11-.49A5.33,5.33,0,0,0,79.05,455.83Z" style="fill:#263238"></path><path d="M81,452.67s.52-.14,1.32-.45a9.78,9.78,0,0,0,1.36-.66,7.85,7.85,0,0,0,.75-.48c.23-.17.48-.41.47-.68s-.34-.41-.6-.34a1.59,1.59,0,0,0-.69.46c-.42.39-.77.76-1.06,1.08-.58.65-.9,1.08-.92,1.06a1.08,1.08,0,0,1,.19-.33,9.79,9.79,0,0,1,.62-.82,12.56,12.56,0,0,1,1-1.13,1.63,1.63,0,0,1,.78-.52.66.66,0,0,1,.85.53,1.13,1.13,0,0,1-.56.86c-.26.18-.52.34-.77.48a9.67,9.67,0,0,1-1.41.63,8.25,8.25,0,0,1-1,.27A1.44,1.44,0,0,1,81,452.67Z" style="fill:#263238"></path><path d="M81.55,452.53s-.08-.49-.21-1.26A5.46,5.46,0,0,0,81,450a3.13,3.13,0,0,0-.42-.67c-.17-.19-.44-.36-.64-.23s-.24.43-.21.68a3.17,3.17,0,0,0,.22.76,4.5,4.5,0,0,0,.73,1.13c.53.58.93.86.91.89a1,1,0,0,1-.3-.18,4.47,4.47,0,0,1-.72-.61,4.28,4.28,0,0,1-.8-1.16,2.87,2.87,0,0,1-.24-.8.88.88,0,0,1,.3-.9.76.76,0,0,1,.9.29,2.74,2.74,0,0,1,.44.72,5,5,0,0,1,.36,1.36c.05.39.06.71.07.93A1.18,1.18,0,0,1,81.55,452.53Z" style="fill:#263238"></path><path d="M148,450.27l0-9.2-17.22-.2-.22,13.45,1.07.08c4.75.32,24.17,1.3,27.36.37C162.62,453.74,148,450.27,148,450.27Z" style="fill:#455a64"></path><path d="M130.39,453.92l.3,0,.85.07,3.13.17c2.64.13,6.29.26,10.33.31s7.69,0,10.34,0l3.13-.09.85,0,.3,0h-1.15l-3.13,0c-2.65,0-6.3,0-10.34,0s-7.68-.17-10.33-.26l-3.13-.11-.85,0Z" style="fill:#263238"></path><path d="M153.59,454.69a6.85,6.85,0,0,1,.6-1.49,6.33,6.33,0,0,1,1.09-1.18,2.22,2.22,0,0,0-1.26,1.07A2.3,2.3,0,0,0,153.59,454.69Z" style="fill:#263238"></path><path d="M148.54,452c.05,0,.3-.26.55-.65s.43-.74.38-.77-.3.26-.55.66S148.49,452,148.54,452Z" style="fill:#263238"></path><path d="M147.16,451.29s.31-.14.61-.4.51-.51.47-.55-.31.13-.61.39S147.12,451.25,147.16,451.29Z" style="fill:#263238"></path><path d="M146.3,449.65c0,.06.4.12.89.13a2.21,2.21,0,0,0,.9-.08c0-.06-.4-.12-.89-.13A2,2,0,0,0,146.3,449.65Z" style="fill:#263238"></path><path d="M146,448.5a1.72,1.72,0,0,0,1,.31,1.68,1.68,0,0,0,1-.13,5.54,5.54,0,0,0-1-.08A5.06,5.06,0,0,0,146,448.5Z" style="fill:#263238"></path><path d="M149.14,450.55a3.4,3.4,0,0,0,1.11,0,7,7,0,0,0,1.18-.25,2.92,2.92,0,0,0,.68-.27.61.61,0,0,0,.28-.34.43.43,0,0,0-.16-.44,2,2,0,0,0-2.52.56,2.07,2.07,0,0,0-.37.73c-.05.19-.05.3,0,.3a3.37,3.37,0,0,1,.51-.94,2.09,2.09,0,0,1,1-.6,1.71,1.71,0,0,1,1.31.11c.18.13.11.34-.09.45a3.21,3.21,0,0,1-.63.26,7,7,0,0,1-1.14.28C149.57,450.52,149.14,450.52,149.14,450.55Z" style="fill:#263238"></path><path d="M149.43,450.61a1.1,1.1,0,0,0,.14-.77,1.94,1.94,0,0,0-.29-.81,1.13,1.13,0,0,0-.92-.58.45.45,0,0,0-.35.51,1.3,1.3,0,0,0,.19.5,3.45,3.45,0,0,0,.51.67,1.55,1.55,0,0,0,.63.46s-.22-.2-.52-.56a3.88,3.88,0,0,1-.46-.67c-.14-.23-.24-.65,0-.7s.56.25.73.48a1.82,1.82,0,0,1,.3.72A4.44,4.44,0,0,1,149.43,450.61Z" style="fill:#263238"></path><path d="M130.8,449.21s.5,0,1.28.06a5.66,5.66,0,0,1,2.76,1.18,5.56,5.56,0,0,1,1.7,2.47c.26.75.27,1.24.31,1.24s0-.13,0-.35a5.22,5.22,0,0,0-1.89-3.52,5.29,5.29,0,0,0-2.88-1.17,4.66,4.66,0,0,0-1,0A1.26,1.26,0,0,0,130.8,449.21Z" style="fill:#263238"></path><path d="M132.68,442.07a62.51,62.51,0,0,0-.18,7.07,56.85,56.85,0,0,0,.18-7.07Z" style="fill:#263238"></path><path d="M139.07,452.61a10,10,0,0,0,2.51.28,10.18,10.18,0,0,0,2.52-.17c0-.06-1.13,0-2.52,0S139.07,452.55,139.07,452.61Z" style="fill:#263238"></path><path d="M135.69,452.56s.09.24.2.5.17.49.23.48.09-.27,0-.57S135.73,452.52,135.69,452.56Z" style="fill:#263238"></path><path d="M134.44,451s.07.22.24.4.35.3.4.26-.07-.22-.25-.4S134.48,450.92,134.44,451Z" style="fill:#263238"></path><path d="M132.63,450.21c0,.06.24.06.49.15s.43.23.48.19-.1-.27-.41-.38S132.61,450.16,132.63,450.21Z" style="fill:#263238"></path><path d="M131.34,449.85c0,.06.07.15.21.2s.28.06.3,0-.07-.14-.22-.2S131.36,449.8,131.34,449.85Z" style="fill:#263238"></path><polyline points="159.74 267.66 151.7 446.31 124.88 446.87 129.34 297.31 99.17 448.01 73.67 448.01 107.72 267.66" style="fill:#263238"></polyline><path d="M80.09,445.43c.14,0,.2.37.13.78s-.24.72-.38.7-.2-.38-.13-.79S80,445.4,80.09,445.43Z" style="fill:#455a64"></path><path d="M81.07,439.58c.14,0,.15.7,0,1.5s-.36,1.45-.5,1.42-.15-.69,0-1.5S80.93,439.56,81.07,439.58Z" style="fill:#455a64"></path><path d="M82.05,433.73c.14,0,.15.7,0,1.51s-.36,1.44-.5,1.41-.15-.69,0-1.5S81.91,433.71,82.05,433.73Z" style="fill:#455a64"></path><path d="M83,427.88c.14,0,.14.7,0,1.51s-.36,1.44-.51,1.41-.14-.69,0-1.5S82.89,427.86,83,427.88Z" style="fill:#455a64"></path><path d="M84,422c.14,0,.15.7,0,1.5s-.36,1.45-.5,1.42-.15-.69,0-1.5S83.88,422,84,422Z" style="fill:#455a64"></path><path d="M85,416.18c.14,0,.15.7,0,1.5s-.36,1.45-.5,1.42-.15-.69,0-1.5S84.87,416.15,85,416.18Z" style="fill:#455a64"></path><path d="M86,410.33c.14,0,.15.7,0,1.5s-.36,1.45-.51,1.42-.14-.69,0-1.5S85.86,410.3,86,410.33Z" style="fill:#455a64"></path><path d="M87,404.48c.14,0,.15.7,0,1.51s-.36,1.44-.5,1.42-.15-.7,0-1.51S86.85,404.45,87,404.48Z" style="fill:#455a64"></path><path d="M88,398.63c.14,0,.14.7,0,1.51s-.37,1.44-.51,1.41-.14-.69,0-1.5S87.85,398.61,88,398.63Z" style="fill:#455a64"></path><path d="M89,392.78c.14,0,.14.7,0,1.51s-.37,1.44-.51,1.42-.15-.7,0-1.51S88.85,392.76,89,392.78Z" style="fill:#455a64"></path><path d="M90,386.93c.15,0,.15.7,0,1.51s-.37,1.44-.51,1.42-.14-.7,0-1.51S89.85,386.91,90,386.93Z" style="fill:#455a64"></path><path d="M91,381.09c.15,0,.15.7,0,1.5S90.64,384,90.5,384s-.14-.7,0-1.51S90.86,381.06,91,381.09Z" style="fill:#455a64"></path><path d="M92,375.24c.14,0,.14.7,0,1.51s-.37,1.44-.51,1.41-.14-.7,0-1.5S91.88,375.22,92,375.24Z" style="fill:#455a64"></path><path d="M93,369.4c.14,0,.14.69,0,1.5s-.37,1.44-.51,1.42-.14-.7,0-1.51S92.9,369.37,93,369.4Z" style="fill:#455a64"></path><path d="M94.07,363.55c.14,0,.14.7,0,1.51s-.38,1.44-.52,1.41-.14-.7,0-1.5S93.93,363.53,94.07,363.55Z" style="fill:#455a64"></path><path d="M95.1,357.71c.14,0,.14.7,0,1.51s-.37,1.44-.52,1.41-.14-.7,0-1.51S95,357.68,95.1,357.71Z" style="fill:#455a64"></path><path d="M96.14,351.87c.14,0,.14.7,0,1.5s-.38,1.44-.52,1.42-.14-.7,0-1.51S96,351.84,96.14,351.87Z" style="fill:#455a64"></path><path d="M97.19,346c.14,0,.14.7,0,1.5s-.38,1.44-.52,1.42-.14-.7,0-1.51S97.05,346,97.19,346Z" style="fill:#455a64"></path><path d="M98.25,340.19c.14,0,.14.7,0,1.5s-.38,1.44-.52,1.42-.14-.7,0-1.51S98.11,340.16,98.25,340.19Z" style="fill:#455a64"></path><path d="M99.31,334.35c.15,0,.14.7,0,1.51s-.38,1.44-.52,1.41-.14-.7,0-1.51S99.17,334.33,99.31,334.35Z" style="fill:#455a64"></path><path d="M100.39,328.52c.14,0,.14.7,0,1.5s-.39,1.44-.53,1.41-.13-.7,0-1.5S100.25,328.49,100.39,328.52Z" style="fill:#455a64"></path><path d="M101.48,322.68c.14,0,.13.7,0,1.51s-.39,1.44-.53,1.41-.13-.7,0-1.51S101.33,322.66,101.48,322.68Z" style="fill:#455a64"></path><path d="M102.57,316.85c.14,0,.13.7,0,1.51s-.39,1.43-.53,1.41-.13-.7,0-1.51S102.43,316.83,102.57,316.85Z" style="fill:#455a64"></path><path d="M103.68,311c.14,0,.13.7,0,1.51s-.4,1.43-.54,1.41-.13-.7,0-1.51S103.54,311,103.68,311Z" style="fill:#455a64"></path><path d="M104.8,305.2c.14,0,.13.7,0,1.5s-.39,1.44-.53,1.41-.13-.7,0-1.51S104.66,305.17,104.8,305.2Z" style="fill:#455a64"></path><path d="M105.93,299.37c.14,0,.13.7,0,1.51s-.4,1.43-.54,1.4-.13-.7,0-1.5S105.79,299.34,105.93,299.37Z" style="fill:#455a64"></path><path d="M107.07,293.55c.14,0,.13.7,0,1.5s-.4,1.44-.54,1.41-.13-.7,0-1.51S106.93,293.52,107.07,293.55Z" style="fill:#455a64"></path><path d="M108.23,287.73c.14,0,.13.7,0,1.51s-.41,1.43-.55,1.4-.13-.7,0-1.51S108.09,287.7,108.23,287.73Z" style="fill:#455a64"></path><path d="M109.4,281.91c.15,0,.13.71,0,1.51s-.41,1.43-.55,1.4-.13-.7,0-1.5S109.26,281.88,109.4,281.91Z" style="fill:#455a64"></path><path d="M110.59,276.1c.14,0,.13.7,0,1.5S110.14,279,110,279s-.12-.71,0-1.51S110.45,276.07,110.59,276.1Z" style="fill:#455a64"></path><path d="M111.5,271.72c.14,0,.19.38.1.78s-.26.71-.4.68-.19-.38-.11-.78S111.36,271.69,111.5,271.72Z" style="fill:#455a64"></path><path d="M129.51,445.41c.14,0,.24.35.22.76s-.16.74-.3.74-.24-.35-.22-.77S129.36,445.4,129.51,445.41Z" style="fill:#455a64"></path><path d="M129.75,439.46c.15,0,.24.67.21,1.5s-.18,1.48-.32,1.47-.24-.67-.2-1.49S129.61,439.45,129.75,439.46Z" style="fill:#455a64"></path><path d="M129.94,433.5c.14,0,.24.68.21,1.5s-.16,1.48-.3,1.48-.24-.67-.22-1.5S129.79,433.5,129.94,433.5Z" style="fill:#455a64"></path><path d="M130.09,427.55c.14,0,.24.67.22,1.49s-.15,1.49-.3,1.49-.24-.68-.22-1.5S129.94,427.55,130.09,427.55Z" style="fill:#455a64"></path><path d="M130.23,421.59c.14,0,.24.68.22,1.5s-.15,1.49-.29,1.48-.25-.67-.23-1.49S130.08,421.59,130.23,421.59Z" style="fill:#455a64"></path><path d="M130.38,415.63c.15,0,.25.68.22,1.5s-.15,1.49-.3,1.48-.24-.67-.22-1.49S130.24,415.63,130.38,415.63Z" style="fill:#455a64"></path><path d="M130.58,409.68c.14,0,.24.67.21,1.5s-.17,1.48-.32,1.47-.23-.67-.2-1.49S130.44,409.67,130.58,409.68Z" style="fill:#455a64"></path><path d="M130.83,403.73c.14,0,.23.67.2,1.49s-.18,1.49-.32,1.48-.24-.68-.2-1.5S130.69,403.72,130.83,403.73Z" style="fill:#455a64"></path><path d="M131.06,397.77c.15,0,.24.68.21,1.5s-.18,1.48-.32,1.48-.24-.68-.2-1.5S130.92,397.77,131.06,397.77Z" style="fill:#455a64"></path><path d="M131.27,391.82c.14,0,.24.67.21,1.5s-.17,1.48-.31,1.48-.24-.68-.21-1.5S131.13,391.81,131.27,391.82Z" style="fill:#455a64"></path><path d="M131.45,385.86c.15,0,.24.67.22,1.5s-.16,1.48-.31,1.48-.24-.68-.21-1.5S131.31,385.86,131.45,385.86Z" style="fill:#455a64"></path><path d="M131.61,379.91c.14,0,.24.67.22,1.49s-.15,1.49-.3,1.48-.24-.67-.22-1.49S131.46,379.9,131.61,379.91Z" style="fill:#455a64"></path><path d="M131.74,374c.14,0,.24.67.23,1.49s-.15,1.49-.29,1.49-.25-.67-.23-1.5S131.59,374,131.74,374Z" style="fill:#455a64"></path><path d="M131.84,368c.14,0,.25.68.23,1.5s-.14,1.48-.28,1.48-.25-.67-.24-1.49S131.69,368,131.84,368Z" style="fill:#455a64"></path><path d="M131.91,362c.14,0,.25.67.24,1.49S132,365,131.88,365s-.26-.67-.25-1.5S131.76,362,131.91,362Z" style="fill:#455a64"></path><path d="M132,356.08c.14,0,.26.67.25,1.49s-.12,1.49-.27,1.49-.25-.67-.25-1.49S131.81,356.08,132,356.08Z" style="fill:#455a64"></path><path d="M132,350.13c.15,0,.26.66.26,1.48s-.12,1.49-.26,1.49-.26-.66-.26-1.49S131.82,350.13,132,350.13Z" style="fill:#455a64"></path><path d="M132,344.17c.14,0,.26.66.26,1.49s-.11,1.49-.25,1.49-.26-.67-.27-1.49S131.8,344.17,132,344.17Z" style="fill:#455a64"></path><path d="M131.9,338.21c.14,0,.27.67.27,1.49s-.1,1.49-.24,1.49-.27-.66-.28-1.49S131.76,338.21,131.9,338.21Z" style="fill:#455a64"></path><path d="M131.82,332.26c.15,0,.27.66.28,1.48s-.09,1.49-.23,1.49-.27-.66-.29-1.48S131.68,332.26,131.82,332.26Z" style="fill:#455a64"></path><path d="M131.72,326.3c.14,0,.27.66.29,1.49s-.09,1.49-.24,1.49-.27-.66-.28-1.48S131.57,326.31,131.72,326.3Z" style="fill:#455a64"></path><path d="M131.58,320.34c.15,0,.28.66.3,1.49s-.08,1.49-.22,1.49-.28-.66-.3-1.48S131.44,320.35,131.58,320.34Z" style="fill:#455a64"></path><path d="M131.37,314.38c.15,0,.29.66.32,1.48s-.06,1.5-.2,1.5-.29-.65-.32-1.48S131.23,314.39,131.37,314.38Z" style="fill:#455a64"></path><path d="M131,308.43c.14,0,.3.65.35,1.47s0,1.5-.16,1.51-.3-.65-.36-1.47S130.88,308.45,131,308.43Z" style="fill:#455a64"></path><path d="M130.48,302.5c.14,0,.33.64.41,1.46s0,1.49-.11,1.51-.32-.64-.41-1.46S130.34,302.52,130.48,302.5Z" style="fill:#455a64"></path><path d="M129.9,298.07c.15,0,.31.3.37.71s0,.76-.15.78-.31-.3-.37-.71S129.76,298.1,129.9,298.07Z" style="fill:#455a64"></path><path d="M133.8,269.92a4.22,4.22,0,0,1,0,1.11c0,.7-.05,1.73-.11,3-.11,2.53-.29,6-.53,9.88-.13,1.92-.25,3.76-.36,5.44a15.82,15.82,0,0,1-.65,4.45,3.76,3.76,0,0,1-2.08,2.2,2.11,2.11,0,0,1-.82.16c-.19,0-.29,0-.29-.05a4.77,4.77,0,0,0,1-.29,3.68,3.68,0,0,0,1.81-2.15,16.39,16.39,0,0,0,.52-4.35c.1-1.69.21-3.52.32-5.44.24-3.86.48-7.35.69-9.88.1-1.26.19-2.28.26-3A5.39,5.39,0,0,1,133.8,269.92Z" style="fill:#455a64"></path><path d="M131.05,272.29c0-.06.45,0,.61.61a1.12,1.12,0,0,1-.22,1,1.09,1.09,0,0,1-1.24.25,1.05,1.05,0,0,1-.18-1.92c.53-.31.9-.05.86,0s-.34,0-.65.31a.8.8,0,0,0-.27.58.64.64,0,0,0,.43.56.66.66,0,0,0,.7-.1.83.83,0,0,0,.21-.61C131.27,272.54,131,272.36,131.05,272.29Z" style="fill:#455a64"></path><path d="M105.81,276.53c0-.08.87.29,2.29.49a9.82,9.82,0,0,0,9.63-4.31c.8-1.19,1.07-2.06,1.16-2a5.18,5.18,0,0,1-.85,2.23,9.46,9.46,0,0,1-10,4.47A5.24,5.24,0,0,1,105.81,276.53Z" style="fill:#455a64"></path><path d="M150.42,269.92c.08,0,.1.74.45,1.84a8,8,0,0,0,6.39,5.6c1.14.2,1.87.12,1.88.21a3.84,3.84,0,0,1-1.93.16,7.63,7.63,0,0,1-6.7-5.87A3.67,3.67,0,0,1,150.42,269.92Z" style="fill:#455a64"></path><path d="M165.47,274l-59.12-4.09,2.05-28.24,0-15.78-5.74,8.87L84.85,219.26l19.17-25h0a30.12,30.12,0,0,1,11.66-7.55,24.29,24.29,0,0,1,7.31-1.4h0a29.32,29.32,0,0,0,17.66,0,86.69,86.69,0,0,1,16.05,3l22.38,6-7.37,27.49-13.52-4.55S165.61,268.3,165.47,274Z" style="fill:#E7D42F"></path><path d="M107.86,226.81a29.1,29.1,0,0,1,4.15-6.5,15,15,0,0,1-1.85,3.39A14.69,14.69,0,0,1,107.86,226.81Z" style="fill:#263238"></path><g style="opacity:0.6000000000000001"><path d="M178.27,194.61c0,.14-16.58.26-37,.26s-37-.12-37-.26,16.57-.26,37-.26S178.27,194.47,178.27,194.61Z" style="fill:#fff"></path></g><g style="opacity:0.6000000000000001"><path d="M174.69,207.37c0,.15-17.88.26-39.94.26s-39.95-.11-39.95-.26,17.88-.26,40-.26S174.69,207.23,174.69,207.37Z" style="fill:#fff"></path></g><g style="opacity:0.6000000000000001"><path d="M159.14,221.41c0,.14-16,.26-35.74.26s-35.75-.12-35.75-.26,16-.26,35.75-.26S159.14,221.27,159.14,221.41Z" style="fill:#fff"></path></g><g style="opacity:0.6000000000000001"><path d="M161,236.69c0,.14-11.77.26-26.29.26s-26.29-.12-26.29-.26,11.76-.26,26.29-.26S161,236.54,161,236.69Z" style="fill:#fff"></path></g><g style="opacity:0.6000000000000001"><path d="M162.55,252.54c0,.14-12.08.26-27,.26s-27-.12-27-.26,12.08-.26,27-.26S162.55,252.4,162.55,252.54Z" style="fill:#fff"></path></g><g style="opacity:0.6000000000000001"><path d="M165,267.08c0,.14-13.08.26-29.21.26s-29.22-.12-29.22-.26,13.08-.26,29.22-.26S165,266.93,165,267.08Z" style="fill:#fff"></path></g></g></svg>