<svg xmlns="http://www.w3.org/2000/svg" viewBox="0 0 500 500"><g id="freepik--background-complete--inject-272"><path d="M483,101.56S476.44,96,465.64,112s-15.3,25.54-15.3,25.54-2.74,3.31-4.92.67-4.76-9.71-9.09-9c-4.49.71-6.51,5.39-6.54,12.61s-.69,23.06-.76,24.49-1.1,3.36-2.88,1.79-11.41-15.3-17.65-10.34-3,25.1-2.73,27.31-.22,3.07-1.3,3.48-3.88-4.52-6.78-8.31-6.93-7.69-10.29-4.53-6.07,17.66,5,43.07l5.88,11.44,12.9.84c27.7.11,39.95-8.1,41.53-12.44s-3.59-6.5-8.22-7.67-10.26-1.8-10.32-2.95.54-2,2.69-2.57,21.93-5.58,24-13.28S446.51,181.05,444.37,180s-.75-2.74.51-3.35,15.58-7.47,22.2-10.35,10.13-6.58,9-11c-1.08-4.25-8.58-3.83-11.87-4.79s-1.33-4.78-1.33-4.78,6.93-7.88,17.43-24.14,2.55-20.16,2.55-20.16" style="fill:#ebebeb"></path><path d="M395.92,232.29c7.76-11.91,21.92-32.85,34-50.9s22.95-34.37,30.77-46.24l9.25-14.07,2.52-3.83.66-1c.15-.22.24-.33.24-.33s-.07.13-.21.35l-.63,1L470,121.16c-2.14,3.35-5.26,8.19-9.14,14.14-7.76,11.91-18.62,28.28-30.68,46.32S404,220.57,396.16,232.45" style="fill:#e0e0e0"></path><path d="M439.53,139.25a4.19,4.19,0,0,1,.22.9c.11.59.26,1.44.43,2.5.33,2.11.71,5,1.07,8.28s.67,6.08.91,8.29c.11,1,.21,1.84.29,2.51a4.06,4.06,0,0,1,.07.93,3.78,3.78,0,0,1-.23-.9c-.11-.59-.26-1.44-.41-2.5-.31-2.12-.66-5-1-8.29s-.71-6.07-1-8.28c-.12-1-.23-1.84-.31-2.51A4.33,4.33,0,0,1,439.53,139.25Z" style="fill:#e0e0e0"></path><path d="M443.66,163c0-.11,6-1.17,13.41-2.36s13.45-2.07,13.47-2-6,1.17-13.41,2.36S443.68,163.14,443.66,163Z" style="fill:#e0e0e0"></path><path d="M423.9,189.9a4.2,4.2,0,0,1,1,.07l2.56.32c2.17.26,5.15.62,8.47.89s6.31.42,8.49.51l2.58.11a4.09,4.09,0,0,1,.95.09,5.21,5.21,0,0,1-.95.07c-.61,0-1.49,0-2.59,0-2.18,0-5.2-.12-8.52-.4s-6.31-.68-8.47-1c-1.07-.18-1.94-.33-2.54-.45A5.78,5.78,0,0,1,423.9,189.9Z" style="fill:#e0e0e0"></path><path d="M415.43,169.21a4.24,4.24,0,0,1,.41.78l1,2.17c.83,1.84,1.93,4.39,3.14,7.22s2.26,5.4,3,7.27c.34.87.64,1.62.87,2.22a3.35,3.35,0,0,1,.27.84,4.24,4.24,0,0,1-.41-.78l-1-2.17c-.82-1.84-1.93-4.39-3.13-7.22s-2.27-5.4-3-7.27q-.51-1.32-.87-2.22A3.35,3.35,0,0,1,415.43,169.21Z" style="fill:#e0e0e0"></path><path d="M395,190.71a5.86,5.86,0,0,1,.52,1c.33.72.77,1.66,1.28,2.78,1.07,2.35,2.51,5.61,4.09,9.22s3,6.9,4,9.28l1.16,2.83a6.13,6.13,0,0,1,.38,1.06,5.86,5.86,0,0,1-.52-1c-.34-.73-.77-1.66-1.28-2.78-1.07-2.35-2.51-5.61-4.09-9.23s-3-6.89-4-9.27l-1.16-2.83A6.49,6.49,0,0,1,395,190.71Z" style="fill:#e0e0e0"></path><path d="M406.28,216.17a8.92,8.92,0,0,1,1.2.06l3.27.29c2.75.24,6.56.55,10.77.79s8,.35,10.79.41l3.28.08a6.78,6.78,0,0,1,1.2.07,7.27,7.27,0,0,1-1.2.08c-.78,0-1.9.05-3.28.05-2.77,0-6.6-.06-10.81-.3s-8-.59-10.78-.9c-1.38-.16-2.49-.3-3.25-.41A6.16,6.16,0,0,1,406.28,216.17Z" style="fill:#e0e0e0"></path><rect x="48.16" y="61.51" width="69.44" height="72.39" style="fill:#e0e0e0"></rect><rect x="43.46" y="61.51" width="69.44" height="72.39" style="fill:#fafafa"></rect><path d="M112.92,133.92H43.44V61.48h69.48Zm-69.44,0h69.4V61.53H43.48Z" style="fill:#e0e0e0"></path><rect x="52.79" y="71.24" width="50.77" height="52.93" style="fill:#fafafa"></rect><path d="M52.79,124.52A8.44,8.44,0,0,1,51.54,126c-.81.86-1.95,2-3.23,3.27s-2.45,2.38-3.31,3.18a7.73,7.73,0,0,1-1.47,1.22,8.91,8.91,0,0,1,1.25-1.45c.81-.85,1.95-2,3.23-3.28s2.46-2.38,3.32-3.18A8.06,8.06,0,0,1,52.79,124.52Z" style="fill:#e0e0e0"></path><path d="M103.57,124.39a8,8,0,0,1,1.45,1.25c.86.81,2,2,3.28,3.23s2.38,2.45,3.17,3.31a7.73,7.73,0,0,1,1.22,1.47,8.31,8.31,0,0,1-1.45-1.25c-.85-.81-2-2-3.28-3.23s-2.38-2.46-3.18-3.32A8.06,8.06,0,0,1,103.57,124.39Z" style="fill:#e0e0e0"></path><path d="M103.43,71.38a8.24,8.24,0,0,1,1.25-1.46c.81-.85,1.95-2,3.23-3.27s2.45-2.38,3.32-3.18a8.62,8.62,0,0,1,1.46-1.22,7.21,7.21,0,0,1-1.24,1.45c-.81.86-2,2-3.24,3.28s-2.45,2.39-3.32,3.18A7.9,7.9,0,0,1,103.43,71.38Z" style="fill:#e0e0e0"></path><path d="M52.66,71.51a7.84,7.84,0,0,1-1.46-1.25c-.86-.82-2-2-3.27-3.23s-2.38-2.45-3.18-3.32a8,8,0,0,1-1.22-1.47A8.91,8.91,0,0,1,45,63.49c.86.81,2,1.95,3.28,3.23s2.38,2.46,3.18,3.33A8,8,0,0,1,52.66,71.51Z" style="fill:#e0e0e0"></path><path d="M103.43,124.16s0-.09,0-.25v-.74c0-.67,0-1.62,0-2.86,0-2.51,0-6.15,0-10.79,0-9.27-.06-22.47-.1-38.28l.2.19-50.63,0h0l.23-.22c0,19.42,0,37.6,0,52.92l-.2-.19,36.67.1,10.3.05,2.72,0h1a.89.89,0,0,1-.22,0h-.69l-2.69,0-10.25.05-36.79.1H52.6v-.2c0-15.32,0-33.5,0-52.92V71h.23l50.63,0h.2v.2c0,15.86-.08,29.11-.1,38.41,0,4.61,0,8.25-.06,10.74,0,1.23,0,2.17,0,2.82,0,.31,0,.54,0,.72A1.66,1.66,0,0,1,103.43,124.16Z" style="fill:#e0e0e0"></path><rect x="69.71" y="89.23" width="16.94" height="16.94" style="fill:#ebebeb"></rect><path d="M46.68,354.21a39.2,39.2,0,0,0-16.8-5.78c-2.74-.28-5.74-.2-7.94,1.46a1.63,1.63,0,0,0-.82,1.45,1.76,1.76,0,0,0,.78,1c6.83,5.22,17.17,5.88,24.78,1.88" style="fill:#e0e0e0"></path><path d="M46.25,353.74a82.22,82.22,0,0,1-10.85-9.55,27.41,27.41,0,0,1-6.8-12.58c-.29-1.43-.38-3.07.54-4.21,8.65,6.75,15.44,15.49,17.11,26.34" style="fill:#e0e0e0"></path><path d="M46.59,354.15a39.43,39.43,0,0,1,.2-14.25c1.09-4.65,3.62-9.1,7.59-11.75,1.5,3.49.85,7.51-.2,11.16a54.45,54.45,0,0,1-7.52,15.85" style="fill:#e0e0e0"></path><path d="M55.07,369.34c-5.15.62-9.63,3.34-13.47,6.82a25.54,25.54,0,0,0-7.71,13.22c5-.31,9.33-3.87,12.44-7.86s5.26-8.37,8.67-12.1" style="fill:#e0e0e0"></path><path d="M56.91,371.77a33.24,33.24,0,0,1,3.84-31.43c2.93,10.43,1.85,22.21-3.84,31.43" style="fill:#e0e0e0"></path><path d="M68.11,385.11a24,24,0,0,0-23,13.22c-.28.57-.53,1.29-.15,1.8a1.7,1.7,0,0,0,1.52.45c4.53-.29,8.54-3,11.85-6.12s6.2-6.68,9.86-9.37" style="fill:#e0e0e0"></path><path d="M67.76,384.38a42.8,42.8,0,0,1-.43-23.9c.84-3.08,2.26-6.32,5.1-7.76a.78.78,0,0,1,1.27.44A14.33,14.33,0,0,1,74.91,360,43,43,0,0,1,73.83,367c-.89,4.25-1.37,8.81-3.7,12.46a25.82,25.82,0,0,0-1.48,2.74c-.44.93-.44,1.26-.84,2" style="fill:#e0e0e0"></path><path d="M97.41,388.8c-2.2-8.36.13-18.49,5.4-25.34.39-.5.9-1,1.54-1,1,.09,1.22,1.39,1.17,2.36a45.83,45.83,0,0,1-8.11,24" style="fill:#e0e0e0"></path><path d="M100.08,390.62c10.16,2.65,21.8.08,30.25-6.15a24.55,24.55,0,0,0-16.38-2c-5.46,1.26-10.46,3.71-13.87,8.16" style="fill:#e0e0e0"></path><path d="M102.34,385.06c5.68-9.27,16.58-15.32,27.45-15.87-1.26,4.42-4.89,7.85-9,9.92s-8.67,3-13.18,3.86c-1.75.34-4.16.71-5.29,2.09" style="fill:#e0e0e0"></path><path d="M98,358.06c1.54-5.27,3.09-10.59,3.51-16.07s-.35-11.2-3.2-15.9c-5.31,10.27-5.85,22.28-.47,32.52" style="fill:#e0e0e0"></path><path d="M115.86,349c6.21-11.28,18.88-20.3,31.7-21.57-4.94,12.32-18.43,21.84-31.7,21.57" style="fill:#e0e0e0"></path><path d="M112,351.24c9.26,1.41,17.15,7.32,25.81,10.91a11.55,11.55,0,0,0,5.84,1.12,4.57,4.57,0,0,0,2.86-8.08,12.44,12.44,0,0,0-4.24-2.57c-9.43-3.93-19.54-4-29.47-1.65" style="fill:#e0e0e0"></path><path d="M106.59,357.73c2.1.6,2.81,1.69,4.47,3.1a48.34,48.34,0,0,0,19.58,10.06c.74.18,1.72.26,2.1-.42s-.09-1.3-.51-1.83a27,27,0,0,0-11.82-8c-4.52-1.68-8.43-3.71-13.82-3.28" style="fill:#e0e0e0"></path><path d="M100.54,318.49a37.08,37.08,0,0,0,28.4,9.67,2,2,0,0,0,1.29-.47c.72-.78-.14-2-1-2.63-8.35-6.51-18.47-9.2-28.72-6.57" style="fill:#e0e0e0"></path><path d="M107.71,315.87A39.57,39.57,0,0,1,143.15,310c-4.46,4.4-10.66,6.77-16.89,7.41a53.52,53.52,0,0,1-18.55-1.56" style="fill:#e0e0e0"></path><path d="M104.86,297.84c-.82-8.34-.29-14.92-.87-23.29,0-.67-.19-1.47-.81-1.71-.87-.34-1.6.73-1.88,1.62a26.65,26.65,0,0,0,3.55,23.19" style="fill:#e0e0e0"></path><path d="M104.26,298.76c5.65-3.5,9.89-8.06,13.81-13.42,2.72-3.73,5-8.2,4.4-12.78-3.83-.08-7.47,2-10,4.95a27.66,27.66,0,0,0-5.07,10.21c-1.11,3.67-1.88,7.43-3.18,11" style="fill:#e0e0e0"></path><path d="M117.82,295a111.16,111.16,0,0,0,34-20c-4.06-1.64-8.71-.66-12.76,1-9.27,3.74-16.85,10.06-21.39,19" style="fill:#e0e0e0"></path><path d="M108.07,303.32c6.28.68,12.65,1.13,18.87.09s11.9-3.45,17.61-5.85a2.1,2.1,0,0,0,1.2-.91,1.4,1.4,0,0,0-.43-1.51,3.7,3.7,0,0,0-1.5-.7c-6.22-1.74-12.92-.93-19,1.14a88.54,88.54,0,0,0-16.71,7.74" style="fill:#e0e0e0"></path><path d="M72.26,318.78c-4.28-8.64-4-18.72-.3-27.62,2.6,4,2.92,9,2.44,13.73s-1.91,9.58-2,14.32" style="fill:#e0e0e0"></path><path d="M55.17,310.16a38.5,38.5,0,0,0-28.62,12.19c5.33.84,10.82-.54,15.67-2.91s9.16-5.69,13.43-9" style="fill:#e0e0e0"></path><path d="M43.68,306.31c-5.23-.42-10.26-1.07-15.28.47s-9.6,5-11.65,9.88A27.64,27.64,0,0,0,31.08,314a82.28,82.28,0,0,0,12.6-7.64" style="fill:#e0e0e0"></path><path d="M60.69,306.49c-4.7-3.08-9.53-6.22-15-7.49s-11.82-.34-15.64,3.79c4.43,2.6,9.81,2.91,15,2.9s11.44-.06,16.28,1.65" style="fill:#e0e0e0"></path><path d="M60.72,306.74c-8-7.9-11.08-22.07-7.85-32.87a50.06,50.06,0,0,1,7.85,32.87" style="fill:#e0e0e0"></path><path d="M82.82,284.37c1.52-3.52,2.58-7.22,3.94-10.81a31.15,31.15,0,0,1,5.63-10,14.77,14.77,0,0,1,10-5.16,40.1,40.1,0,0,1-19.32,26" style="fill:#e0e0e0"></path><path d="M78.82,289c-2.51-3.45-5.4-8.14-8.81-10.71s-7.83-4.14-12-3.15A27.88,27.88,0,0,0,78.82,289" style="fill:#e0e0e0"></path><path d="M79.62,284.66c-1.64-4.18-3.3-8.4-4-12.84s-.26-9.18,2-13.06c4.41,8.34,5.83,17.3,2.18,26" style="fill:#e0e0e0"></path><path d="M82.86,258.76c2.5-8.27,10.07-14.35,18.25-17.15a6.92,6.92,0,0,1,3.2-.48,2.78,2.78,0,0,1,2.35,2c.3,1.41-.86,2.67-2,3.6a61.92,61.92,0,0,1-21.85,12.06" style="fill:#e0e0e0"></path><path d="M83,252c.32-5.33.65-10.74,2.39-15.79s5.07-9.79,9.93-12c.83,5.39-1.54,10.74-4.41,15.38s-6.32,9-8,14.17" style="fill:#e0e0e0"></path><path d="M82.82,255.67c-2.06-6-2.28-13.68-5.88-18.93-2.53-3.67-6.57-6.17-8.74-10.05a15.3,15.3,0,0,0,.51,11.41,33.07,33.07,0,0,0,6.67,9.56c2.67,2.85,5,5,7.44,8" style="fill:#e0e0e0"></path><path d="M82.86,433.12c-.16,0-.3-40.2-.31-89.77s.11-89.78.27-89.78.3,40.19.31,89.78S83,433.12,82.86,433.12Z" style="fill:#e0e0e0"></path><path d="M118,312.71a8.58,8.58,0,0,1-1.51.57l-4.16,1.4c-3.51,1.2-8.32,2.93-13.55,5.07s-10.06,4-12.84,6.43a9.38,9.38,0,0,0-2.58,3.42c-.4.94-.47,1.52-.53,1.51a1.23,1.23,0,0,1,0-.42,6.68,6.68,0,0,1,.3-1.17,8.92,8.92,0,0,1,2.51-3.64,22.54,22.54,0,0,1,5.57-3.46c2.23-1,4.7-2.13,7.33-3.21,5.24-2.15,10.1-3.82,13.64-4.92,1.77-.55,3.22-1,4.22-1.23A8.76,8.76,0,0,1,118,312.71Z" style="fill:#e0e0e0"></path><path d="M129.5,284.43s-.13.17-.42.45l-1.29,1.21L123,290.47l-16,14.27c-6.26,5.57-11.66,10.89-15.41,14.9-1.88,2-3.35,3.65-4.36,4.81L86,325.78a3.12,3.12,0,0,1-.43.44,2.15,2.15,0,0,1,.34-.51c.25-.33.6-.81,1.08-1.4,1-1.21,2.39-2.91,4.24-4.95a202.46,202.46,0,0,1,15.32-15.05c6.28-5.56,12-10.55,16.14-14.15l4.94-4.24,1.36-1.13A3.22,3.22,0,0,1,129.5,284.43Z" style="fill:#e0e0e0"></path><path d="M100.19,310.4c-.16-.07,1.15-3.09,2.45-6.91s1.93-7,2.1-7a23.65,23.65,0,0,1-1.55,7.19,45,45,0,0,1-2,4.83A7.13,7.13,0,0,1,100.19,310.4Z" style="fill:#e0e0e0"></path><path d="M82.9,334.73a6.74,6.74,0,0,1-1-1.12l-2.47-3.16c-2.08-2.69-5-6.39-8.16-10.44S65.14,312.33,63,309.7l-2.53-3.13a6.89,6.89,0,0,1-.87-1.19,7.28,7.28,0,0,1,1,1.05c.64.69,1.55,1.72,2.66,3,2.22,2.57,5.23,6.16,8.45,10.22s6,7.8,8,10.55c1,1.37,1.79,2.49,2.33,3.28A7.68,7.68,0,0,1,82.9,334.73Z" style="fill:#e0e0e0"></path><path d="M75.2,324.84a14,14,0,0,1-3.23-6,17.29,17.29,0,0,1-.73-6.09l.26,0c-.12.47-.2.71-.25.71s0-.27,0-.75l.26,0a27.65,27.65,0,0,0,1,5.93A43.47,43.47,0,0,0,75.2,324.84Z" style="fill:#e0e0e0"></path><path d="M65.25,312.34A9.76,9.76,0,0,0,63,311a15,15,0,0,0-6.25-.5,38.34,38.34,0,0,0-6.3,1,19.92,19.92,0,0,1-2.59.62,8.84,8.84,0,0,1,2.48-1A28.84,28.84,0,0,1,56.7,310a13.63,13.63,0,0,1,6.46.7A3.86,3.86,0,0,1,65.25,312.34Z" style="fill:#e0e0e0"></path><path d="M62.9,309.3c0,.09-1.31-.52-3.45-1.25a35.49,35.49,0,0,0-8.62-1.78,36,36,0,0,0-8.78.45c-2.22.4-3.57.82-3.6.72a3.38,3.38,0,0,1,.92-.39,21.35,21.35,0,0,1,2.6-.73,30.81,30.81,0,0,1,17.62,1.34,22.33,22.33,0,0,1,2.46,1.12A3.55,3.55,0,0,1,62.9,309.3Z" style="fill:#e0e0e0"></path><path d="M82.82,296.49a73.31,73.31,0,0,1-2.51-8.75,72.75,72.75,0,0,1-2-8.88,71,71,0,0,1,2.52,8.74A71,71,0,0,1,82.82,296.49Z" style="fill:#e0e0e0"></path><path d="M83,296.49a40.23,40.23,0,0,0-2.79-5.24,23.53,23.53,0,0,0-4.1-4.24,3.83,3.83,0,0,1,1.58.82,12.67,12.67,0,0,1,3,3.09A11.61,11.61,0,0,1,83,296.49Z" style="fill:#e0e0e0"></path><path d="M82.86,411.69c-.06,0-.18-1-.63-2.67a37.82,37.82,0,0,0-2.69-7c-2.77-5.67-7.83-12.87-14.25-20.08-3.18-3.63-6.27-7.06-8.89-10.35a72.83,72.83,0,0,1-6.35-9.16,44.44,44.44,0,0,1-3.21-6.81c-.3-.84-.51-1.49-.63-1.94A3.18,3.18,0,0,1,46,353c.05,0,.35.92,1,2.56a50.07,50.07,0,0,0,3.35,6.68,76.63,76.63,0,0,0,6.42,9c2.63,3.25,5.72,6.66,8.91,10.3,6.44,7.23,11.48,14.51,14.18,20.28A34.55,34.55,0,0,1,82.45,409a17.13,17.13,0,0,1,.35,2A3.17,3.17,0,0,1,82.86,411.69Z" style="fill:#e0e0e0"></path><path d="M114.61,375.84a16.09,16.09,0,0,1-1.67.93,36.82,36.82,0,0,0-4.31,2.86A48,48,0,0,0,103,384.8c-2,2.1-4,4.54-6.13,7.15-4.18,5.25-8.09,9.89-10.43,13.59-1.19,1.84-2.05,3.39-2.62,4.48a12.44,12.44,0,0,1-.92,1.67,1.62,1.62,0,0,1,.16-.47c.12-.3.29-.75.56-1.3a41.84,41.84,0,0,1,2.47-4.6c2.27-3.79,6.15-8.5,10.33-13.73,2.09-2.62,4.17-5.07,6.19-7.17a45.93,45.93,0,0,1,5.81-5.12,31.45,31.45,0,0,1,4.46-2.73c.55-.27,1-.44,1.3-.57A1.62,1.62,0,0,1,114.61,375.84Z" style="fill:#e0e0e0"></path><path d="M115.23,387.47a23.36,23.36,0,0,1-3.52.51,46.37,46.37,0,0,0-8.34,1.64,25.3,25.3,0,0,0-7.47,3.92c-1.72,1.33-2.53,2.43-2.61,2.37a2.63,2.63,0,0,1,.52-.81,13.89,13.89,0,0,1,1.83-1.88,22.7,22.7,0,0,1,7.55-4.15,38.09,38.09,0,0,1,8.48-1.5A19.8,19.8,0,0,1,115.23,387.47Z" style="fill:#e0e0e0"></path><path d="M94.32,394.63c-.19-.1,1.4-2.52,2.63-5.78s1.42-6.16,1.63-6.13a5.75,5.75,0,0,1-.06,1.88,19.83,19.83,0,0,1-1,4.45,22,22,0,0,1-2,4.08A5.75,5.75,0,0,1,94.32,394.63Z" style="fill:#e0e0e0"></path><path d="M124.89,344.61a2.44,2.44,0,0,1-.57.3l-1.65.75c-.72.31-1.6.71-2.59,1.23s-2.15,1-3.36,1.77l-1.92,1.09c-.66.38-1.32.83-2,1.27-1.42.86-2.83,1.92-4.35,3a82.51,82.51,0,0,0-9.06,8,81.36,81.36,0,0,0-7.66,9.33c-1,1.55-2,3-2.84,4.44-.42.72-.85,1.39-1.21,2.07s-.7,1.33-1,2C86,381,85.46,382.19,85,383.2s-.85,1.9-1.14,2.64l-.69,1.67a2.74,2.74,0,0,1-.28.57,2.7,2.7,0,0,1,.17-.61c.15-.45.35-1,.59-1.72s.59-1.65,1-2.68.92-2.22,1.58-3.47l1-2c.35-.69.77-1.37,1.18-2.1.8-1.46,1.8-2.93,2.82-4.5A77.69,77.69,0,0,1,99,361.58a78.7,78.7,0,0,1,9.17-8c1.53-1.07,3-2.12,4.4-3,.71-.43,1.38-.88,2-1.25l2-1.06c1.23-.71,2.41-1.22,3.42-1.7s1.9-.86,2.64-1.14l1.7-.66A3.48,3.48,0,0,1,124.89,344.61Z" style="fill:#e0e0e0"></path><path d="M99.76,361.45a4,4,0,0,1,1.38-2.06,8.8,8.8,0,0,1,5.57-2.14,15.31,15.31,0,0,1,5.86,1.15,8.32,8.32,0,0,1,2.21,1.07,13.45,13.45,0,0,1-2.35-.68,17.61,17.61,0,0,0-5.7-1,9.09,9.09,0,0,0-5.32,1.87A16.86,16.86,0,0,0,99.76,361.45Z" style="fill:#e0e0e0"></path><path d="M96,365.32c-.16-.09,1.26-2.17,1.58-5.14a20.56,20.56,0,0,0-.36-5.37c.07,0,.38.52.66,1.5a10.81,10.81,0,0,1,.28,3.94A10.68,10.68,0,0,1,97,364C96.5,364.9,96.06,365.36,96,365.32Z" style="fill:#e0e0e0"></path><path d="M55.1,417.45c.87,15.36,5.5,31,12.62,46.78h31c6.79-15.64,11.1-31.24,11.86-46.78Z" style="fill:#e0e0e0"></path><path d="M105.53,442.31c0,.16-10.2.29-22.77.29S60,442.47,60,442.31,70.18,442,82.76,442,105.53,442.15,105.53,442.31Z" style="fill:#fafafa"></path><path d="M104.83,447.88c0,.16-9.55.29-21.34.29s-21.34-.13-21.34-.29,9.55-.3,21.34-.3S104.83,447.72,104.83,447.88Z" style="fill:#fafafa"></path><path d="M68.22,427.54a87.79,87.79,0,0,1,0,14.26,87.79,87.79,0,0,1,0-14.26Z" style="fill:#fafafa"></path><path d="M84.81,427.54a94.18,94.18,0,0,1,0,14.77,91,91,0,0,1,0-14.77Z" style="fill:#fafafa"></path><path d="M100.38,427.41a98,98,0,0,1,0,15.07,98,98,0,0,1,0-15.07Z" style="fill:#fafafa"></path><path d="M109.56,427.54c0,.16-12,.29-26.7.29s-26.71-.13-26.71-.29,12-.29,26.71-.29S109.56,427.38,109.56,427.54Z" style="fill:#fafafa"></path></g><g id="freepik--Device--inject-272"><rect x="139.88" y="57.09" width="284.94" height="408.92" rx="11.55" style="fill:#263238"></rect><rect x="148.87" y="85.07" width="266.97" height="341.5" style="fill:#fff"></rect><path d="M293.29,445.46a10.94,10.94,0,1,1-10.93-10.93A10.93,10.93,0,0,1,293.29,445.46Z" style="fill:#455a64"></path><rect x="239.44" y="68.87" width="85.82" height="4.52" rx="1.22" style="fill:#455a64"></rect><rect x="148.87" y="84.57" width="266.97" height="91.72" style="fill:#E7D42F"></rect><rect x="249.09" y="187.96" width="156.9" height="230.04" style="fill:#fff"></rect><path d="M406,418c0-2.12,0-94.44-.09-230l.09.1H249.09l.1-.11c0,86.53,0,166.42,0,230l-.08-.08L406,418l-156.9.08H249V418c0-63.62,0-143.51,0-230v-.1H406.09V188C406,323.56,406,415.88,406,418Z" style="fill:#e0e0e0"></path><path d="M289.85,217.32a.76.76,0,0,1-.83.74c-.64,0-1-.45-1-1.21s.45-1.26,1.11-1.26a1,1,0,0,1,.57.14l-.1.2a.79.79,0,0,0-.47-.12c-.52,0-.86.34-.86,1a1.34,1.34,0,0,0,0,.19.78.78,0,0,1,.74-.41A.74.74,0,0,1,289.85,217.32Zm-.25,0c0-.32-.23-.52-.61-.52a.56.56,0,0,0-.62.53c0,.27.22.52.64.52A.53.53,0,0,0,289.6,217.32Z" style="fill:#e0e0e0"></path><path d="M294.22,217V218H294v-1c0-.39-.19-.58-.52-.58a.58.58,0,0,0-.61.65v1h-.25v-1c0-.39-.19-.58-.52-.58a.58.58,0,0,0-.61.65v1h-.25v-1.82h.23v.33a.75.75,0,0,1,.67-.35.66.66,0,0,1,.65.39.79.79,0,0,1,.72-.39A.69.69,0,0,1,294.22,217Z" style="fill:#e0e0e0"></path><path d="M294.83,215.64a.18.18,0,0,1,.36,0,.18.18,0,0,1-.36,0Zm.06.58h.24V218h-.24Z" style="fill:#e0e0e0"></path><path d="M297.5,217V218h-.25v-1a.51.51,0,0,0-.55-.58.59.59,0,0,0-.63.65v1h-.25v-1.82h.23v.33a.79.79,0,0,1,.7-.35A.7.7,0,0,1,297.5,217Z" style="fill:#e0e0e0"></path><path d="M299.81,216.22V218h-.24v-.33a.72.72,0,0,1-.65.35.71.71,0,0,1-.77-.79v-1.05h.24v1a.51.51,0,0,0,.55.58.59.59,0,0,0,.62-.66v-.95Z" style="fill:#e0e0e0"></path><path d="M301.46,217.93a.59.59,0,0,1-.39.13.48.48,0,0,1-.53-.53v-1.1h-.33v-.21h.33v-.4h.24v.4h.56v.21h-.56v1.08a.3.3,0,0,0,.32.34.43.43,0,0,0,.27-.1Z" style="fill:#e0e0e0"></path><path d="M303.43,217.2H301.9a.68.68,0,0,0,.72.64.73.73,0,0,0,.56-.24l.13.16a.9.9,0,0,1-.7.3.91.91,0,0,1-1-.93.89.89,0,0,1,.9-.93.87.87,0,0,1,.88.93ZM301.9,217h1.29a.65.65,0,0,0-1.29,0Z" style="fill:#e0e0e0"></path><path d="M303.68,217.83l.11-.19a1.14,1.14,0,0,0,.65.2c.34,0,.49-.12.49-.3,0-.47-1.19-.1-1.19-.82,0-.29.26-.52.72-.52a1.28,1.28,0,0,1,.65.17l-.11.2a1,1,0,0,0-.54-.16c-.32,0-.47.13-.47.31,0,.49,1.18.12,1.18.82,0,.31-.28.52-.75.52A1.21,1.21,0,0,1,303.68,217.83Z" style="fill:#e0e0e0"></path><path d="M307.91,216.91V218h-.24v-.28a.69.69,0,0,1-.62.3c-.42,0-.67-.22-.67-.53s.18-.52.7-.52h.58v-.11c0-.31-.17-.48-.51-.48a.94.94,0,0,0-.61.21l-.11-.18a1.12,1.12,0,0,1,.74-.25A.65.65,0,0,1,307.91,216.91Zm-.25.58v-.3h-.57c-.35,0-.47.14-.47.33s.17.34.46.34A.57.57,0,0,0,307.66,217.49Z" style="fill:#e0e0e0"></path><path d="M310.27,216.22v1.6a.8.8,0,0,1-.91.91,1.28,1.28,0,0,1-.85-.28l.13-.19a1,1,0,0,0,.72.25c.46,0,.67-.21.67-.66v-.23a.84.84,0,0,1-.71.35.89.89,0,1,1,0-1.77.84.84,0,0,1,.72.37v-.35Zm-.24.86a.69.69,0,1,0-.69.67A.65.65,0,0,0,310,217.08Z" style="fill:#e0e0e0"></path><path d="M310.78,217.13a.93.93,0,1,1,.93.93A.9.9,0,0,1,310.78,217.13Zm1.6,0a.66.66,0,0,0-.67-.71.71.71,0,1,0,.67.71Z" style="fill:#e0e0e0"></path><path d="M391,243.91c0,.15-29.19.26-65.19.26s-65.21-.11-65.21-.26,29.19-.26,65.21-.26S391,243.77,391,243.91Z" style="fill:#263238"></path><path d="M391,251.32c0,.14-29.19.26-65.19.26s-65.21-.12-65.21-.26,29.19-.26,65.21-.26S391,251.17,391,251.32Z" style="fill:#263238"></path><path d="M391,258.72c0,.15-29.19.26-65.19.26s-65.21-.11-65.21-.26,29.19-.26,65.21-.26S391,258.58,391,258.72Z" style="fill:#263238"></path><path d="M328.36,266.13a4,4,0,0,1-.71.05l-2,.05-7.41.08-24.43.08-24.44-.08-7.41-.08-2-.05a3.81,3.81,0,0,1-.7-.05,3.2,3.2,0,0,1,.7-.06l2,0,7.41-.09,24.44-.07,24.43.07,7.41.09,2,0A3.36,3.36,0,0,1,328.36,266.13Z" style="fill:#263238"></path><rect x="275.58" y="260.97" width="104.96" height="139.64" transform="translate(-4.55 657.01) rotate(-89.68)" style="fill:#E7D42F"></rect><polygon points="257.95 382.88 307.09 317.92 337.07 358.9 357.69 337.19 397.59 383.66 257.95 382.88" style="fill:#E7D42F"></polygon><path d="M350.17,310.16a11,11,0,1,1-10.93-11.05A11,11,0,0,1,350.17,310.16Z" style="fill:#E7D42F"></path><g style="opacity:0.30000000000000004"><polygon points="257.95 382.88 307.09 317.92 337.07 358.9 357.69 337.19 397.59 383.66 257.95 382.88"></polygon></g><g style="opacity:0.30000000000000004"><path d="M350.17,310.16a11,11,0,1,1-10.93-11.05A11,11,0,0,1,350.17,310.16Z"></path></g><path d="M292.24,208.09v4.24h-.81l-2.11-2.57v2.57h-1v-4.24h.81l2.11,2.57v-2.57Z" style="fill:#263238"></path><path d="M293.06,208.09a.54.54,0,0,1,.59-.53.53.53,0,0,1,.59.51.59.59,0,0,1-1.18,0Zm.12,1h.94v3.26h-.94Z" style="fill:#263238"></path><path d="M294.76,210.7a1.68,1.68,0,0,1,1.81-1.68,1.49,1.49,0,0,1,1.46.83l-.73.4a.82.82,0,0,0-.73-.45.9.9,0,0,0,0,1.8.81.81,0,0,0,.73-.44l.73.4a1.5,1.5,0,0,1-1.46.82A1.68,1.68,0,0,1,294.76,210.7Z" style="fill:#263238"></path><path d="M300,211.05l-.45.45v.83h-.95v-4.49h.95v2.54l1.38-1.31H302l-1.36,1.38,1.48,1.88H301Z" style="fill:#263238"></path><path d="M305.86,210.46v1.87h-.95v-1.72c0-.53-.24-.77-.66-.77s-.78.28-.78.88v1.61h-.94v-3.26h.9v.38a1.41,1.41,0,0,1,1.08-.43A1.28,1.28,0,0,1,305.86,210.46Z" style="fill:#263238"></path><path d="M309.59,210.47v1.86h-.88v-.41a1.08,1.08,0,0,1-1,.46c-.76,0-1.21-.43-1.21-1s.4-1,1.4-1h.75c0-.41-.25-.65-.75-.65a1.54,1.54,0,0,0-.94.31l-.34-.66a2.46,2.46,0,0,1,1.4-.4C309,209,309.59,209.48,309.59,210.47Zm-.94.83V211H308c-.44,0-.58.16-.58.38s.2.39.53.39A.69.69,0,0,0,308.65,211.3Z" style="fill:#263238"></path><path d="M316,210.46v1.87H315v-1.72c0-.53-.24-.77-.62-.77s-.72.27-.72.85v1.64h-.95v-1.72c0-.53-.22-.77-.61-.77s-.72.27-.72.85v1.64h-.94v-3.26h.9v.38a1.31,1.31,0,0,1,1-.43,1.21,1.21,0,0,1,1.07.54,1.46,1.46,0,0,1,1.18-.54A1.26,1.26,0,0,1,316,210.46Z" style="fill:#263238"></path><path d="M320,211h-2.47a.88.88,0,0,0,.94.65,1.09,1.09,0,0,0,.81-.31l.51.54a1.71,1.71,0,0,1-1.35.53,1.69,1.69,0,0,1-1.86-1.68,1.67,1.67,0,0,1,1.74-1.68,1.61,1.61,0,0,1,1.7,1.69C320,210.79,320,210.89,320,211Zm-2.48-.55h1.61a.82.82,0,0,0-1.61,0Z" style="fill:#263238"></path><path d="M266.4,232.57v5.11H266l-3.29-4.15v4.15h-.54v-5.11h.45l3.29,4.14v-4.14Z" style="fill:#263238"></path><path d="M271.29,235.92h-3.2a1.41,1.41,0,0,0,1.51,1.33,1.49,1.49,0,0,0,1.17-.5l.29.34a2,2,0,0,1-3.49-1.33,1.87,1.87,0,1,1,3.73,0S271.29,235.86,271.29,235.92Zm-3.2-.39h2.72a1.34,1.34,0,0,0-1.37-1.27A1.32,1.32,0,0,0,268.09,235.53Z" style="fill:#263238"></path><path d="M277.92,233.84l-1.45,3.84H276l-1.21-3.15-1.21,3.15h-.49l-1.45-3.84h.5l1.2,3.26,1.24-3.26H275l1.23,3.26,1.21-3.26Z" style="fill:#263238"></path><path d="M284.72,234.32c0,1.09-.79,1.74-2.09,1.74h-1.37v1.62h-.54v-5.11h1.91C283.93,232.57,284.72,233.23,284.72,234.32Zm-.54,0c0-.82-.54-1.28-1.57-1.28h-1.35v2.55h1.35C283.64,235.59,284.18,235.12,284.18,234.32Z" style="fill:#263238"></path><path d="M285.37,235.76a1.95,1.95,0,1,1,1.95,2A1.89,1.89,0,0,1,285.37,235.76Zm3.37,0a1.43,1.43,0,1,0-1.42,1.49A1.4,1.4,0,0,0,288.74,235.76Z" style="fill:#263238"></path><path d="M289.79,237.24l.24-.41a2.29,2.29,0,0,0,1.36.43c.73,0,1-.25,1-.63,0-1-2.49-.21-2.49-1.72,0-.63.54-1.1,1.52-1.1a2.64,2.64,0,0,1,1.36.36l-.23.41a2,2,0,0,0-1.13-.32c-.69,0-1,.27-1,.63,0,1,2.49.26,2.49,1.73,0,.66-.59,1.09-1.59,1.09A2.58,2.58,0,0,1,289.79,237.24Z" style="fill:#263238"></path><path d="M295.91,237.44a1.19,1.19,0,0,1-.81.27A1,1,0,0,1,294,236.6v-2.32h-.69v-.44H294V233h.52v.84h1.16v.44H294.5v2.29a.61.61,0,0,0,.66.7.88.88,0,0,0,.57-.2Z" style="fill:#263238"></path><path d="M296.69,237.33a.37.37,0,0,1,.39-.37.37.37,0,0,1,.38.37.37.37,0,0,1-.38.38A.38.38,0,0,1,296.69,237.33Zm.08-4.76h.62l-.11,3.57h-.4Z" style="fill:#263238"></path><path d="M298.59,237.33a.39.39,0,0,1,.77,0,.39.39,0,0,1-.77,0Zm.08-4.76h.61l-.11,3.57h-.4Z" style="fill:#263238"></path><path d="M405,394.2c0,.14-34.44.26-76.91.26s-76.92-.12-76.92-.26,34.43-.26,76.92-.26S405,394.06,405,394.2Z" style="fill:#e0e0e0"></path><path d="M278.47,409.23a2.9,2.9,0,0,1,.2.4c.16.33.33.7.52,1.13a0,0,0,0,1,0,.06h0l-1.54-.65h.07a3.85,3.85,0,0,1-4.1.36,4,4,0,0,1-1.78-1.89,3.88,3.88,0,1,1,7.14-3.05,3.79,3.79,0,0,1,.05,2.76,2.85,2.85,0,0,1-.5.89,5.41,5.41,0,0,0,.42-.92,3.8,3.8,0,0,0-.11-2.68,3.7,3.7,0,1,0-1.2,4.42.08.08,0,0,1,.07,0c.55.26,1.06.49,1.52.69l-.07.07-.48-1.17A2.17,2.17,0,0,1,278.47,409.23Z" style="fill:#263238"></path><path d="M264,403.36a2.48,2.48,0,0,0-1.79.77,2.5,2.5,0,0,0-4.3,1.73c0,2.23,4.3,4.92,4.3,4.92s4.29-2.69,4.29-4.92A2.49,2.49,0,0,0,264,403.36Z" style="fill:#E7D42F"></path><path d="M398.42,411.56s0-.24,0-.67,0-1.12,0-1.85c0-1.68,0-3.88-.05-6.46l.09.09h-7l.1-.1v.8c0,3,0,5.75,0,8.18l-.14-.07,3.52-2.48a.06.06,0,0,1,.08,0l3.47,2.55a1,1,0,0,1-.23-.15l-.69-.47-2.63-1.82H395l-3.5,2.52a.08.08,0,0,1-.12,0,.07.07,0,0,1,0-.06c0-2.43,0-5.22,0-8.18v-.8a.1.1,0,0,1,.1-.11h7a.09.09,0,0,1,.09.1h0c0,2.61,0,4.84-.05,6.54,0,.71,0,1.31,0,1.82S398.42,411.56,398.42,411.56Z" style="fill:#263238"></path><path d="M235.59,214.71c0,.14-15.32.26-34.2.26s-34.2-.12-34.2-.26,15.31-.27,34.2-.27S235.59,214.56,235.59,214.71Z" style="fill:#e0e0e0"></path><path d="M235.59,224.12c0,.14-15.32.26-34.2.26s-34.2-.12-34.2-.26,15.31-.26,34.2-.26S235.59,224,235.59,224.12Z" style="fill:#e0e0e0"></path><path d="M235.59,233.53c0,.14-15.32.26-34.2.26s-34.2-.12-34.2-.26,15.31-.26,34.2-.26S235.59,233.39,235.59,233.53Z" style="fill:#e0e0e0"></path><path d="M235.59,242.94c0,.15-15.32.26-34.2.26s-34.2-.11-34.2-.26,15.31-.26,34.2-.26S235.59,242.8,235.59,242.94Z" style="fill:#e0e0e0"></path><path d="M202.93,252.36a8,8,0,0,1-1.41.1l-3.83.08c-3.23.05-7.7.08-12.63.08s-9.41,0-12.64-.08l-3.83-.08a7.9,7.9,0,0,1-1.4-.1,6.32,6.32,0,0,1,1.4-.11l3.83-.08c3.23,0,7.7-.08,12.64-.08s9.4,0,12.63.08l3.83.08A6.37,6.37,0,0,1,202.93,252.36Z" style="fill:#e0e0e0"></path><path d="M235.59,388.91c0,.15-15.32.26-34.2.26s-34.2-.11-34.2-.26,15.31-.26,34.2-.26S235.59,388.77,235.59,388.91Z" style="fill:#e0e0e0"></path><path d="M235.59,398.33c0,.14-15.32.26-34.2.26s-34.2-.12-34.2-.26,15.31-.27,34.2-.27S235.59,398.18,235.59,398.33Z" style="fill:#e0e0e0"></path><path d="M350.12,161.73l.38-.1,1.11-.23c.5-.09,1.1-.23,1.81-.41s1.52-.38,2.43-.67a49.33,49.33,0,0,0,14.35-7,47.84,47.84,0,0,0,15.33-17.87,50.28,50.28,0,0,0,4.88-28.29l.29.22-.21,0a44.91,44.91,0,0,0-33.58,22.51A56.06,56.06,0,0,0,352.39,140a50.16,50.16,0,0,0-2.66,15.81,24.39,24.39,0,0,0,.08,2.53,16.38,16.38,0,0,0,.16,1.85c0,.48.09.85.13,1.13a2.29,2.29,0,0,1,0,.39,3.1,3.1,0,0,1-.08-.38c0-.28-.1-.65-.18-1.13a16.86,16.86,0,0,1-.21-1.85c-.07-.73-.13-1.58-.13-2.53A49.53,49.53,0,0,1,352,139.9a55.52,55.52,0,0,1,4.5-10.23,44.72,44.72,0,0,1,7.78-10.2,45.59,45.59,0,0,1,26.11-12.62l.21,0,.26,0,0,.26a50.49,50.49,0,0,1-5,28.57,48,48,0,0,1-7.19,10.59,49.92,49.92,0,0,1-8.35,7.38,48.22,48.22,0,0,1-14.52,6.92A35.77,35.77,0,0,1,350.12,161.73Z" style="fill:#fafafa"></path><path d="M379.21,123s-.07.15-.26.42l-.85,1.13-3.18,4.09c-2.7,3.44-6.47,8.18-10.65,13.39s-7.91,10-10.42,13.54c-1.27,1.78-2.26,3.25-2.93,4.27a14,14,0,0,1-1.09,1.57,1.91,1.91,0,0,1,.22-.45c.15-.28.38-.7.7-1.23.62-1.05,1.56-2.55,2.79-4.37,2.45-3.64,6.13-8.46,10.32-13.66s8-9.91,10.77-13.29l3.31-4,.93-1.07A2,2,0,0,1,379.21,123Z" style="fill:#fafafa"></path><path d="M336.64,148.09a1.47,1.47,0,0,1,0-.24c0-.18.06-.4.11-.67.11-.6.24-1.48.35-2.62a31,31,0,0,0-.62-9.63,29.07,29.07,0,0,0-6.31-12.71,29.66,29.66,0,0,0-14.57-9.29l.32-.18,0,.12a28,28,0,0,0,.91,17.26,31.62,31.62,0,0,0,16.44,16.79c.53.23,1,.4,1.43.54a10.75,10.75,0,0,0,1.06.35l.66.2c.15,0,.23.07.22.08a16.41,16.41,0,0,1-3.44-1,28.73,28.73,0,0,1-8.32-5.11,30.14,30.14,0,0,1-8.5-11.68,28.28,28.28,0,0,1-1-17.58l0-.12.06-.25.26.07a29.84,29.84,0,0,1,14.79,9.48,29.19,29.19,0,0,1,6.31,12.94,29.6,29.6,0,0,1,.46,9.73,22,22,0,0,1-.45,2.62c-.06.27-.12.49-.16.67A.61.61,0,0,1,336.64,148.09Z" style="fill:#fafafa"></path><path d="M321.89,122.8a4.56,4.56,0,0,1,.64,1c.42.74.94,1.65,1.56,2.72,1.3,2.31,3.07,5.51,5,9.06s3.69,6.75,5.08,9c.69,1.13,1.27,2,1.66,2.65a4.82,4.82,0,0,1,.59,1,4.64,4.64,0,0,1-.75-.87c-.45-.59-1.08-1.47-1.81-2.57-1.48-2.21-3.31-5.39-5.23-9s-3.63-6.78-4.85-9.14c-.56-1.1-1-2-1.42-2.79A5.06,5.06,0,0,1,321.89,122.8Z" style="fill:#fafafa"></path><path d="M347.08,124.09s.52-.48,1.39-1.42a17,17,0,0,0,3-4.47,16.35,16.35,0,0,0,1.5-7.74,16.84,16.84,0,0,0-3.21-9l.36.06,0,0a15.41,15.41,0,0,0-5.46,7.88,17,17,0,0,0-.3,7.9,17.38,17.38,0,0,0,1.76,5.09c.62,1.12,1.08,1.67,1,1.7a2.1,2.1,0,0,1-.36-.38,8.87,8.87,0,0,1-.85-1.22,16,16,0,0,1-1.95-5.12,17,17,0,0,1,.2-8.11,15.79,15.79,0,0,1,5.6-8.16l.06,0,.21-.16.15.21a17.06,17.06,0,0,1,3.28,9.33,16.52,16.52,0,0,1-4.8,12.37,12,12,0,0,1-1.11,1C347.24,124,347.09,124.11,347.08,124.09Z" style="fill:#fafafa"></path><path d="M349.21,107.86a10.8,10.8,0,0,1-.21,2.4c-.19,1.46-.49,3.49-.86,5.71s-.68,4.24-.86,5.71a15.37,15.37,0,0,1-.34,2.37,9.07,9.07,0,0,1,0-2.41c.09-1.48.35-3.52.72-5.75s.73-4.24,1-5.69A11.39,11.39,0,0,1,349.21,107.86Z" style="fill:#fafafa"></path><path d="M372.5,162.72s.57.42,1.65,1.09a17.13,17.13,0,0,0,4.92,2.05,15.82,15.82,0,0,0,7.82-.08,16.39,16.39,0,0,0,8.09-5l0,.37-.05,0a15.14,15.14,0,0,0-8.71-3.81,16.54,16.54,0,0,0-7.74,1.3,17.12,17.12,0,0,0-4.57,2.78c-1,.83-1.39,1.4-1.43,1.36s.09-.15.29-.42a10.31,10.31,0,0,1,1-1.09,16.19,16.19,0,0,1,4.56-3,16.64,16.64,0,0,1,7.93-1.44,15.47,15.47,0,0,1,9,3.91l.05,0,.2.17-.18.2a16.66,16.66,0,0,1-8.36,5.13A16.18,16.18,0,0,1,374,164a10.49,10.49,0,0,1-1.17-.9C372.61,162.86,372.49,162.74,372.5,162.72Z" style="fill:#fafafa"></path><path d="M388.65,161.56a11.27,11.27,0,0,1-2.36.28c-1.46.1-3.48.21-5.72.3s-4.24.17-5.69.29a13.74,13.74,0,0,1-2.37.15,8.46,8.46,0,0,1,2.33-.51,53.94,53.94,0,0,1,5.71-.45c2.24-.09,4.26-.14,5.72-.15A11.09,11.09,0,0,1,388.65,161.56Z" style="fill:#fafafa"></path><path d="M348.82,84.92a13.4,13.4,0,0,0-2.38-.29,12.73,12.73,0,0,0-6.51,2,23.35,23.35,0,0,0-4,3c-1.33,1.25-2.66,2.73-4.1,4.3a41,41,0,0,1-4.95,4.75A17.29,17.29,0,0,1,320,102a23.71,23.71,0,0,1-8.46.13,52.92,52.92,0,0,1-8.89-2.25c-3-1-6.05-2.2-9.27-3.14a38.07,38.07,0,0,0-10.14-1.77A17.45,17.45,0,0,0,273,97.79c-3.09,2-5.38,5.14-7.48,8.34s-4,6.71-6.34,10c-.56.83-1.24,1.58-1.88,2.37-.33.39-.71.73-1.06,1.1a10.17,10.17,0,0,1-1.13,1l-1.2,1c-.43.29-.89.54-1.33.81l-.66.4-.73.3-1.45.58c-4,1.27-8.33.54-12.06-.89A54.53,54.53,0,0,1,227.38,117a55.34,55.34,0,0,0-9.85-5.59,39.59,39.59,0,0,0-10.47-2.69,47.51,47.51,0,0,0-19.85,2,52.9,52.9,0,0,0-8.41,3.47,61.07,61.07,0,0,0-7.15,4.41,70.07,70.07,0,0,0-10.78,9.63,85,85,0,0,0-6.88,8.5c-1.76,2.44-3,4.41-3.84,5.75-.41.66-.72,1.17-1,1.53s-.33.52-.33.52.09-.19.29-.54l.9-1.56c.81-1.36,2-3.36,3.76-5.82a85.88,85.88,0,0,1,6.83-8.58,69.9,69.9,0,0,1,10.78-9.73,64,64,0,0,1,7.18-4.47,53.71,53.71,0,0,1,8.47-3.52,47.83,47.83,0,0,1,20-2.06,40.51,40.51,0,0,1,10.61,2.71,55.72,55.72,0,0,1,9.94,5.62,53.82,53.82,0,0,0,10.22,5.75c3.66,1.41,7.84,2.11,11.72.88a18.82,18.82,0,0,0,9.18-7.37c2.34-3.21,4.2-6.69,6.32-9.94s4.45-6.39,7.64-8.47a17.83,17.83,0,0,1,10.48-2.94,38.3,38.3,0,0,1,10.26,1.81c3.24,1,6.29,2.17,9.28,3.17a52.62,52.62,0,0,0,8.81,2.26,23.47,23.47,0,0,0,8.33-.09,17,17,0,0,0,6.82-3.18,41.27,41.27,0,0,0,4.94-4.69c1.45-1.56,2.79-3,4.14-4.28a23.7,23.7,0,0,1,4-3,12.55,12.55,0,0,1,6.61-1.91,6.2,6.2,0,0,1,1,.08,5.07,5.07,0,0,1,.75.14C348.62,84.85,348.82,84.92,348.82,84.92Z" style="fill:#fafafa"></path><path d="M243.23,103.71s.07,0,.22-.08a3.22,3.22,0,0,1,.66-.07,4.25,4.25,0,0,1,2.31.77,4.42,4.42,0,0,1,1.94,3,3.62,3.62,0,0,1-.41,2.16,4.37,4.37,0,0,1-1.68,1.65,3.58,3.58,0,0,1-4.31-.35,3.83,3.83,0,0,1-.89-3.49,3.4,3.4,0,0,1,1.3-2.06,2.16,2.16,0,0,1,.6-.28c.15,0,.22-.06.23,0s-.29.14-.71.49a3.25,3.25,0,0,0-1.06,2,3.54,3.54,0,0,0,.86,3.08,3.15,3.15,0,0,0,3.73.24,4,4,0,0,0,1.48-1.45,3.09,3.09,0,0,0,.38-1.86,4.11,4.11,0,0,0-1.67-2.79,4.35,4.35,0,0,0-2.11-.86C243.55,103.7,243.24,103.76,243.23,103.71Z" style="fill:#fafafa"></path><rect x="166.9" y="267.94" width="71.35" height="69.03" style="fill:#f5f5f5"></rect><polygon points="172.43 331.06 192.17 295.54 208.31 318.24 218.12 306.18 232.72 331.06 172.43 331.06" style="fill:#e0e0e0"></polygon><path d="M215.19,288.63a5.14,5.14,0,1,1-5.14-5.14A5.14,5.14,0,0,1,215.19,288.63Z" style="fill:#e0e0e0"></path><path d="M232.71,331.25s0-.1,0-.28,0-.47,0-.81c0-.73,0-1.77,0-3.1,0-2.74-.05-6.7-.08-11.73,0-10.08-.09-24.44-.15-41.68l.29.3-60.27,0c-.09.08.63-.64.33-.33v15.5c0,5.07,0,10,0,14.87,0,9.67,0,18.81,0,27.22l-.3-.3,43.59.15,12.29.08,3.26,0h.85l.29,0-.26,0h-.81l-3.21,0-12.22.08-43.78.15h-.3v-.3c0-8.41,0-17.55,0-27.22,0-4.83,0-9.8,0-14.87v-15.5l.35-.35,60.27.05h.3v.29c-.07,17.32-.12,31.74-.15,41.87,0,5-.06,8.93-.08,11.66,0,1.31,0,2.32,0,3.05,0,.32,0,.57,0,.77A.67.67,0,0,1,232.71,331.25Z" style="fill:#e0e0e0"></path><rect x="167.4" y="342.14" width="33.34" height="32.26" style="fill:#f5f5f5"></rect><polygon points="169.98 371.63 179.2 355.03 186.75 365.64 191.33 360.01 198.15 371.63 169.98 371.63" style="fill:#e0e0e0"></polygon><path d="M190,351.8a2.4,2.4,0,1,1-2.4-2.39A2.39,2.39,0,0,1,190,351.8Z" style="fill:#e0e0e0"></path><path d="M198.15,371.72v-.13c0-.1,0-.22,0-.37,0-.35,0-.83,0-1.46,0-1.28,0-3.13,0-5.48,0-4.71,0-11.42-.07-19.47l.13.13L170,345s.3-.3.16-.16h0v7.22c0,2.37,0,4.7,0,6.95,0,4.52,0,8.79,0,12.72l-.14-.13,20.37.07,5.75,0,1.52,0h.53s0,0-.12,0h-.38l-1.5,0-5.71,0-20.46.07h-.14v-.14c0-3.93,0-8.2,0-12.72,0-2.25,0-4.58,0-6.95v-7.22h0l.16-.16,28.17,0h.14v.14c0,8.09,0,14.83-.07,19.56,0,2.34,0,4.18,0,5.45,0,.61,0,1.09,0,1.43,0,.15,0,.26,0,.36S198.16,371.73,198.15,371.72Z" style="fill:#e0e0e0"></path><rect x="204.75" y="342.47" width="33" height="31.93" style="fill:#f5f5f5"></rect><polygon points="207.31 371.66 216.44 355.23 223.91 365.73 228.44 360.16 235.19 371.66 207.31 371.66" style="fill:#e0e0e0"></polygon><path d="M227.09,352a2.38,2.38,0,1,1-2.38-2.38A2.38,2.38,0,0,1,227.09,352Z" style="fill:#e0e0e0"></path><path d="M235.19,371.75a1.16,1.16,0,0,0,0-.13v-.37c0-.34,0-.82,0-1.44,0-1.26,0-3.1,0-5.42,0-4.66,0-11.3-.07-19.28l.13.14-27.88,0s.3-.3.16-.15h0v7.16c0,2.35,0,4.65,0,6.88,0,4.47,0,8.7,0,12.59l-.14-.14,20.16.07,5.69,0,1.5,0h-1.45l-5.65,0-20.25.07h-.14v-.14c0-3.89,0-8.12,0-12.59,0-2.23,0-4.53,0-6.88v-7.16h0c-.14.13.19-.2.16-.17l27.88,0h.14v.13c0,8-.06,14.68-.07,19.37,0,2.31,0,4.13,0,5.39,0,.6,0,1.07,0,1.41,0,.15,0,.26,0,.36A.5.5,0,0,1,235.19,371.75Z" style="fill:#e0e0e0"></path><path d="M259,152.08V161h-1.69l-4.45-5.41V161h-2v-8.91h1.71l4.43,5.41v-5.41Z" style="fill:#fff"></path><path d="M260.68,152.08a1.14,1.14,0,0,1,1.24-1.11,1.11,1.11,0,0,1,1.23,1.07,1.24,1.24,0,0,1-2.47,0Zm.24,2.06h2V161h-2Z" style="fill:#fff"></path><path d="M264.25,157.57a3.54,3.54,0,0,1,3.82-3.53,3.14,3.14,0,0,1,3.07,1.74l-1.54.83a1.71,1.71,0,0,0-1.54-.94,1.9,1.9,0,0,0,0,3.8,1.7,1.7,0,0,0,1.54-.95l1.54.84a3.17,3.17,0,0,1-3.07,1.74A3.54,3.54,0,0,1,264.25,157.57Z" style="fill:#fff"></path><path d="M275.18,158.31l-.95.94V161h-2v-9.45h2v5.35l2.9-2.75h2.37l-2.85,2.9,3.11,4h-2.41Z" style="fill:#fff"></path><path d="M287.61,157.07V161h-2v-3.61c0-1.11-.51-1.62-1.39-1.62s-1.64.58-1.64,1.84V161h-2v-6.85h1.9v.8a3,3,0,0,1,2.26-.9A2.69,2.69,0,0,1,287.61,157.07Z" style="fill:#fff"></path><path d="M295.47,157.08V161h-1.86v-.85a2.27,2.27,0,0,1-2.09,1c-1.61,0-2.56-.9-2.56-2.08s.85-2.05,2.94-2.05h1.58c0-.86-.51-1.35-1.58-1.35a3.34,3.34,0,0,0-2,.63l-.71-1.38a5.23,5.23,0,0,1,3-.83C294.26,154,295.47,155,295.47,157.08Zm-2,1.75v-.7h-1.36c-.93,0-1.23.34-1.23.8s.42.83,1.12.83A1.47,1.47,0,0,0,293.48,158.83Z" style="fill:#fff"></path><path d="M308.85,157.07V161h-2v-3.61c0-1.11-.5-1.62-1.3-1.62s-1.52.57-1.52,1.79V161h-2v-3.61c0-1.11-.47-1.62-1.3-1.62s-1.5.57-1.5,1.79V161h-2v-6.85h1.9v.79a2.78,2.78,0,0,1,2.16-.89,2.55,2.55,0,0,1,2.25,1.12A3.09,3.09,0,0,1,306,154C307.67,154,308.85,155,308.85,157.07Z" style="fill:#fff"></path><path d="M317.38,158.13H312.2a1.82,1.82,0,0,0,2,1.37,2.3,2.3,0,0,0,1.72-.66l1.06,1.15a3.63,3.63,0,0,1-2.83,1.11c-2.37,0-3.91-1.49-3.91-3.53a3.49,3.49,0,0,1,3.65-3.53,3.39,3.39,0,0,1,3.57,3.55A5.29,5.29,0,0,1,317.38,158.13ZM312.17,157h3.38a1.71,1.71,0,0,0-3.38,0Z" style="fill:#fff"></path><circle cx="271.8" cy="208.73" r="11.96" transform="translate(6.47 425.62) rotate(-76.79)" style="fill:#ebebeb"></circle><path d="M271.43,220.24a3.51,3.51,0,0,1-3.83-3.14l-1.05-10.58a5.11,5.11,0,0,1,4.7-5.61h.08a5.33,5.33,0,0,1,5.4,4.82c.24,2.43.46,5.07.47,6.37a3.31,3.31,0,0,1-2.74,3.23s0,.46.1,1.09a3.5,3.5,0,0,1-3.13,3.82Z" style="fill:#ffbe9d"></path><path d="M274.46,215.33a6.68,6.68,0,0,1-3.61-1,3.47,3.47,0,0,0,3.67,1.67Z" style="fill:#eb996e"></path><path d="M275.64,207.58a.4.4,0,0,1-.37.41.38.38,0,0,1-.41-.35.4.4,0,0,1,.37-.41A.38.38,0,0,1,275.64,207.58Z" style="fill:#263238"></path><path d="M276.14,206.91c0,.05-.35-.17-.77-.16s-.73.23-.78.17,0-.11.16-.21a1.14,1.14,0,0,1,.62-.21,1,1,0,0,1,.62.19C276.12,206.79,276.17,206.88,276.14,206.91Z" style="fill:#263238"></path><path d="M271.6,207.77a.39.39,0,0,1-.38.4.37.37,0,0,1-.41-.34.4.4,0,0,1,.37-.41A.39.39,0,0,1,271.6,207.77Z" style="fill:#263238"></path><path d="M272,207.05c-.05.06-.35-.16-.77-.15s-.74.22-.78.17,0-.11.16-.22a1.11,1.11,0,0,1,.62-.2,1.06,1.06,0,0,1,.62.19C272,206.94,272,207,272,207.05Z" style="fill:#263238"></path><path d="M273.57,210.17a3.23,3.23,0,0,1,.69-.13c.1,0,.21,0,.22-.12s0-.19-.07-.31l-.34-.82a14,14,0,0,1-.75-2.15,14.7,14.7,0,0,1,.92,2.08l.32.82a.63.63,0,0,1,.07.43.28.28,0,0,1-.18.16l-.18,0A2.94,2.94,0,0,1,273.57,210.17Z" style="fill:#263238"></path><path d="M272.33,210.48c.07,0,.07.46.47.78s.89.26.9.32-.11.1-.32.11a1.12,1.12,0,0,1-.74-.25,1,1,0,0,1-.37-.65C272.25,210.6,272.3,210.48,272.33,210.48Z" style="fill:#263238"></path><path d="M272.06,205.39c0,.12-.46.07-1,.14s-.89.21-1,.11,0-.16.2-.28a1.63,1.63,0,0,1,.71-.26,1.56,1.56,0,0,1,.75.08C272,205.25,272.08,205.34,272.06,205.39Z" style="fill:#263238"></path><path d="M276,205.68c-.08.1-.37,0-.72,0s-.65.07-.72,0,0-.14.15-.24a1,1,0,0,1,.58-.17,1,1,0,0,1,.57.19C276,205.54,276,205.63,276,205.68Z" style="fill:#263238"></path><path d="M269.5,203.45h0a2.2,2.2,0,0,0-.78,1.42v.05c-.09.79-.06,1.59-.16,2.38s0,1.37-.77,1.62a1,1,0,0,1-1.11-.33.64.64,0,0,1-.11-.36c-.18-1.89-.63-2.59-.66-4.58a1.67,1.67,0,0,1,.67-1.37c.41-.31.92-.62,1.38-.41s1.08,1.06,1.44,1.42" style="fill:#263238"></path><path d="M267.5,207.75s-1.9-.52-1.81,1.36a1.42,1.42,0,0,0,2,1.35C267.66,210.41,267.5,207.75,267.5,207.75Z" style="fill:#ffbe9d"></path><path d="M267,209.77l-.08.06a.34.34,0,0,1-.25,0,.82.82,0,0,1-.41-.71,1.19,1.19,0,0,1,.07-.47.41.41,0,0,1,.24-.27.16.16,0,0,1,.19.09c0,.05,0,.08,0,.09s0,0,0-.11a.21.21,0,0,0-.08-.12.26.26,0,0,0-.18,0,.47.47,0,0,0-.33.31,1.14,1.14,0,0,0-.09.53.84.84,0,0,0,.52.79.35.35,0,0,0,.3-.06C267,209.82,267.05,209.78,267,209.77Z" style="fill:#eb996e"></path><path d="M267.87,202.17c-.47-.75.78-1.85,1.71-2.16a5.5,5.5,0,0,1,3.09.42,5.3,5.3,0,0,0,1.78.41,4,4,0,0,0,1.19-.33,3.17,3.17,0,0,1,1.21-.26,1.16,1.16,0,0,1,1,.62.71.71,0,0,1-.46,1,.93.93,0,1,1,.27,1.71c.27-.21.68.12.66.46a1,1,0,0,1-.64.72,3.5,3.5,0,0,1-2.51,0c-.82-.26-1.58-.67-2.39-.95s-2.18-.79-3-.49c-.59.22-1,.94-1.34.79a1.16,1.16,0,0,1-.61-.84,3.5,3.5,0,0,1,0-1.07" style="fill:#263238"></path><path d="M277.61,201.78s-.09.14-.29.37a2.6,2.6,0,0,1-1,.69,2.37,2.37,0,0,1-1.79-.05,8.24,8.24,0,0,1-1.85-1.37,3.85,3.85,0,0,0-2.13-1,2.17,2.17,0,0,0-1.8.65,1.69,1.69,0,0,0-.41,1.23,1.34,1.34,0,0,0,.09.34l.06.11a4,4,0,0,1-.07-.46,1.6,1.6,0,0,1,.43-1.13,2.08,2.08,0,0,1,1.68-.57,3.8,3.8,0,0,1,2,.95,8.39,8.39,0,0,0,1.9,1.39,2.47,2.47,0,0,0,1.91,0,2.57,2.57,0,0,0,1.05-.77,2.72,2.72,0,0,0,.19-.29C277.6,201.82,277.62,201.78,277.61,201.78Z" style="fill:#455a64"></path><path d="M267,207.68s.08-.05.15-.2a1.28,1.28,0,0,0,.08-.69c-.05-.61-.6-1.25-.68-2.09a1.91,1.91,0,0,1,.19-1.13,1.47,1.47,0,0,1,.69-.61,1.2,1.2,0,0,1,.63-.1c.15,0,.23.06.24,0s-.07-.06-.23-.11a1.14,1.14,0,0,0-.69.05,1.49,1.49,0,0,0-.79.65,2,2,0,0,0-.22,1.23,3.33,3.33,0,0,0,.38,1.19,3.13,3.13,0,0,1,.35.9A1.48,1.48,0,0,1,267,207.68Z" style="fill:#455a64"></path><path d="M265,218.54l2.61-1.77a8.41,8.41,0,0,0,7-.35L279,218.3a12,12,0,0,1-14,.24Z" style="fill:#455a64"></path><circle cx="204.21" cy="155.33" r="33.75" style="fill:#ebebeb"></circle><path d="M203.17,187.8A9.86,9.86,0,0,1,192.38,179l-3-29.85a14.41,14.41,0,0,1,13.25-15.84h.22a15.07,15.07,0,0,1,15.26,13.61c.66,6.86,1.29,14.3,1.3,18,0,7.78-7.73,9.12-7.73,9.12s.13,1.29.3,3.06a9.87,9.87,0,0,1-8.84,10.77Z" style="fill:#ffbe9d"></path><path d="M211.71,174a18.77,18.77,0,0,1-10.18-2.83s2.62,5.54,10.37,4.71Z" style="fill:#eb996e"></path><path d="M215.06,152.1a1.11,1.11,0,0,1-1.05,1.14,1.07,1.07,0,0,1-1.16-1,1.11,1.11,0,0,1,1.05-1.14A1.06,1.06,0,0,1,215.06,152.1Z" style="fill:#263238"></path><path d="M216.48,150.19c-.14.15-1-.46-2.19-.44s-2.06.63-2.19.49.07-.33.45-.61a3.08,3.08,0,0,1,1.75-.57,2.86,2.86,0,0,1,1.74.53C216.41,149.86,216.54,150.12,216.48,150.19Z" style="fill:#263238"></path><path d="M203.64,152.63a1.11,1.11,0,0,1-1,1.14,1.07,1.07,0,0,1-1.16-1,1.11,1.11,0,0,1,1-1.14A1.05,1.05,0,0,1,203.64,152.63Z" style="fill:#263238"></path><path d="M204.73,150.61c-.14.14-1-.47-2.19-.44s-2.06.63-2.19.49.07-.33.45-.61a3,3,0,0,1,1.75-.58,2.92,2.92,0,0,1,1.74.53C204.66,150.28,204.79,150.54,204.73,150.61Z" style="fill:#263238"></path><path d="M209.21,159.4a7.7,7.7,0,0,1,1.94-.38c.3,0,.59-.1.64-.31a1.57,1.57,0,0,0-.22-.9c-.3-.74-.61-1.51-.94-2.31a40.35,40.35,0,0,1-2.13-6.05,40.57,40.57,0,0,1,2.61,5.86c.32.81.62,1.59.9,2.33a1.74,1.74,0,0,1,.18,1.19.79.79,0,0,1-.49.46,2.2,2.2,0,0,1-.52.08A7.8,7.8,0,0,1,209.21,159.4Z" style="fill:#263238"></path><path d="M205.71,160.29c.19,0,.21,1.28,1.34,2.18s2.51.74,2.52.92-.31.26-.89.28a3.24,3.24,0,0,1-2.1-.69,2.77,2.77,0,0,1-1-1.83C205.48,160.6,205.62,160.28,205.71,160.29Z" style="fill:#263238"></path><path d="M205,145.91c-.12.33-1.31.2-2.71.39s-2.53.59-2.72.3c-.09-.13.11-.44.56-.77a4.71,4.71,0,0,1,4.13-.52C204.74,145.51,205,145.76,205,145.91Z" style="fill:#263238"></path><path d="M216,146.74c-.21.27-1,0-2,0s-1.82.22-2-.06,0-.41.4-.68a2.95,2.95,0,0,1,3.27.05C216,146.32,216.07,146.6,216,146.74Z" style="fill:#263238"></path><path d="M197.72,140.44l0,0a6.09,6.09,0,0,0-2.21,4l0,.15c-.27,2.23-.18,4.48-.47,6.71s0,3.87-2.15,4.57a2.91,2.91,0,0,1-3.16-.93,1.92,1.92,0,0,1-.29-1c-.5-5.35-1.78-7.32-1.87-12.93a4.74,4.74,0,0,1,1.9-3.87c1.16-.86,2.58-1.76,3.89-1.16s3,3,4.07,4" style="fill:#263238"></path><path d="M192.09,152.59c-.13-.06-5.37-1.5-5.11,3.82s5.54,4,5.54,3.81S192.09,152.59,192.09,152.59Z" style="fill:#ffbe9d"></path><path d="M190.8,158.28s-.09.07-.24.15a.91.91,0,0,1-.69,0,2.28,2.28,0,0,1-1.16-2,3.08,3.08,0,0,1,.19-1.34,1.06,1.06,0,0,1,.66-.74.47.47,0,0,1,.56.23c.08.14,0,.25.08.26s.11-.1.06-.31a.63.63,0,0,0-.23-.33.74.74,0,0,0-.52-.11,1.29,1.29,0,0,0-.92.87,3,3,0,0,0-.25,1.5,2.39,2.39,0,0,0,1.46,2.23,1,1,0,0,0,.84-.18C190.8,158.41,190.82,158.29,190.8,158.28Z" style="fill:#eb996e"></path><path d="M193.14,136.82c-1.35-2.1,2.19-5.22,4.8-6.09s6.09.35,8.72,1.18c1.66.52,3.31,1.25,5.05,1.15a12.15,12.15,0,0,0,3.36-.91,8.5,8.5,0,0,1,3.39-.73,3.22,3.22,0,0,1,2.83,1.73,2,2,0,0,1-1.3,2.74,2.61,2.61,0,1,1,.77,4.83c.75-.59,1.93.34,1.85,1.28a2.78,2.78,0,0,1-1.79,2.05,10,10,0,0,1-7.1,0c-2.31-.74-4.46-1.91-6.75-2.7s-6.13-2.22-8.4-1.38c-1.67.62-2.81,2.67-3.77,2.24a3.27,3.27,0,0,1-1.72-2.37,9.35,9.35,0,0,1,.06-3" style="fill:#263238"></path><path d="M220.63,135.73s-.27.4-.83,1a7.31,7.31,0,0,1-2.93,2,6.72,6.72,0,0,1-5.07-.12c-1.83-.78-3.4-2.38-5.21-3.88a11,11,0,0,0-6-2.77,6.1,6.1,0,0,0-5.05,1.84,4.6,4.6,0,0,0-1.15,3.46,3.65,3.65,0,0,0,.24,1c.1.2.16.31.18.3a9,9,0,0,1-.22-1.29,4.61,4.61,0,0,1,1.22-3.2,5.84,5.84,0,0,1,4.75-1.61,10.75,10.75,0,0,1,5.73,2.7c1.77,1.46,3.4,3.1,5.35,3.91a7,7,0,0,0,5.4,0,7.1,7.1,0,0,0,2.94-2.17,4.29,4.29,0,0,0,.54-.84A.94.94,0,0,0,220.63,135.73Z" style="fill:#455a64"></path><path d="M190.73,152.38s.23-.15.43-.58a3.64,3.64,0,0,0,.23-1.93c-.15-1.72-1.69-3.53-1.92-5.89a5.31,5.31,0,0,1,.53-3.19,4,4,0,0,1,1.95-1.74,3.4,3.4,0,0,1,1.77-.27c.43.06.66.16.68.11s-.19-.18-.64-.31a3.26,3.26,0,0,0-1.94.12,4.28,4.28,0,0,0-2.24,1.85,5.71,5.71,0,0,0-.64,3.48,9.8,9.8,0,0,0,1.08,3.34,10.1,10.1,0,0,1,1,2.55A4,4,0,0,1,190.73,152.38Z" style="fill:#455a64"></path><path d="M184.92,183l7.36-5c7,2.39,13.64,2.35,19.73-1l12.44,5.31a31.31,31.31,0,0,1-20.24,6.74C191.68,188.88,184.92,183,184.92,183Z" style="fill:#455a64"></path><path d="M238,155.33s0-.19-.05-.55-.07-.91-.11-1.6c0-.35-.05-.75-.07-1.18s-.14-.9-.22-1.41a24,24,0,0,0-.7-3.48,32.2,32.2,0,0,0-3.75-8.94,33.69,33.69,0,0,0-22.66-15.78,29.55,29.55,0,0,0-4.25-.49c-.72,0-1.45-.1-2.18-.09l-2.22.12c-.37,0-.75,0-1.12.07l-1.12.17c-.74.13-1.5.21-2.25.37a35,35,0,0,0-4.47,1.31,35.8,35.8,0,0,0-4.37,1.92c-.71.39-1.39.83-2.09,1.25a18.12,18.12,0,0,0-2,1.39,39.82,39.82,0,0,0-3.8,3.23,37.26,37.26,0,0,0-3.28,3.89,32.14,32.14,0,0,0-4.79,9.23,33.16,33.16,0,0,0,0,21.14,32.27,32.27,0,0,0,4.79,9.23,38.2,38.2,0,0,0,3.28,3.88,37.11,37.11,0,0,0,3.8,3.23,18.21,18.21,0,0,0,2,1.4c.7.41,1.38.86,2.09,1.24a35.87,35.87,0,0,0,4.37,1.93,38.51,38.51,0,0,0,4.47,1.31c.75.15,1.51.24,2.25.36l1.12.18c.37.05.75,0,1.12.07l2.22.11c.73,0,1.46-.05,2.19-.08a31.08,31.08,0,0,0,4.24-.49,33.69,33.69,0,0,0,22.66-15.78,32.12,32.12,0,0,0,3.75-9,24,24,0,0,0,.7-3.48c.08-.5.17-1,.22-1.4l.07-1.18c0-.69.08-1.22.11-1.61s.05-.54.05-.54,0,.18,0,.55,0,.91-.06,1.6c0,.36,0,.75,0,1.19s-.13.9-.2,1.42a22.7,22.7,0,0,1-.66,3.5,32,32,0,0,1-3.69,9,33.46,33.46,0,0,1-27.13,16.57c-.73,0-1.47.1-2.21.09l-2.25-.11c-.38,0-.76,0-1.14-.07l-1.13-.18c-.76-.12-1.53-.21-2.29-.36a37.59,37.59,0,0,1-4.53-1.32,34.79,34.79,0,0,1-4.44-1.95c-.72-.38-1.41-.84-2.12-1.26a16.69,16.69,0,0,1-2.06-1.41,30.76,30.76,0,0,1-7.19-7.21,32.88,32.88,0,0,1-4.87-9.37,33.62,33.62,0,0,1,0-21.47,32.7,32.7,0,0,1,4.87-9.36A30.85,30.85,0,0,1,184,128a18.15,18.15,0,0,1,2-1.41c.71-.42,1.4-.87,2.12-1.26a37.27,37.27,0,0,1,9-3.26c.76-.16,1.53-.24,2.29-.37l1.13-.17c.38-.05.76,0,1.14-.07l2.25-.11c.74,0,1.48.06,2.21.09a31.63,31.63,0,0,1,4.29.51A33.89,33.89,0,0,1,233.31,138a31.83,31.83,0,0,1,3.69,9,23,23,0,0,1,.66,3.51c.07.51.16,1,.2,1.42s0,.83,0,1.18c0,.69,0,1.23.06,1.61S238,155.33,238,155.33Z" style="fill:#263238"></path></g><g id="freepik--Character--inject-272"><path d="M64.59,425.16l-13,19.46L45.84,463a2.41,2.41,0,0,1-3.16,1.51h0a2.38,2.38,0,0,1-1.45-1.65C40,458,35.77,440.35,36.8,439c1.19-1.59,12.3-21.43,12.3-21.43Z" style="fill:#E7D42F"></path><g style="opacity:0.6000000000000001"><path d="M42.68,464.48l-5-26.83-.53.84a3.63,3.63,0,0,0-.52,2.43c.32,2.27,1.34,8.51,4.58,21.87a2.4,2.4,0,0,0,1.51,1.69Z" style="fill:#fff"></path></g><g style="opacity:0.6000000000000001"><path d="M45.73,433.84a1.44,1.44,0,0,1-.68,1.81,1.39,1.39,0,0,1-1.8-.65,1.54,1.54,0,0,1,.73-1.92,1.45,1.45,0,0,1,1.8.89" style="fill:#fff"></path></g><path d="M43.62,453a7.16,7.16,0,0,1,2.71-.44,7.41,7.41,0,0,1,2.55,1s-.11-.35-.53-.7a3.66,3.66,0,0,0-2-.81,3.72,3.72,0,0,0-2.09.37C43.8,452.67,43.58,452.94,43.62,453Z" style="fill:#263238"></path><path d="M43.36,456.52a22.26,22.26,0,0,1,2.28.26c1.22.33,2,1.08,2.09,1s-.56-1.08-1.95-1.46A2.66,2.66,0,0,0,43.36,456.52Z" style="fill:#263238"></path><path d="M43.15,447.94a23,23,0,0,1,3.56.16,24.93,24.93,0,0,1,3.36,1.17,5.32,5.32,0,0,0-3.27-1.67A5.28,5.28,0,0,0,43.15,447.94Z" style="fill:#263238"></path><path d="M46.59,441.69c0,.16,1.36.39,2.81,1.24s2.37,1.9,2.49,1.8a4.73,4.73,0,0,0-2.23-2.25A4.7,4.7,0,0,0,46.59,441.69Z" style="fill:#263238"></path><path d="M50.25,435.88a12.05,12.05,0,0,1,3,1.21,11.57,11.57,0,0,1,2.2,2.32c.06,0,0-.41-.29-1a5.2,5.2,0,0,0-3.87-2.64C50.63,435.74,50.25,435.82,50.25,435.88Z" style="fill:#263238"></path><path d="M53.87,436a2.1,2.1,0,0,0,.5-.73A6.17,6.17,0,0,0,55,432.9a2.75,2.75,0,0,0-.29-1.72,1,1,0,0,0-1-.4,1.55,1.55,0,0,0-.87.69,3.38,3.38,0,0,0,.83,4.24A4,4,0,0,0,58,436a1.4,1.4,0,0,0,.66-.93,1,1,0,0,0-.57-.95,3.43,3.43,0,0,0-1.73-.15,7.09,7.09,0,0,0-2.32.68c-.51.26-.75.47-.73.5a10.32,10.32,0,0,1,3.08-.81,3.09,3.09,0,0,1,1.51.16.5.5,0,0,1,.31.52,1,1,0,0,1-.47.58,3.5,3.5,0,0,1-3.77-.33,2.91,2.91,0,0,1-.76-3.58,1.1,1.1,0,0,1,.59-.51.51.51,0,0,1,.57.21,2.48,2.48,0,0,1,.28,1.45A9.17,9.17,0,0,1,53.87,436Z" style="fill:#263238"></path><path d="M76.89,436.29l1.48,19.54S59,462.47,58.9,466.11l38-.09-1-30.53Z" style="fill:#E7D42F"></path><g style="opacity:0.6000000000000001"><path d="M90.05,453.72a1.54,1.54,0,0,1,1.14,1.72,1.49,1.49,0,0,1-1.7,1.15,1.64,1.64,0,0,1-1.2-1.83,1.55,1.55,0,0,1,1.9-1" style="fill:#fff"></path></g><g style="opacity:0.6000000000000001"><path d="M96.91,466l-.1-3.08L60.1,464.31a2.63,2.63,0,0,0-1.39,2.07Z" style="fill:#fff"></path></g><path d="M77.75,455.66c0,.19.94.23,1.88.79s1.45,1.32,1.62,1.24-.15-1.14-1.3-1.8S77.7,455.49,77.75,455.66Z" style="fill:#263238"></path><path d="M73.83,457.47c0,.18.78.46,1.44,1.22s.88,1.58,1.06,1.57.26-1.07-.58-2S73.83,457.29,73.83,457.47Z" style="fill:#263238"></path><path d="M71.76,462.32c.17,0,.39-.9-.13-1.9s-1.4-1.36-1.47-1.21.49.68.9,1.51S71.57,462.31,71.76,462.32Z" style="fill:#263238"></path><path d="M77.9,451.17c.09.17.93-.12,2-.09s1.88.32,2,.16-.72-.79-2-.81S77.81,451,77.9,451.17Z" style="fill:#263238"></path><g style="opacity:0.30000000000000004"><polygon points="77.19 440.16 77.45 443.64 96.11 442.73 96.01 439.59 77.19 440.16"></polygon></g><path d="M77.68,447.22a3.45,3.45,0,0,0,1.9-.08,8.81,8.81,0,0,0,2-.69,9.71,9.71,0,0,0,1.06-.62,2.33,2.33,0,0,0,.56-.47.81.81,0,0,0,0-1,1,1,0,0,0-.83-.4,2.73,2.73,0,0,0-.71.13,7.69,7.69,0,0,0-1.17.45,7,7,0,0,0-1.71,1.22c-.85.86-1.12,1.56-1,1.59s.49-.54,1.36-1.25a7.52,7.52,0,0,1,1.66-1,6.52,6.52,0,0,1,1.08-.38c.39-.12.74-.14.85,0s0,.09,0,.21a1.89,1.89,0,0,1-.41.35,9.31,9.31,0,0,1-1,.61,11.47,11.47,0,0,1-1.81.78A12.16,12.16,0,0,0,77.68,447.22Z" style="fill:#263238"></path><path d="M77.93,447.48c.07,0,.41-.65.43-1.86a6.15,6.15,0,0,0-.34-2.07,6.79,6.79,0,0,0-.53-1.13,1.59,1.59,0,0,0-1.26-.92.9.9,0,0,0-.77.57,3,3,0,0,0-.17.7,4.51,4.51,0,0,0,0,1.28,4.44,4.44,0,0,0,.89,1.93c.79,1,1.57,1.15,1.58,1.09s-.6-.43-1.21-1.35a4.37,4.37,0,0,1-.67-1.77,4,4,0,0,1,0-1.1c0-.4.18-.74.34-.7s.52.28.69.6a7.36,7.36,0,0,1,.51,1,7,7,0,0,1,.44,1.88C78,446.75,77.83,447.46,77.93,447.48Z" style="fill:#263238"></path><path d="M122.48,287c1.4,16.31,4.26,33.34,5.66,49.65.26,3,.5,6.05-.45,8.88-1.78,5.25-13.29,8.9-18.61,7.35" style="fill:#455a64"></path><path d="M63,275.45S54.21,297,54.21,299.93,72.61,442,72.61,442l25.69-2.16L87,312.07l4-27.35Z" style="fill:#263238"></path><path d="M121.8,284.38s-6,50.14-8.82,69.47c-3,20.22-8.74,24-8.74,24L57.8,437.32,39.61,420.93l40.93-65.49s10.91-72.67,10.53-70.72S121.8,284.38,121.8,284.38Z" style="fill:#263238"></path><path d="M87.64,314.47a1.47,1.47,0,0,1,0,.2c0,.16,0,.35-.08.59-.08.55-.2,1.31-.35,2.28-.33,2-.81,4.9-1.4,8.51-1.24,7.31-3,17.54-5,29.43v0l0,0-9.44,15.12L49,406.27,42.17,417l-1.87,2.91-.5.74c-.12.17-.18.26-.19.25a2.24,2.24,0,0,1,.14-.27l.46-.78,1.79-3,6.68-10.84,22.2-35.67c3.31-5.3,6.51-10.4,9.45-15.1l0,.08c2.09-11.87,3.9-22.09,5.18-29.39.66-3.6,1.18-6.48,1.55-8.49.18-1,.32-1.72.43-2.27.05-.23.09-.42.12-.58S87.63,314.47,87.64,314.47Z" style="fill:#455a64"></path><path d="M103.33,378.73a4.15,4.15,0,0,1-.43.62l-1.33,1.71-4.87,6.28L80.77,408.18c-6.2,8.16-11.86,15.51-16,20.76-2.09,2.63-3.81,4.73-5,6.18-.59.68-1,1.23-1.4,1.64a3.9,3.9,0,0,1-.52.56,3.87,3.87,0,0,1,.44-.62L59.56,435l4.88-6.28,15.92-20.84c6.2-8.15,11.86-15.51,16-20.76,2.08-2.63,3.8-4.73,5-6.17l1.39-1.65A4.77,4.77,0,0,1,103.33,378.73Z" style="fill:#455a64"></path><path d="M77.08,184.42s-9,5.39-11.67,10.18-17.07,39.83-16.47,45.52S63,249.4,63,249.4l14.08-18.27-8.38-5.69L77.08,215Z" style="fill:#E7D42F"></path><path d="M91.59,179.77l-14.51,4.65S70.5,247,67.2,256A87.56,87.56,0,0,0,63,275.45s1.87,17.5,22.23,19.89,36.56-9.68,36.56-9.68,12.19-30.87,15.78-57.22,1.11-41.39,1.11-41.39l-22.32-8Z" style="fill:#E7D42F"></path><path d="M134.58,188.91c-.63.65-9.59,6.59-12.58,16.77s-6.29,20.66-6.29,20.66L104,227.84l6.59,26.95s14.08-1.5,21.86-14.38,12.58-28.74,12.58-28.74S144.06,179,134.58,188.91Z" style="fill:#E7D42F"></path><path d="M63,249.4s32.63,6.52,44.47-7.52L104,230s-21.55,5.09-28.28,2.9Z" style="fill:#ffbe9d"></path><path d="M108,227.32s5-11.09,5.62-11.23,10.23-3.51,10.23-3.51a3.48,3.48,0,0,1,0,2.41l3.43.44s-.51,2.12-1.68,2.41l1.24,1.1a6.89,6.89,0,0,1-2.33,2,2.56,2.56,0,0,1-2.27,0s.44.79-1.53,2-5.34,3.07-5.34,3.07Z" style="fill:#ffbe9d"></path><path d="M108,227.36l0-.05c.2-.45,5-11.1,5.63-11.25s10.14-3.47,10.23-3.5h0v0a3.55,3.55,0,0,1,0,2.4l3.42.44v0c0,.08-.52,2.08-1.66,2.41l1.23,1.08,0,0a6.84,6.84,0,0,1-2.34,2,2.69,2.69,0,0,1-2.23,0c.06.22.11.95-1.57,2-2,1.23-5.3,3.05-5.33,3.07h0Zm15.87-14.75c-.52.19-9.57,3.36-10.2,3.5s-3.87,7.34-5.59,11.18l7.33-1.29c.12-.07,3.4-1.86,5.32-3.06s1.53-2,1.53-2l0-.08.08.05a2.58,2.58,0,0,0,2.24,0,6.81,6.81,0,0,0,2.31-2l-1.26-1.11h0c1.07-.27,1.59-2.12,1.65-2.37l-3.44-.44,0,0A3.41,3.41,0,0,0,123.87,212.61Z" style="fill:#eb996e"></path><path d="M123.59,215a43.23,43.23,0,0,1-6.27,2.44c-.87.32-1.74.56-2.43.88a3.32,3.32,0,0,0-1.43,1.36c-.57,1-.78,1.78-.87,1.75a4.46,4.46,0,0,1,.55-1.92,3.52,3.52,0,0,1,1.53-1.62,22.46,22.46,0,0,1,2.48-.94A44.84,44.84,0,0,1,123.59,215Z" style="fill:#eb996e"></path><path d="M125.82,217.85a5.1,5.1,0,0,1-1.73.63c-1.1.29-2.65.54-4.29,1a11.14,11.14,0,0,0-3.88,1.83c-.87.68-1.25,1.27-1.33,1.22a3.26,3.26,0,0,1,1.1-1.5,9.65,9.65,0,0,1,4-2c1.69-.45,3.24-.64,4.35-.84A9.19,9.19,0,0,1,125.82,217.85Z" style="fill:#eb996e"></path><path d="M117,222.9a5.55,5.55,0,0,1,5.06-1.81c0,.16-1.21.24-2.59.74S117.14,223,117,222.9Z" style="fill:#eb996e"></path><path d="M105,230.73,77.7,223.08,69.56,232s27.81,21.79,40.53,21.44" style="fill:#ffbe9d"></path><path d="M110.09,253.4a12.21,12.21,0,0,1-3.41-.24,39,39,0,0,1-8.82-3c-7.17-3.27-16.45-9-26.07-16.19l-2.39-1.81-.22-.17.19-.21,8.15-8.86.11-.11.14,0,19.63,5.59,5.63,1.64,1.5.46a2.22,2.22,0,0,1,.51.19,3.61,3.61,0,0,1-.53-.11l-1.52-.38-5.67-1.51-19.68-5.41.24-.07-8.13,8.88,0-.38,2.38,1.81c9.6,7.14,18.82,12.93,25.92,16.26a40.58,40.58,0,0,0,8.7,3.14,11.7,11.7,0,0,0,1.43.25,8.36,8.36,0,0,0,1.06.12A7.88,7.88,0,0,1,110.09,253.4Z" style="fill:#eb996e"></path><path d="M122.93,199.58a9.51,9.51,0,0,1-.4,2.17c-.31,1.33-.77,3.15-1.32,5.16s-1.06,3.82-1.46,5.12a9.41,9.41,0,0,1-.75,2.08,9.45,9.45,0,0,1,.4-2.18c.31-1.33.77-3.15,1.31-5.16s1.06-3.81,1.46-5.11A8.83,8.83,0,0,1,122.93,199.58Z" style="fill:#263238"></path><path d="M121.66,236.15c-.09,0-.36-1.36-1-3.47a11,11,0,0,0-1.77-3.4,6.31,6.31,0,0,0-3.81-2.41,14.64,14.64,0,0,0-4.67.54l-3.85.76a6.18,6.18,0,0,0-1.42.37,1.32,1.32,0,0,0-.71.73,1.13,1.13,0,0,0,0,.89s-.41-.26-.24-.95a1.53,1.53,0,0,1,.78-.93,5.9,5.9,0,0,1,1.47-.47l3.83-.87a14,14,0,0,1,4.85-.58,6.59,6.59,0,0,1,4.11,2.63,10.67,10.67,0,0,1,1.74,3.58,23.05,23.05,0,0,1,.59,2.6A3.75,3.75,0,0,1,121.66,236.15Z" style="fill:#263238"></path><path d="M125.67,230.23a12.9,12.9,0,0,0-3.19-3.67c-2.22-1.57-4.53-1.8-4.48-2a3.1,3.1,0,0,1,1.48.1,9.2,9.2,0,0,1,3.3,1.44,7.91,7.91,0,0,1,2.41,2.69A3.09,3.09,0,0,1,125.67,230.23Z" style="fill:#263238"></path><path d="M145.06,211.67a3.51,3.51,0,0,1-.16.57l-.54,1.61c-.51,1.47-1.19,3.47-2,5.92s-1.9,5.48-3.36,8.67-3.17,6.61-5.25,10.1a34.34,34.34,0,0,1-7.34,8.71,31.24,31.24,0,0,1-7.89,4.93,24.34,24.34,0,0,1-6,1.7c-.74.09-1.31.14-1.7.15a2.3,2.3,0,0,1-.6,0c0-.06.82-.09,2.27-.35a26.32,26.32,0,0,0,5.92-1.84,33.62,33.62,0,0,0,14.93-13.57c2-3.44,3.73-6.92,5.27-10s2.52-6.12,3.44-8.59,1.65-4.49,2.19-5.87c.25-.64.46-1.16.63-1.57A2.12,2.12,0,0,1,145.06,211.67Z" style="fill:#263238"></path><path d="M136.61,189.61c0,.15-2.25,1-4.81,2.5s-4.41,3.12-4.51,3a13.87,13.87,0,0,1,4.24-3.46A14.29,14.29,0,0,1,136.61,189.61Z" style="fill:#263238"></path><path d="M76,212.19a25.5,25.5,0,0,1,.81-5.08,25.44,25.44,0,0,1,1.31-5,25.54,25.54,0,0,1-.81,5.09A25.2,25.2,0,0,1,76,212.19Z" style="fill:#263238"></path><path d="M114.27,261.16a10.42,10.42,0,0,1-1.51.76c-.49.24-1.1.51-1.82.79s-1.53.63-2.45.93a60.62,60.62,0,0,1-6.57,1.9,67.33,67.33,0,0,1-8.27,1.31,66.45,66.45,0,0,1-8.38.16,60.32,60.32,0,0,1-6.8-.72c-1-.13-1.82-.34-2.58-.49s-1.4-.31-1.93-.45a10,10,0,0,1-1.62-.49,11.12,11.12,0,0,1,1.67.29c.53.11,1.18.25,1.94.37s1.61.3,2.58.41a67.68,67.68,0,0,0,6.76.6,65,65,0,0,0,16.53-1.46,67,67,0,0,0,6.55-1.78c.93-.28,1.74-.6,2.47-.85s1.34-.5,1.84-.71A10.86,10.86,0,0,1,114.27,261.16Z" style="fill:#263238"></path><path d="M90.36,276.46a26.18,26.18,0,0,1-6-1.49,25.82,25.82,0,0,1-5.66-2.39,59.7,59.7,0,0,1,5.83,1.9A60.27,60.27,0,0,1,90.36,276.46Z" style="fill:#263238"></path><g style="opacity:0.30000000000000004"><path d="M68.09,251.94a17.6,17.6,0,0,0,11,3.67c3.59-.06,7.1-1.23,10.68-1.13a36.43,36.43,0,0,1,8.28,1.67c4.57,1.21,9.35,2.05,14,1.25s9.19-3.52,11.14-7.82a22.93,22.93,0,0,1-21.53,2.23c-1.93-.82-3.78-1.91-5.85-2.23-2.52-.38-5,.43-7.54.92-6.9,1.36-14,.26-21-.85"></path></g><g style="opacity:0.30000000000000004"><path d="M79.54,273.58a18.92,18.92,0,0,0,14.34,9.06,9.44,9.44,0,0,0,3.78-.31,4.73,4.73,0,0,0,2.85-2.38,13.15,13.15,0,0,0-4.45-1.84l-16.34-4.49"></path></g><path d="M99.23,226c-.14.05-2.21-5.27-4.62-11.87s-4.27-12-4.14-12.06,2.21,5.27,4.62,11.88S99.36,226,99.23,226Z" style="fill:#fafafa"></path><path d="M110,199.38c.1.11-5.61,5.29-12.75,11.56s-13,11.28-13.09,11.17,5.61-5.28,12.75-11.56S109.9,199.27,110,199.38Z" style="fill:#fafafa"></path><path d="M103.79,191.24a11.33,11.33,0,0,0,11.33-11.33V145.44a16.54,16.54,0,0,0-17-16.6l-.25,0A17.3,17.3,0,0,0,82,146.16c0,7.91.14,16.49.54,20.69.85,8.9,9.88,9.55,9.88,9.55v3.53a11.34,11.34,0,0,0,11.34,11.31Z" style="fill:#ffbe9d"></path><path d="M92.42,176.27A20.85,20.85,0,0,0,103.77,172s-2.22,6.64-11.18,6.57Z" style="fill:#eb996e"></path><path d="M85,152.45a1.28,1.28,0,0,0,1.33,1.18,1.22,1.22,0,0,0,1.22-1.25,1.28,1.28,0,0,0-1.33-1.19A1.23,1.23,0,0,0,85,152.45Z" style="fill:#263238"></path><path d="M84.3,149.75c.17.15,1.08-.64,2.45-.75s2.43.49,2.56.31-.12-.37-.58-.65a3.48,3.48,0,0,0-2.07-.45,3.36,3.36,0,0,0-1.93.8C84.33,149.37,84.22,149.68,84.3,149.75Z" style="fill:#263238"></path><path d="M98.06,151.88a1.26,1.26,0,0,0,1.33,1.18,1.22,1.22,0,0,0,1.22-1.25,1.29,1.29,0,0,0-1.34-1.19A1.22,1.22,0,0,0,98.06,151.88Z" style="fill:#263238"></path><path d="M97.78,148.89c.17.15,1.08-.64,2.45-.75s2.43.49,2.56.31-.11-.36-.58-.65a3.48,3.48,0,0,0-2.07-.45,3.39,3.39,0,0,0-1.93.8C97.82,148.51,97.7,148.82,97.78,148.89Z" style="fill:#263238"></path><path d="M93.65,159.46a8.72,8.72,0,0,0-2.25-.22c-.36,0-.69-.05-.77-.28a1.72,1.72,0,0,1,.15-1.06c.25-.87.52-1.79.81-2.75A47.83,47.83,0,0,0,93.34,148c-.16-.05-1.2,3.09-2.32,7-.27,1-.53,1.88-.77,2.76a2,2,0,0,0-.07,1.38.88.88,0,0,0,.62.47,2.53,2.53,0,0,0,.6,0A8.93,8.93,0,0,0,93.65,159.46Z" style="fill:#263238"></path><path d="M97.76,160.07c-.22,0-.1,1.49-1.29,2.65s-2.78,1.13-2.77,1.34.37.26,1,.22a3.72,3.72,0,0,0,2.32-1,3.23,3.23,0,0,0,1-2.22C98.06,160.41,97.86,160.05,97.76,160.07Z" style="fill:#263238"></path><path d="M97,143.55c.17.36,1.52.07,3.15.13s3,.4,3.14,0c.08-.16-.17-.5-.73-.81a5.2,5.2,0,0,0-2.38-.62,5.08,5.08,0,0,0-2.4.49C97.18,143.06,96.91,143.38,97,143.55Z" style="fill:#263238"></path><path d="M84.48,145.74c.26.29,1.18-.11,2.31-.22s2.11,0,2.31-.3c.08-.17-.09-.47-.54-.73a3.21,3.21,0,0,0-1.93-.35,3.14,3.14,0,0,0-1.79.78C84.46,145.27,84.36,145.6,84.48,145.74Z" style="fill:#263238"></path><path d="M104.64,136.47l0,0a7,7,0,0,1,3,4.32l0,.18c.56,2.51.71,5.1,1.29,7.61s.48,4.42,3,5a3.37,3.37,0,0,0,3.5-1.42,2.23,2.23,0,0,0,.22-1.2c0-6.17,1.21-8.57.67-15a5.44,5.44,0,0,0-2.61-4.22c-1.43-.85-3.15-1.71-4.58-.88s-3.14,3.79-4.2,5.07" style="fill:#263238"></path><path d="M112.45,149.72c.15-.08,6-2.32,6.28,3.79s-5.88,5.16-5.9,5S112.45,149.72,112.45,149.72Z" style="fill:#ffbe9d"></path><path d="M114.58,156.08s.11.07.29.15a1.06,1.06,0,0,0,.8,0,2.65,2.65,0,0,0,1.1-2.42,3.62,3.62,0,0,0-.38-1.51,1.25,1.25,0,0,0-.84-.78.54.54,0,0,0-.61.33c-.08.17,0,.29-.06.3s-.14-.09-.1-.35a.65.65,0,0,1,.22-.39.8.8,0,0,1,.58-.19,1.5,1.5,0,0,1,1.16.89,3.69,3.69,0,0,1,.45,1.69,2.76,2.76,0,0,1-1.42,2.72,1.13,1.13,0,0,1-1-.12C114.6,156.23,114.56,156.1,114.58,156.08Z" style="fill:#eb996e"></path><path d="M109.47,131.82c1.3-2.57-3.1-5.73-6.19-6.43s-6.92,1.1-9.83,2.34c-1.84.78-3.65,1.81-5.64,1.89a13.4,13.4,0,0,1-4-.66,9.91,9.91,0,0,0-4-.45,3.7,3.7,0,0,0-3,2.3,2.31,2.31,0,0,0,1.8,3,3,3,0,1,0-.34,5.61c-.92-.58-2.16.61-2,1.69a3.16,3.16,0,0,0,2.27,2.13c2.64.91,5.57.31,8.13-.8s4.88-2.68,7.41-3.85,6.75-3.23,9.44-2.52c2,.52,3.52,2.73,4.56,2.12a3.73,3.73,0,0,0,1.71-2.9,10.92,10.92,0,0,0-.41-3.45" style="fill:#263238"></path><path d="M77.91,133.69s.35.42,1.07,1.08a8.48,8.48,0,0,0,3.56,1.9,7.77,7.77,0,0,0,5.79-.72c2-1.1,3.62-3.1,5.51-5a12.68,12.68,0,0,1,6.58-3.86,7.05,7.05,0,0,1,6,1.54,5.31,5.31,0,0,1,1.71,3.82,4,4,0,0,1-.17,1.14c-.09.25-.15.38-.17.37a10,10,0,0,0,.11-1.5,5.3,5.3,0,0,0-1.76-3.52,6.71,6.71,0,0,0-5.61-1.3,12.39,12.39,0,0,0-6.25,3.74c-1.86,1.87-3.53,3.93-5.67,5.08a8.1,8.1,0,0,1-6.17.64,8.22,8.22,0,0,1-3.62-2.14,5.48,5.48,0,0,1-.71-.9C78,133.82,77.89,133.7,77.91,133.69Z" style="fill:#455a64"></path><path d="M114,149.32s-.28-.14-.55-.61a4.12,4.12,0,0,1-.48-2.18c0-2,1.53-4.22,1.53-6.95a6.17,6.17,0,0,0-1-3.59,4.6,4.6,0,0,0-2.42-1.76,3.93,3.93,0,0,0-2.06-.11,5.15,5.15,0,0,1-.76.21s.19-.24.69-.44a3.85,3.85,0,0,1,2.24-.08,4.94,4.94,0,0,1,2.77,1.86,6.48,6.48,0,0,1,1.12,3.91,10.91,10.91,0,0,1-.86,3.94,11.91,11.91,0,0,0-.85,3A4.71,4.71,0,0,0,114,149.32Z" style="fill:#455a64"></path><path d="M115.46,158.16c.08,0,.15.22.42.39a.65.65,0,0,0,1-.2.66.66,0,0,0-.28-.93c-.28-.15-.52-.1-.55-.17s.21-.28.68-.17a1.05,1.05,0,0,1,.64.51,1,1,0,0,1,0,1,1,1,0,0,1-.87.54,1.08,1.08,0,0,1-.76-.32C115.32,158.48,115.4,158.15,115.46,158.16Z" style="fill:#263238"></path><path d="M122.48,287c-1.21-1.77-3.9-1.34-6-.76-9.18,2.58-19.52,8.58-29,7.54s-17.43-14.43-24.19-21.16l-4.79,12.33c2.28,3.9,5,10.18,22.43,12.49a4.79,4.79,0,0,0,0,.85,4.5,4.5,0,0,0,1.35,2.89,22.63,22.63,0,0,0-5,10.95c-.43,2.73-.35,5.53-.89,8.23s-1.87,5.46-4.29,6.79a4.35,4.35,0,0,0-1.92,1.4,2.35,2.35,0,0,0,.09,2.14c1.24,2.54,4.86,3.12,7.37,1.84s4.08-3.87,5.2-6.46c2.52-5.82,3.42-12.18,4.3-18.46l0-.21a4.36,4.36,0,0,0,1.74,1c1.22.36,2.76.27,3.48,1.33a4.26,4.26,0,0,1,.43,2.2,2.16,2.16,0,0,0,1,1.94,2.45,2.45,0,0,0,2.17-.5l5.1-3.11c.27-.16.57-.38.58-.69s-.35-.6-.69-.65-.7,0-1,0a2.09,2.09,0,0,1-1.45-1.3,18.9,18.9,0,0,1-.6-1.94,8,8,0,0,0-5.62-4.72,14.07,14.07,0,0,0-3.1-.46,4.21,4.21,0,0,0,.6-1.29,4.6,4.6,0,0,0,.12-1,97.53,97.53,0,0,0,23.23-1.78,59.73,59.73,0,0,1,8.29-.73C121.66,293.25,123.59,288.6,122.48,287Z" style="fill:#455a64"></path><path d="M82.09,301.39s.32-.74,1.41-1.35a4.6,4.6,0,0,1,2.1-.55,3.51,3.51,0,0,1,.64,0,1.16,1.16,0,0,1,.71.36,1.63,1.63,0,0,1,.28.72c0,.22.07.44.11.67a17.34,17.34,0,0,1,.07,4.69,5.55,5.55,0,0,1-.45,1.89,36.32,36.32,0,0,0-.14-6.5,3.35,3.35,0,0,0-.27-1.15c-.13-.2-.59-.22-1-.23a4.48,4.48,0,0,0-1.93.4A9.71,9.71,0,0,0,82.09,301.39Z" style="fill:#263238"></path><path d="M88.89,300.67c-.09.11-.54-.1-1.1-.24s-1.06-.17-1.09-.32.52-.36,1.21-.19S89,300.57,88.89,300.67Z" style="fill:#263238"></path><path d="M89.7,299.1c-.09,0,.06-.78-.2-2a3.71,3.71,0,0,0-.93-1.81,3.42,3.42,0,0,0-2.24-.92,7,7,0,0,0-2.55.24,3.8,3.8,0,0,0-1.73,1.07,4.36,4.36,0,0,0-.87,1.71,2.18,2.18,0,0,1,.59-1.95,4,4,0,0,1,1.86-1.29,7,7,0,0,1,2.74-.3A3.8,3.8,0,0,1,88.92,295a3.87,3.87,0,0,1,.94,2.07A3.34,3.34,0,0,1,89.7,299.1Z" style="fill:#263238"></path><path d="M87.15,294.7c.06,0,.32.2.57.71a3.61,3.61,0,0,1,.25,2.18,3.52,3.52,0,0,1-1.09,1.91c-.42.37-.76.48-.79.43a4.58,4.58,0,0,0,1.06-5.23Z" style="fill:#263238"></path><path d="M71.08,287.45a57.17,57.17,0,0,0,4.9,4.34,58.09,58.09,0,0,0,5.64,3.3,5.41,5.41,0,0,1-1.86-.57A20.82,20.82,0,0,1,72.2,289,5.82,5.82,0,0,1,71.08,287.45Z" style="fill:#263238"></path><path d="M81.18,295.9a5.45,5.45,0,0,1-2.65,0,5.47,5.47,0,0,1-2.54-.78,9.36,9.36,0,0,1,2.61.27A9.64,9.64,0,0,1,81.18,295.9Z" style="fill:#263238"></path><path d="M100.08,295.11a17.1,17.1,0,0,1-5.24,1.21,17.28,17.28,0,0,1-5.39,0c0-.15,2.4-.21,5.33-.56S100.05,295,100.08,295.11Z" style="fill:#263238"></path><path d="M95.12,297.66a5.17,5.17,0,0,1-2.82.21,5.25,5.25,0,0,1-2.71-.82,14.5,14.5,0,0,1,2.77.3A15.68,15.68,0,0,1,95.12,297.66Z" style="fill:#263238"></path><path d="M81,315.4a7.22,7.22,0,0,1-.19-2.32,20.1,20.1,0,0,1,3.35-10.66,7.41,7.41,0,0,1,1.48-1.8,35.19,35.19,0,0,0-3.41,7.05A34.55,34.55,0,0,0,81,315.4Z" style="fill:#263238"></path><path d="M94.53,307.85c-.08,0-.26-.5-.76-1.23a12.41,12.41,0,0,0-2.37-2.52,25.5,25.5,0,0,1-3.75-3.3,22.54,22.54,0,0,1,4.09,2.91,9.67,9.67,0,0,1,2.35,2.72A2.5,2.5,0,0,1,94.53,307.85Z" style="fill:#263238"></path><path d="M120.16,296.27a15.06,15.06,0,0,1,.25-3.91,14.37,14.37,0,0,1,.77-3.83,15,15,0,0,1-.25,3.9A14.38,14.38,0,0,1,120.16,296.27Z" style="fill:#263238"></path><path d="M67.51,231.55l-16.4-.82a4,4,0,0,1-3.59-2.7L38,200.16a4,4,0,0,1,3.93-5.3l23.62.78a4,4,0,0,1,3.75,3l6,23.41A7.61,7.61,0,0,1,67.51,231.55Z" style="fill:#455a64"></path><path d="M63.3,220.4c-1.18,1.22-13.39-5-15.34-4.64s-3.13,1.53-2,2.36,9.41,4.45,9.83,5.59c0,0-12.64-4-13.16-3.22s-1.39,2-.13,2.56,12.16,4,13.1,4.5a23.06,23.06,0,0,0,4.87,1.69,51.87,51.87,0,0,1,5.07,1.9,11.36,11.36,0,0,0,8,.18l1.33-.46a5.09,5.09,0,0,0,3.4-4.86l0-4.38,1.58-3.54-2.81-5.93-4.61-1.54,1.78,5.51c-1.81.87-4.89,1.49-6.45.62s-7.68-6.94-8.84-6.36-2.18,2-1.13,3.32,6.8,5.47,5.61,6.7" style="fill:#ffbe9d"></path><path d="M55.84,205.11a1.76,1.76,0,1,1-1.75-1.75A1.76,1.76,0,0,1,55.84,205.11Z" style="fill:#fff"></path><path d="M72,216.85s-.09-.15-.2-.45-.28-.79-.46-1.31c-.39-1.15-.93-2.82-1.56-4.89s-1.38-4.54-2.09-7.32c-.4-1.36-.46-3-1.4-4.08s-2.68-1.27-4.29-1.32c-6.6-.11-12.58-.24-16.9-.36L40,197l-1.4-.08a1.58,1.58,0,0,1-.48-.06,2.32,2.32,0,0,1,.48,0l1.4,0H45.1c4.33,0,10.31.1,16.92.21a12.24,12.24,0,0,1,2.48.28,4.11,4.11,0,0,1,2.17,1.22,5,5,0,0,1,1,2.17c.17.73.33,1.44.49,2.14.68,2.77,1.38,5.25,2,7.33s1.05,3.69,1.4,4.93c.15.53.27,1,.37,1.34A2.45,2.45,0,0,1,72,216.85Z" style="fill:#263238"></path></g><g id="freepik--Skateboard--inject-272"><path d="M152.62,329.55s-8.62-1.19-13.87,12.19c-6.13,15.59-10.3,27.74-9.67,45.81.52,14.88,8.14,58.38,10.82,73.3a6.19,6.19,0,0,0,6.09,5.09h16.95a6.19,6.19,0,0,0,6.14-5.41c2-15.57,7.29-60.42,5.39-77C172.16,363.38,168.59,330.81,152.62,329.55Z" style="fill:#E7D42F"></path><path d="M172.09,363s0,.24,0,.71-.08,1.19-.13,2-.26,1.94-.42,3.19-.47,2.65-.92,4.16a49.36,49.36,0,0,1-4,10.34,50.88,50.88,0,0,1-7.84,11.06A47.47,47.47,0,0,1,148.19,403c-3.61,2.09-7,3.79-9.39,5.84a15.48,15.48,0,0,0-4.52,5.83,12.91,12.91,0,0,0-.6,1.93c-.08.46-.13.7-.13.7s0-.25.09-.71a10.63,10.63,0,0,1,.57-1.95,15.4,15.4,0,0,1,4.5-5.92c2.41-2.07,5.79-3.79,9.39-5.89a47.55,47.55,0,0,0,10.49-8.5,51.1,51.1,0,0,0,7.82-11,49.64,49.64,0,0,0,4-10.29c.46-1.51.66-2.92.94-4.14s.36-2.31.46-3.18.13-1.51.17-2S172.09,363,172.09,363Z" style="fill:#fafafa"></path><path d="M170.07,356s-.17.52-.51,1.49-.88,2.39-1.62,4.21A90.26,90.26,0,0,1,144,394.87c-.86.77-1.78,1.49-2.69,2.26a18.81,18.81,0,0,1-3,2.06,6.74,6.74,0,0,1-3.55.94,5,5,0,0,1-3.37-1.58,7.62,7.62,0,0,1-1.86-3.34,14.72,14.72,0,0,1-.45-3.86c0-2.61.07-5.24.23-7.91a32.23,32.23,0,0,1,1.31-7.81,17.94,17.94,0,0,1,3.75-6.69,11.44,11.44,0,0,1,6.36-3.68,9.9,9.9,0,0,1,6.92,1.17,7.93,7.93,0,0,1,3.62,5.56,11.73,11.73,0,0,1-.75,6.3,19.71,19.71,0,0,1-3.13,5.08,38.12,38.12,0,0,1-3.78,4,9.5,9.5,0,0,1-4.36,2.4,4.49,4.49,0,0,1-4.12-1.32,6.3,6.3,0,0,1-1.62-3.48,8,8,0,0,1,.23-3.25,17.52,17.52,0,0,1,1.8-4.12c.51-.9.8-1.36.8-1.36s-.27.47-.76,1.38a17.28,17.28,0,0,0-1.76,4.12,7.83,7.83,0,0,0-.22,3.21,6.28,6.28,0,0,0,1.62,3.42,4.35,4.35,0,0,0,4,1.27,9.45,9.45,0,0,0,4.28-2.38,39.06,39.06,0,0,0,3.76-4,19.47,19.47,0,0,0,3.09-5,11.52,11.52,0,0,0,.73-6.21,7.68,7.68,0,0,0-3.54-5.42,9.62,9.62,0,0,0-6.78-1.14,11.19,11.19,0,0,0-6.25,3.62,17.78,17.78,0,0,0-3.7,6.61,32.72,32.72,0,0,0-1.31,7.76c-.15,2.66-.19,5.3-.22,7.9a14.71,14.71,0,0,0,.43,3.81,7.48,7.48,0,0,0,1.81,3.24,4.77,4.77,0,0,0,3.24,1.53,6.57,6.57,0,0,0,3.45-.92,19.18,19.18,0,0,0,2.93-2c.9-.76,1.83-1.47,2.69-2.25A91.25,91.25,0,0,0,160,376.29a92.87,92.87,0,0,0,7.83-14.58c.74-1.81,1.31-3.22,1.65-4.2Z" style="fill:#fafafa"></path><path d="M169.8,346.1s0,.17-.13.5a13.34,13.34,0,0,1-.44,1.4,19.2,19.2,0,0,1-2.57,4.76,20.22,20.22,0,0,1-5.93,5.37,18.46,18.46,0,0,1-4.35,1.92,22.69,22.69,0,0,1-5,.83c-3.49.2-6.81,0-9.82.21a17.24,17.24,0,0,0-7.58,2.28,11.39,11.39,0,0,0-2.39,1.89,8.8,8.8,0,0,0-1.35,1.87,12.66,12.66,0,0,0-.74,1.83s0-.17.13-.5a6.88,6.88,0,0,1,.53-1.37,9.1,9.1,0,0,1,1.34-1.91,12,12,0,0,1,2.41-1.94,17.26,17.26,0,0,1,7.64-2.34c3-.27,6.35,0,9.82-.23a22.43,22.43,0,0,0,5-.81,19.05,19.05,0,0,0,4.3-1.89,20.36,20.36,0,0,0,5.91-5.3,19.05,19.05,0,0,0,2.61-4.7,14,14,0,0,0,.48-1.38C169.73,346.27,169.8,346.1,169.8,346.1Z" style="fill:#fafafa"></path><path d="M134.6,360.51A5.19,5.19,0,0,1,135,359a9.9,9.9,0,0,1,2.5-3.37,23.35,23.35,0,0,1,5.27-3.34,37.48,37.48,0,0,0,6.49-3.95,32.44,32.44,0,0,0,5.37-5.37,31.4,31.4,0,0,0,3.34-5.23,32.29,32.29,0,0,0,1.66-3.85l.36-1.08c.09-.25.14-.37.14-.37s0,.13-.1.38-.2.67-.32,1.1a30.9,30.9,0,0,1-1.6,3.89,31.48,31.48,0,0,1-8.72,10.69,36.39,36.39,0,0,1-6.53,4,23.47,23.47,0,0,0-5.26,3.28,9.88,9.88,0,0,0-2.52,3.29,8.22,8.22,0,0,0-.4,1.07Z" style="fill:#fafafa"></path><path d="M160.39,417.11h-.26c-.17,0-.43,0-.77,0a16,16,0,0,0-7.39,1.58,14.44,14.44,0,0,0-4.87,3.72,7.84,7.84,0,0,0-1.59,3.17,4,4,0,0,0,.83,3.59,5.07,5.07,0,0,0,3.69,1.56,10.68,10.68,0,0,0,4.26-1,28.59,28.59,0,0,0,8-5.09,20,20,0,0,0,5.84-8.21,10,10,0,0,0,.42-5.08,8.81,8.81,0,0,0-2.2-4.4,6.49,6.49,0,0,0-4.25-2,11,11,0,0,0-4.53.75A48,48,0,0,0,143.86,414a49.88,49.88,0,0,0-7.39,8c-.76,1-1.33,1.85-1.7,2.43l-.57.85s.7-1.24,2.2-3.33a49.32,49.32,0,0,1,7.36-8,47.52,47.52,0,0,1,13.73-8.45,11.11,11.11,0,0,1,4.61-.77,6.71,6.71,0,0,1,4.37,2.06,8.85,8.85,0,0,1,2.26,4.5,10.28,10.28,0,0,1-.42,5.18,20.22,20.22,0,0,1-5.9,8.3,28.54,28.54,0,0,1-8,5.11,10.61,10.61,0,0,1-4.33,1,5.24,5.24,0,0,1-3.82-1.62,4.21,4.21,0,0,1-.85-3.75,8,8,0,0,1,1.62-3.23,14.49,14.49,0,0,1,4.94-3.72,16.21,16.21,0,0,1,4.48-1.37,15.16,15.16,0,0,1,3-.15A9.21,9.21,0,0,1,160.39,417.11Z" style="fill:#fafafa"></path><path d="M173.88,417.24l-.23.4c-.19.31-.42.67-.69,1.12a18.33,18.33,0,0,1-1.15,1.71c-.49.65-1,1.42-1.68,2.18l-1,1.22c-.36.42-.79.81-1.2,1.25-.81.88-1.78,1.71-2.78,2.62a46.59,46.59,0,0,1-7.2,5,45.55,45.55,0,0,1-8,3.41c-1.3.36-2.52.74-3.7.95-.59.11-1.15.25-1.7.33l-1.58.22c-1,.17-1.93.19-2.74.25a16.83,16.83,0,0,1-2.07.05l-1.31,0a3.82,3.82,0,0,1-.45,0l.45,0,1.31,0a17.88,17.88,0,0,0,2.07-.09c.8-.07,1.72-.1,2.72-.28l1.57-.23c.55-.08,1.11-.22,1.69-.34,1.18-.22,2.39-.6,3.68-1a46.77,46.77,0,0,0,8-3.41,47.27,47.27,0,0,0,7.18-4.93c1-.89,2-1.72,2.78-2.59.41-.43.83-.83,1.2-1.24l1-1.21c.68-.75,1.2-1.51,1.69-2.15a20.51,20.51,0,0,0,1.19-1.69l.71-1.09C173.78,417.37,173.88,417.24,173.88,417.24Z" style="fill:#fafafa"></path><path d="M172.57,431s-.13.09-.39.24l-1.13.63c-.49.27-1.09.61-1.77,1s-1.47.86-2.3,1.43c-1.7,1.08-3.65,2.48-5.74,4.12a79.65,79.65,0,0,0-6.42,5.78,74.76,74.76,0,0,0-5.68,6.51c-1.62,2.11-3,4.08-4,5.79-.55.84-1,1.63-1.4,2.32s-.74,1.29-1,1.79l-.62,1.14c-.14.25-.23.39-.23.39a56.66,56.66,0,0,1,3.12-5.72,69.16,69.16,0,0,1,4-5.83,76.88,76.88,0,0,1,5.69-6.54,78.22,78.22,0,0,1,6.46-5.78,67.71,67.71,0,0,1,5.77-4.09A56.84,56.84,0,0,1,172.57,431Z" style="fill:#fafafa"></path><path d="M167.59,455.46a25.83,25.83,0,0,0-2.58.44,15.58,15.58,0,0,0-2.66,1,17.09,17.09,0,0,0-2.93,1.85,16.48,16.48,0,0,0-2.42,2.47,14.61,14.61,0,0,0-1.5,2.4,24,24,0,0,0-1,2.43,10.42,10.42,0,0,1,.85-2.49,12.57,12.57,0,0,1,1.48-2.45,15.55,15.55,0,0,1,2.44-2.52,16,16,0,0,1,3-1.86,13.87,13.87,0,0,1,2.71-.93A10.32,10.32,0,0,1,167.59,455.46Z" style="fill:#fafafa"></path><rect x="147.33" y="339.97" width="9.64" height="14.24" style="fill:#263238"></rect><ellipse cx="163.71" cy="344.57" rx="1.74" ry="5.99" style="fill:#263238"></ellipse><path d="M163.71,338.58h5.81a2.19,2.19,0,0,1,2.09,1.47,14.2,14.2,0,0,1-.09,9,2.21,2.21,0,0,1-2.1,1.5h-5.71Z" style="fill:#263238"></path><path d="M163.62,338.56s.21,0,.49.2a2.54,2.54,0,0,1,.71,1.24,22,22,0,0,1,.66,4.51c0,.89,0,1.74,0,2.51a8.12,8.12,0,0,1-.34,2.05,2.18,2.18,0,0,1-.87,1.13c-.3.18-.5.18-.51.15a2.45,2.45,0,0,0,1-1.4,9.55,9.55,0,0,0,.21-2c0-.76,0-1.59,0-2.46a31.63,31.63,0,0,0-.5-4.44,2.74,2.74,0,0,0-.49-1.18C163.77,338.67,163.61,338.6,163.62,338.56Z" style="fill:#455a64"></path><path d="M141.2,343.25h22.48c.57.54.48,1.14,0,1.77l-6,1.67s-1.17,4.89-5.26,4.45a6.47,6.47,0,0,1-5.33-4.05l-5.92-1Z" style="fill:#e0e0e0"></path><path d="M153.47,349.9a2.69,2.69,0,1,1,2.69-2.69A2.7,2.7,0,0,1,153.47,349.9Zm0-4.38a1.69,1.69,0,1,0,1.69,1.69A1.69,1.69,0,0,0,153.47,345.52Z" style="fill:#263238"></path><ellipse cx="134.16" cy="344.68" rx="1.74" ry="5.99" style="fill:#263238"></ellipse><path d="M134.16,338.69H140a2.2,2.2,0,0,1,2.09,1.47,14.15,14.15,0,0,1-.1,9,2.2,2.2,0,0,1-2.1,1.5h-5.7Z" style="fill:#263238"></path><path d="M134.07,338.67s.21,0,.49.2a2.53,2.53,0,0,1,.7,1.24,21.95,21.95,0,0,1,.62,7,8.14,8.14,0,0,1-.33,2.05,2.14,2.14,0,0,1-.88,1.13c-.29.18-.49.18-.5.15a2.49,2.49,0,0,0,1-1.4,9,9,0,0,0,.2-2c0-.76,0-1.59,0-2.46a33.42,33.42,0,0,0-.49-4.44,2.62,2.62,0,0,0-.5-1.18C134.22,338.78,134.05,338.71,134.07,338.67Z" style="fill:#455a64"></path><rect x="151.19" y="444.99" width="9.64" height="14.24" style="fill:#263238"></rect><path d="M169.31,449.6c0,3.31-.78,6-1.74,6s-1.74-2.68-1.74-6,.77-6,1.74-6S169.31,446.29,169.31,449.6Z" style="fill:#263238"></path><path d="M167.57,443.6h5.81a2.22,2.22,0,0,1,2.09,1.47,14.25,14.25,0,0,1-.1,9,2.19,2.19,0,0,1-2.1,1.49h-5.7Z" style="fill:#263238"></path><path d="M167.48,443.59s.21,0,.49.2a2.48,2.48,0,0,1,.7,1.24,21.87,21.87,0,0,1,.62,7,8.07,8.07,0,0,1-.33,2,2.17,2.17,0,0,1-.88,1.14c-.3.18-.5.17-.5.14a2.49,2.49,0,0,0,1-1.39,9,9,0,0,0,.2-2c0-.76,0-1.59,0-2.47a33,33,0,0,0-.49-4.43,2.66,2.66,0,0,0-.5-1.19C167.63,443.7,167.46,443.63,167.48,443.59Z" style="fill:#455a64"></path><path d="M145.06,448.28h22.48c.57.53.48,1.13,0,1.77l-6,1.66s-1.17,4.89-5.25,4.46a6.5,6.5,0,0,1-5.34-4.06l-5.91-1.05Z" style="fill:#e0e0e0"></path><path d="M157.33,454.93a2.69,2.69,0,1,1,2.69-2.69A2.69,2.69,0,0,1,157.33,454.93Zm0-4.38a1.69,1.69,0,1,0,1.69,1.69A1.69,1.69,0,0,0,157.33,450.55Z" style="fill:#263238"></path><ellipse cx="138.01" cy="449.71" rx="1.74" ry="5.99" style="fill:#263238"></ellipse><path d="M138,443.71h5.81a2.2,2.2,0,0,1,2.09,1.47,14.23,14.23,0,0,1-.09,9,2.19,2.19,0,0,1-2.1,1.49H138Z" style="fill:#263238"></path><path d="M137.93,443.69s.21,0,.48.21a2.37,2.37,0,0,1,.71,1.24,21.87,21.87,0,0,1,.62,7,7.7,7.7,0,0,1-.34,2.05,2.11,2.11,0,0,1-.87,1.14c-.3.17-.5.17-.5.14a2.45,2.45,0,0,0,1-1.39,9,9,0,0,0,.21-2c0-.75,0-1.58,0-2.46a31.29,31.29,0,0,0-.5-4.43,2.67,2.67,0,0,0-.49-1.19C138.08,443.81,137.91,443.73,137.93,443.69Z" style="fill:#455a64"></path><path d="M162,336.72a11.07,11.07,0,0,0-.63-1.42,7,7,0,0,0-3.35-2.77,9.2,9.2,0,0,0-6.8-.14,15.72,15.72,0,0,0-7,5.92,62.42,62.42,0,0,0-9,22.38c-1.91,9-2.28,19.11-1.6,29.65.32,5.28.85,10.42,1.42,15.38s1.19,9.74,1.83,14.28c1.27,9.09,2.59,17.25,3.71,24.1.56,3.42,1.07,6.52,1.52,9.24a53.62,53.62,0,0,0,1.36,6.92,7,7,0,0,0,3.47,4.67,4.18,4.18,0,0,1-1.33-.81,8.29,8.29,0,0,1-2.33-3.8,51.27,51.27,0,0,1-1.46-6.93l-1.59-9.23c-1.17-6.84-2.52-15-3.83-24.09-.65-4.54-1.28-9.32-1.86-14.29s-1.11-10.11-1.43-15.41c-.68-10.57-.3-20.77,1.65-29.78a62.33,62.33,0,0,1,9.22-22.5,16,16,0,0,1,7.16-6,9.39,9.39,0,0,1,7,.22,7,7,0,0,1,3.36,2.91,4.86,4.86,0,0,1,.44,1.08A1.53,1.53,0,0,1,162,336.72Z" style="fill:#263238"></path><path d="M167.29,347.56a1.31,1.31,0,0,1,.09.3l.19.87c.17.8.4,1.92.7,3.35s.66,3.25,1,5.34.81,4.45,1.16,7.09c.19,1.32.39,2.7.59,4.14s.36,2.94.55,4.49c.4,3.11.67,6.45,1,9.95.53,7,.89,14.76.9,22.89s-.42,15.87-1,22.89c-.33,3.51-.61,6.85-1,9.95-.19,1.56-.35,3.06-.56,4.5s-.41,2.82-.61,4.13c-.36,2.64-.82,5-1.17,7.09s-.71,3.87-1,5.33-.54,2.55-.7,3.36c-.09.35-.15.64-.2.86a1.31,1.31,0,0,1-.09.3,1.77,1.77,0,0,1,0-.31c0-.22.08-.51.14-.88.15-.8.35-1.93.62-3.37s.61-3.25.93-5.34.76-4.45,1.1-7.09c.18-1.32.37-2.7.57-4.13s.35-2.95.53-4.5c.39-3.1.66-6.43,1-9.93.54-7,.91-14.74.94-22.86s-.35-15.84-.86-22.85c-.3-3.5-.56-6.83-.94-9.94-.18-1.55-.32-3.05-.51-4.49s-.39-2.82-.57-4.14c-.33-2.64-.75-5-1.07-7.1s-.64-3.88-.92-5.34-.46-2.56-.6-3.37c-.06-.37-.11-.66-.14-.88S167.29,347.57,167.29,347.56Z" style="fill:#263238"></path></g><g id="freepik--Plant--inject-272"><path d="M432.61,436.48a2.75,2.75,0,0,0-.21-.5c-.16-.36-.39-.84-.67-1.45a34.88,34.88,0,0,1-2-5.77c-1.32-5.14-1.78-13,.17-22.32a120.43,120.43,0,0,1,4.13-15c1.76-5.32,3.79-11,5.45-17.06a65.82,65.82,0,0,0,2.69-19.62c-.25-6.94-2.3-13.87-4.56-20.76s-4.59-13.66-5.29-20.45a31.13,31.13,0,0,1,3.75-18.88c3-5.51,6.75-10.22,9.57-15.11a52.23,52.23,0,0,0,5.75-14.52,54.08,54.08,0,0,0,.37-22.49,41.55,41.55,0,0,0-2.35-7.94,2.64,2.64,0,0,0,.14.52c.11.38.27.88.47,1.53a55.85,55.85,0,0,1,1.46,5.94,54.71,54.71,0,0,1-.58,22.33,52.38,52.38,0,0,1-5.77,14.33c-2.81,4.83-6.59,9.52-9.64,15.1a31.82,31.82,0,0,0-3.87,19.26c.71,6.91,3.06,13.7,5.31,20.6s4.28,13.74,4.54,20.57a65.82,65.82,0,0,1-2.62,19.42c-1.64,6.07-3.65,11.71-5.38,17a118,118,0,0,0-4.07,15.07c-1.9,9.4-1.36,17.33.06,22.48a33.23,33.23,0,0,0,2.12,5.77l.75,1.42A2.85,2.85,0,0,0,432.61,436.48Z" style="fill:#263238"></path><path d="M441.82,284.39s5.72-18.28-4.53-29a.63.63,0,0,0-1.09.31C435.65,258.73,435,267.93,441.82,284.39Z" style="fill:#E7D42F"></path><path d="M438.4,261.49a17.11,17.11,0,0,0,.38,3.38c.38,2.32.82,5.05,1.31,8.06s.91,5.74,1.28,8.06a18.82,18.82,0,0,0,.6,3.34,13.34,13.34,0,0,0-.1-3.4c-.19-2.09-.56-5-1.07-8.12s-1.07-6-1.52-8A14.83,14.83,0,0,0,438.4,261.49Z" style="fill:#263238"></path><path d="M435.11,327.52s-3.5-18.84-17.57-23.51a.64.64,0,0,0-.82.79C417.65,307.72,421.35,316.17,435.11,327.52Z" style="fill:#E7D42F"></path><path d="M421.37,308.88a16.79,16.79,0,0,0,1.92,2.8l4.92,6.52,4.91,6.53a17.65,17.65,0,0,0,2.09,2.66,14.19,14.19,0,0,0-1.68-2.95c-1.14-1.76-2.81-4.13-4.75-6.68s-3.74-4.8-5.09-6.4A15.25,15.25,0,0,0,421.37,308.88Z" style="fill:#263238"></path><path d="M438.91,374.77s2.13-19-10-27.59a.63.63,0,0,0-1,.51C428,350.76,429,359.92,438.91,374.77Z" style="fill:#E7D42F"></path><path d="M431.18,353a16.87,16.87,0,0,0,1,3.23l2.82,7.67c1,2.87,2,5.46,2.8,7.67a17.26,17.26,0,0,0,1.23,3.16,14.2,14.2,0,0,0-.75-3.31c-.59-2-1.5-4.77-2.61-7.77s-2.19-5.68-3-7.6A15.16,15.16,0,0,0,431.18,353Z" style="fill:#263238"></path><path d="M428.31,422.3s1.44-19.1-11-27.22a.64.64,0,0,0-1,.55C416.5,398.7,417.91,407.81,428.31,422.3Z" style="fill:#E7D42F"></path><path d="M419.8,400.77a17,17,0,0,0,1.14,3.2c.89,2.17,1.94,4.73,3.09,7.56s2.18,5.38,3.07,7.56a18.32,18.32,0,0,0,1.34,3.12,13.78,13.78,0,0,0-.87-3.29c-.65-2-1.66-4.71-2.88-7.66s-2.39-5.6-3.29-7.5A14.79,14.79,0,0,0,419.8,400.77Z" style="fill:#263238"></path><path d="M450,268.33s17-8.87,17.32-23.7a.63.63,0,0,0-1-.54C463.84,245.83,456.85,251.84,450,268.33Z" style="fill:#E7D42F"></path><path d="M463.83,249.73a16.75,16.75,0,0,0-2.12,2.65c-1.37,1.91-3,4.15-4.78,6.62l-4.81,6.6a17.9,17.9,0,0,0-1.93,2.79,14.62,14.62,0,0,0,2.33-2.47c1.35-1.61,3.12-3.9,5-6.5s3.49-5,4.62-6.75A15.17,15.17,0,0,0,463.83,249.73Z" style="fill:#263238"></path><path d="M431.81,307.59s17.49-7.82,18.72-22.59a.64.64,0,0,0-1-.61C447,286,439.6,291.56,431.81,307.59Z" style="fill:#E7D42F"></path><path d="M446.7,289.87a16.69,16.69,0,0,0-2.27,2.52l-5.18,6.31-5.2,6.3a17.87,17.87,0,0,0-2.1,2.67,14.79,14.79,0,0,0,2.48-2.33c1.44-1.52,3.35-3.7,5.37-6.18s3.79-4.77,5-6.46A15.61,15.61,0,0,0,446.7,289.87Z" style="fill:#263238"></path><path d="M441.87,351.4s12-14.93,6.38-28.65a.63.63,0,0,0-1.13-.1C445.51,325.26,441.51,333.57,441.87,351.4Z" style="fill:#E7D42F"></path><path d="M447.05,328.83a17.78,17.78,0,0,0-.87,3.28l-1.74,8c-.65,3-1.25,5.68-1.75,8a17.72,17.72,0,0,0-.66,3.33,14.13,14.13,0,0,0,1.15-3.21c.59-2,1.29-4.82,2-7.94s1.2-6,1.54-8A14.93,14.93,0,0,0,447.05,328.83Z" style="fill:#263238"></path><path d="M430,402.94s17.35-8.11,18.33-22.91a.63.63,0,0,0-1-.59C444.75,381.07,437.5,386.77,430,402.94Z" style="fill:#E7D42F"></path><path d="M444.57,385a17.29,17.29,0,0,0-2.23,2.56l-5.08,6.41-5.09,6.38a18.48,18.48,0,0,0-2.05,2.7,14.24,14.24,0,0,0,2.44-2.37c1.41-1.55,3.29-3.76,5.27-6.27s3.7-4.83,4.91-6.54A15.25,15.25,0,0,0,444.57,385Z" style="fill:#263238"></path><path d="M419.76,320.29a1.27,1.27,0,0,0-.13.4c-.08.33-.18.72-.3,1.19-.26,1.12-.6,2.64-1,4.53l-3.53,16.24h0v0c-.65,7,.71,15.35,3.3,23.81,1.89,6.22,4.08,12,5.88,17.32a108.09,108.09,0,0,1,4,14.32,53.88,53.88,0,0,1,1,10c0,1.19,0,2.11-.06,2.73a6,6,0,0,0,0,1,5.76,5.76,0,0,0,.14-1c.09-.62.15-1.54.2-2.73a49.15,49.15,0,0,0-.77-10.06,100.47,100.47,0,0,0-3.91-14.44c-1.77-5.34-3.93-11.13-5.81-17.32-2.58-8.41-3.95-16.64-3.37-23.56v0c1.35-6.68,2.48-12.27,3.28-16.28.37-1.91.66-3.44.88-4.57.08-.48.15-.88.2-1.21A1.33,1.33,0,0,0,419.76,320.29Z" style="fill:#263238"></path><path d="M418.14,365s-2.39-19,9.61-27.72a.63.63,0,0,1,1,.5C428.77,340.89,427.81,350.06,418.14,365Z" style="fill:#E7D42F"></path><path d="M425.57,343.12a14.89,14.89,0,0,0-1.45,3.07c-.8,1.93-1.85,4.63-2.92,7.64s-1.94,5.78-2.5,7.8A14.22,14.22,0,0,0,418,365a19.28,19.28,0,0,0,1.19-3.18c.77-2.22,1.68-4.83,2.69-7.71s1.93-5.48,2.71-7.7A16.48,16.48,0,0,0,425.57,343.12Z" style="fill:#263238"></path><path d="M414.86,341.71s-12.21-14.77-6.76-28.56a.64.64,0,0,1,1.13-.12C410.87,315.62,415,323.88,414.86,341.71Z" style="fill:#E7D42F"></path><path d="M409.37,319.22a16.32,16.32,0,0,0,.43,3.37c.36,2.06.92,4.9,1.64,8s1.46,5.92,2.07,7.93a14.13,14.13,0,0,0,1.19,3.18,18.43,18.43,0,0,0-.7-3.32c-.54-2.29-1.17-5-1.86-7.95s-1.32-5.66-1.85-8A15.84,15.84,0,0,0,409.37,319.22Z" style="fill:#263238"></path><path d="M427.45,393.09S410,385.21,408.8,370.43a.64.64,0,0,1,1-.6C412.38,371.42,419.71,377,427.45,393.09Z" style="fill:#E7D42F"></path><path d="M412.62,375.31a15,15,0,0,0,1.86,2.84c1.23,1.7,3,4,5,6.48s3.92,4.67,5.35,6.2a13.85,13.85,0,0,0,2.48,2.33,19.46,19.46,0,0,0-2.1-2.67L420,384.18l-5.16-6.34A17.53,17.53,0,0,0,412.62,375.31Z" style="fill:#263238"></path><polygon points="444.57 430.59 439.15 466.2 417.46 466.16 410.16 430.59 444.57 430.59" style="fill:#455a64"></polygon><path d="M413.33,444.33l.19.13a5.56,5.56,0,0,0,.57.32,7.67,7.67,0,0,0,2.42.73,9,9,0,0,0,4-.38,8.37,8.37,0,0,0,4.29-3.11,6,6,0,0,0,1-3,3.25,3.25,0,0,0-1.47-3.06,3.48,3.48,0,0,0-3.63.3,5.27,5.27,0,0,0-2.08,3.27,13.81,13.81,0,0,0-.27,4,13.28,13.28,0,0,0,.88,4.11,9.09,9.09,0,0,0,2.51,3.59,7,7,0,0,0,4.18,1.74,7.63,7.63,0,0,0,4.34-1.26,12.76,12.76,0,0,0,3.23-2.93,7,7,0,0,0,1.64-3.91,4.53,4.53,0,0,0-1.54-3.77,3.54,3.54,0,0,0-3.84-.24,4.12,4.12,0,0,0-2.21,2.91,5.57,5.57,0,0,0,2.74,5.64,7.64,7.64,0,0,0,5.23.75,11.74,11.74,0,0,0,3.73-1.46,19.13,19.13,0,0,0,2.09-1.41,5.12,5.12,0,0,0,.67-.57,5.53,5.53,0,0,0-.74.47c-.48.32-1.18.79-2.13,1.31a12,12,0,0,1-3.68,1.33,7.33,7.33,0,0,1-5-.79A5.14,5.14,0,0,1,428,443.9a3.61,3.61,0,0,1,2-2.53,3,3,0,0,1,3.26.2,4,4,0,0,1,1.32,3.31,6.52,6.52,0,0,1-1.54,3.58,12.33,12.33,0,0,1-3.09,2.79,7.11,7.11,0,0,1-4,1.17,6.49,6.49,0,0,1-3.81-1.6,8.44,8.44,0,0,1-2.36-3.35,12.94,12.94,0,0,1-.85-3.94,13.26,13.26,0,0,1,.23-3.85,4.81,4.81,0,0,1,1.84-3,3,3,0,0,1,3.09-.3,2.75,2.75,0,0,1,1.26,2.61,5.59,5.59,0,0,1-.9,2.77,8.07,8.07,0,0,1-4,3,9,9,0,0,1-3.85.46A10.42,10.42,0,0,1,413.33,444.33Z" style="fill:#263238"></path></g><g id="freepik--Floor--inject-272"><path d="M458.11,466c0,.06-94.34.1-210.7.1s-210.73,0-210.73-.1,94.33-.11,210.73-.11S458.11,466,458.11,466Z" style="fill:#263238"></path></g></svg>