<svg height="100%" width="100%" id="svg" viewBox="0 0 1440 400" xmlns="http://www.w3.org/2000/svg" class="transition duration-300 ease-in-out delay-150"><path d="M 0,400 C 0,400 0,200 0,200 C 86.45963586396425,219.14805908622466 172.9192717279285,238.29611817244933 241,220 C 309.0807282720715,201.70388182755067 358.7825489522501,145.96358639642733 425,159 C 491.2174510477499,172.03641360357267 573.9505324630711,253.84953624184135 647,270 C 720.0494675369289,286.15046375815865 783.4153211954656,236.63826863620744 838,233 C 892.5846788045344,229.36173136379256 938.388182755067,271.59738921332877 999,265 C 1059.611817244933,258.40261078667123 1135.0319477842665,202.97217451047752 1211,184 C 1286.9680522157335,165.02782548952248 1363.4840261078666,182.51391274476123 1440,200 C 1440,200 1440,400 1440,400 Z" stroke="none" stroke-width="0" fill="#e7d42fff" class="transition-all duration-300 ease-in-out delay-150" transform="rotate(-180 720 200)"></path></svg>